PowerhouseFilarMono-Bold.ufo
<glyph name="quotedbl" format="2">
  <advance width="600"/>
  <unicode hex="0022"/>
  <outline>
    <contour>
      <point x="118" y="700" type="line"/>
      <point x="144" y="349" type="line"/>
      <point x="256" y="349" type="line"/>
      <point x="282" y="700" type="line"/>
    </contour>
    <contour>
      <point x="319" y="700" type="line"/>
      <point x="345" y="349" type="line"/>
      <point x="457" y="349" type="line"/>
      <point x="483" y="700" type="line"/>
    </contour>
  </outline>
</glyph>
<glyph name="numbersign" format="2">
  <advance width="600"/>
  <unicode hex="0023"/>
  <outline>
    <contour>
      <point x="342" y="700" type="line"/>
      <point x="217" y="700" type="line"/>
      <point x="51" y="0" type="line"/>
      <point x="176" y="0" type="line"/>
    </contour>
    <contour>
      <point x="588" y="539" type="line"/>
      <point x="63" y="539" type="line"/>
      <point x="63" y="425" type="line"/>
      <point x="588" y="425" type="line"/>
    </contour>
    <contour>
      <point x="540" y="700" type="line"/>
      <point x="415" y="700" type="line"/>
      <point x="249" y="0" type="line"/>
      <point x="374" y="0" type="line"/>
    </contour>
    <contour>
      <point x="537" y="303" type="line"/>
      <point x="12" y="303" type="line"/>
      <point x="12" y="189" type="line"/>
      <point x="537" y="189" type="line"/>
    </contour>
  </outline>
</glyph>
<glyph name="ampersand" format="2">
  <advance width="600"/>
  <unicode hex="0026"/>
  <outline>
    <contour>
      <point x="235" y="308" type="curve"/>
      <point x="195" y="410" type="line"/>
      <point x="81" y="369"/>
      <point x="19" y="297"/>
      <point x="19" y="189" type="curve" smooth="yes"/>
      <point x="19" y="61"/>
      <point x="111" y="-12"/>
      <point x="252" y="-12" type="curve" smooth="yes"/>
      <point x="439" y="-12"/>
      <point x="550" y="144"/>
      <point x="578" y="359" type="curve"/>
      <point x="459" y="373" type="line"/>
      <point x="442" y="209"/>
      <point x="373" y="104"/>
      <point x="274" y="104" type="curve" smooth="yes"/>
      <point x="208" y="104"/>
      <point x="169" y="146"/>
      <point x="169" y="204" type="curve" smooth="yes"/>
      <point x="169" y="251"/>
      <point x="189" y="282"/>
    </contour>
    <contour>
      <point x="597" y="0" type="line"/>
      <point x="273" y="437" type="line" smooth="yes"/>
      <point x="245" y="475"/>
      <point x="229" y="502"/>
      <point x="229" y="538" type="curve" smooth="yes"/>
      <point x="229" y="573"/>
      <point x="247" y="602"/>
      <point x="288" y="602" type="curve" smooth="yes"/>
      <point x="325" y="602"/>
      <point x="344" y="578"/>
      <point x="344" y="540" type="curve" smooth="yes"/>
      <point x="344" y="497"/>
      <point x="325" y="461"/>
      <point x="249" y="430" type="curve"/>
      <point x="299" y="326" type="line"/>
      <point x="430" y="386"/>
      <point x="476" y="456"/>
      <point x="476" y="541" type="curve" smooth="yes"/>
      <point x="476" y="647"/>
      <point x="393" y="712"/>
      <point x="289" y="712" type="curve" smooth="yes"/>
      <point x="178" y="712"/>
      <point x="94" y="637"/>
      <point x="94" y="534" type="curve" smooth="yes"/>
      <point x="94" y="466"/>
      <point x="125" y="419"/>
      <point x="159" y="373" type="curve" smooth="yes"/>
      <point x="435" y="0" type="line"/>
    </contour>
  </outline>
</glyph>
<glyph name="quotesingle" format="2">
  <advance width="600"/>
  <unicode hex="0027"/>
  <outline>
    <contour>
      <point x="218" y="700" type="line"/>
      <point x="244" y="349" type="line"/>
      <point x="356" y="349" type="line"/>
      <point x="382" y="700" type="line"/>
    </contour>
  </outline>
</glyph>
<glyph name="asterisk" format="2">
  <advance width="600"/>
  <unicode hex="002A"/>
  <outline>
    <contour>
      <point x="127" y="316" type="line"/>
      <point x="207" y="259" type="line"/>
      <point x="300" y="389" type="line"/>
      <point x="393" y="259" type="line"/>
      <point x="473" y="316" type="line"/>
      <point x="379" y="446" type="line"/>
      <point x="532" y="495" type="line"/>
      <point x="502" y="588" type="line"/>
      <point x="349" y="539" type="line"/>
      <point x="347" y="700" type="line"/>
      <point x="249" y="700" type="line"/>
      <point x="251" y="539" type="line"/>
      <point x="96" y="585" type="line"/>
      <point x="68" y="491" type="line"/>
      <point x="221" y="446" type="line"/>
    </contour>
  </outline>
</glyph>
<glyph name="comma" format="2">
  <advance width="600"/>
  <unicode hex="002C"/>
  <outline>
    <contour>
      <point x="225" y="179" type="line"/>
      <point x="225" y="0" type="line"/>
      <point x="304" y="0" type="line"/>
      <point x="304" y="-13" type="line" smooth="yes"/>
      <point x="304" y="-65"/>
      <point x="273" y="-100"/>
      <point x="203" y="-100" type="curve"/>
      <point x="203" y="-162" type="line"/>
      <point x="336" y="-162"/>
      <point x="376" y="-67"/>
      <point x="376" y="-12" type="curve" smooth="yes"/>
      <point x="376" y="179" type="line"/>
    </contour>
  </outline>
</glyph>
<glyph name="hyphen" format="2">
  <advance width="600"/>
  <unicode hex="002D"/>
  <outline>
    <contour>
      <point x="135" y="227" type="line"/>
      <point x="465" y="227" type="line"/>
      <point x="465" y="365" type="line"/>
      <point x="135" y="365" type="line"/>
    </contour>
  </outline>
</glyph>
<glyph name="slash" format="2">
  <advance width="600"/>
  <unicode hex="002F"/>
  <outline>
    <contour>
      <point x="438" y="745" type="line"/>
      <point x="10" y="-113" type="line"/>
      <point x="160" y="-113" type="line"/>
      <point x="588" y="745" type="line"/>
    </contour>
  </outline>
</glyph>
<glyph name="two" format="2">
  <advance width="600"/>
  <unicode hex="0032"/>
  <outline>
    <contour>
      <point x="548" y="0" type="line"/>
      <point x="548" y="120" type="line"/>
      <point x="152" y="120" type="line"/>
      <point x="185" y="57" type="line"/>
      <point x="402" y="229"/>
      <point x="543" y="343"/>
      <point x="543" y="493" type="curve" smooth="yes"/>
      <point x="543" y="599"/>
      <point x="470" y="712"/>
      <point x="305" y="712" type="curve" smooth="yes"/>
      <point x="149" y="712"/>
      <point x="61" y="608"/>
      <point x="61" y="502" type="curve" smooth="yes"/>
      <point x="61" y="482"/>
      <point x="64" y="447"/>
      <point x="83" y="414" type="curve"/>
      <point x="217" y="434" type="line"/>
      <point x="206" y="456"/>
      <point x="202" y="473"/>
      <point x="202" y="491" type="curve" smooth="yes"/>
      <point x="202" y="542"/>
      <point x="238" y="586"/>
      <point x="303" y="586" type="curve" smooth="yes"/>
      <point x="370" y="586"/>
      <point x="401" y="539"/>
      <point x="401" y="489" type="curve" smooth="yes"/>
      <point x="401" y="388"/>
      <point x="281" y="304"/>
      <point x="64" y="117" type="curve"/>
      <point x="64" y="0" type="line"/>
    </contour>
  </outline>
</glyph>
<glyph name="three" format="2">
  <advance width="600"/>
  <unicode hex="0033"/>
  <outline>
    <contour>
      <point x="54" y="228" type="line"/>
      <point x="41" y="64"/>
      <point x="162" y="-12"/>
      <point x="310" y="-12" type="curve" smooth="yes"/>
      <point x="470" y="-12"/>
      <point x="561" y="77"/>
      <point x="561" y="201" type="curve" smooth="yes"/>
      <point x="561" y="294"/>
      <point x="502" y="354"/>
      <point x="412" y="371" type="curve"/>
      <point x="412" y="365" type="line"/>
      <point x="476" y="381"/>
      <point x="543" y="417"/>
      <point x="543" y="513" type="curve" smooth="yes"/>
      <point x="543" y="623"/>
      <point x="457" y="712"/>
      <point x="306" y="712" type="curve" smooth="yes"/>
      <point x="157" y="712"/>
      <point x="46" y="629"/>
      <point x="60" y="479" type="curve"/>
      <point x="202" y="492" type="line"/>
      <point x="195" y="551"/>
      <point x="232" y="597"/>
      <point x="302" y="597" type="curve" smooth="yes"/>
      <point x="367" y="597"/>
      <point x="401" y="558"/>
      <point x="401" y="507" type="curve" smooth="yes"/>
      <point x="401" y="460"/>
      <point x="374" y="422"/>
      <point x="306" y="422" type="curve" smooth="yes"/>
      <point x="249" y="422" type="line"/>
      <point x="249" y="303" type="line"/>
      <point x="307" y="303" type="line" smooth="yes"/>
      <point x="391" y="303"/>
      <point x="419" y="260"/>
      <point x="419" y="207" type="curve" smooth="yes"/>
      <point x="419" y="148"/>
      <point x="381" y="104"/>
      <point x="308" y="104" type="curve" smooth="yes"/>
      <point x="227" y="104"/>
      <point x="192" y="156"/>
      <point x="196" y="212" type="curve"/>
    </contour>
  </outline>
</glyph>
<glyph name="seven" format="2">
  <advance width="600"/>
  <unicode hex="0037"/>
  <outline>
    <contour>
      <point x="53" y="700" type="line"/>
      <point x="53" y="452" type="line"/>
      <point x="191" y="452" type="line"/>
      <point x="191" y="612" type="line"/>
      <point x="137" y="580" type="line"/>
      <point x="516" y="580" type="line"/>
      <point x="460" y="628" type="line"/>
      <point x="322" y="422"/>
      <point x="187" y="243"/>
      <point x="173" y="0" type="curve"/>
      <point x="325" y="0" type="line"/>
      <point x="337" y="239"/>
      <point x="456" y="397"/>
      <point x="585" y="591" type="curve"/>
      <point x="585" y="700" type="line"/>
    </contour>
  </outline>
</glyph>
<glyph name="question" format="2">
  <advance width="600"/>
  <unicode hex="003F"/>
  <outline>
    <contour>
      <point x="230" y="217" type="line"/>
      <point x="363" y="217" type="line"/>
      <point x="363" y="235" type="line" smooth="yes"/>
      <point x="363" y="282"/>
      <point x="379" y="309"/>
      <point x="425" y="343" type="curve" smooth="yes"/>
      <point x="508" y="403"/>
      <point x="539" y="452"/>
      <point x="539" y="523" type="curve" smooth="yes"/>
      <point x="539" y="636"/>
      <point x="450" y="712"/>
      <point x="310" y="712" type="curve" smooth="yes"/>
      <point x="169" y="712"/>
      <point x="83" y="635"/>
      <point x="63" y="517" type="curve"/>
      <point x="200" y="488" type="line"/>
      <point x="211" y="550"/>
      <point x="242" y="591"/>
      <point x="309" y="591" type="curve" smooth="yes"/>
      <point x="370" y="591"/>
      <point x="396" y="560"/>
      <point x="396" y="521" type="curve" smooth="yes"/>
      <point x="396" y="482"/>
      <point x="374" y="456"/>
      <point x="314" y="414" type="curve" smooth="yes"/>
      <point x="254" y="372"/>
      <point x="230" y="324"/>
      <point x="230" y="243" type="curve" smooth="yes"/>
    </contour>
    <contour>
      <point x="223" y="149" type="line"/>
      <point x="223" y="0" type="line"/>
      <point x="370" y="0" type="line"/>
      <point x="370" y="149" type="line"/>
    </contour>
  </outline>
</glyph>
<glyph name="at" format="2">
  <advance width="600"/>
  <unicode hex="0040"/>
  <outline>
    <contour>
      <point x="23" y="221" type="curve" smooth="yes"/>
      <point x="23" y="4"/>
      <point x="130" y="-140"/>
      <point x="320" y="-140" type="curve" smooth="yes"/>
      <point x="383" y="-140"/>
      <point x="450" y="-121"/>
      <point x="502" y="-88" type="curve"/>
      <point x="473" y="-11" type="line"/>
      <point x="426" y="-36"/>
      <point x="377" y="-51"/>
      <point x="320" y="-51" type="curve" smooth="yes"/>
      <point x="185" y="-51"/>
      <point x="117" y="58"/>
      <point x="117" y="221" type="curve" smooth="yes"/>
      <point x="117" y="420"/>
      <point x="198" y="559"/>
      <point x="326" y="559" type="curve" smooth="yes"/>
      <point x="401" y="559"/>
      <point x="483" y="514"/>
      <point x="483" y="306" type="curve" smooth="yes"/>
      <point x="483" y="203"/>
      <point x="460" y="146"/>
      <point x="432" y="146" type="curve" smooth="yes"/>
      <point x="417" y="146"/>
      <point x="409" y="158"/>
      <point x="411" y="181" type="curve" smooth="yes"/>
      <point x="440" y="451" type="line"/>
      <point x="340" y="451" type="line"/>
      <point x="336" y="412" type="line"/>
      <point x="328" y="441"/>
      <point x="309" y="457"/>
      <point x="282" y="457" type="curve" smooth="yes"/>
      <point x="212" y="457"/>
      <point x="158" y="361"/>
      <point x="158" y="213" type="curve" smooth="yes"/>
      <point x="158" y="105"/>
      <point x="192" y="52"/>
      <point x="247" y="52" type="curve" smooth="yes"/>
      <point x="276" y="52"/>
      <point x="305" y="71"/>
      <point x="324" y="109" type="curve"/>
      <point x="338" y="72"/>
      <point x="373" y="52"/>
      <point x="414" y="52" type="curve" smooth="yes"/>
      <point x="499" y="52"/>
      <point x="577" y="140"/>
      <point x="577" y="306" type="curve" smooth="yes"/>
      <point x="577" y="523"/>
      <point x="486" y="646"/>
      <point x="326" y="646" type="curve" smooth="yes"/>
      <point x="148" y="646"/>
      <point x="23" y="476"/>
    </contour>
    <contour>
      <point x="323" y="257" type="curve" smooth="yes"/>
      <point x="318" y="183"/>
      <point x="302" y="142"/>
      <point x="280" y="142" type="curve" smooth="yes"/>
      <point x="264" y="142"/>
      <point x="251" y="155"/>
      <point x="257" y="238" type="curve" smooth="yes"/>
      <point x="264" y="332"/>
      <point x="280" y="367"/>
      <point x="304" y="367" type="curve" smooth="yes"/>
      <point x="324" y="367"/>
      <point x="328" y="331"/>
    </contour>
  </outline>
</glyph>
<glyph name="A" format="2">
  <advance width="600"/>
  <unicode hex="0041"/>
  <outline>
    <contour>
      <point x="216" y="700" type="line"/>
      <point x="5" y="0" type="line"/>
      <point x="149" y="0" type="line"/>
      <point x="335" y="647" type="line"/>
      <point x="268" y="647" type="line"/>
      <point x="450" y="0" type="line"/>
      <point x="595" y="0" type="line"/>
      <point x="388" y="700" type="line"/>
    </contour>
    <contour>
      <point x="125" y="267" type="line"/>
      <point x="125" y="145" type="line"/>
      <point x="474" y="145" type="line"/>
      <point x="474" y="267" type="line"/>
    </contour>
  </outline>
</glyph>
<glyph name="B" format="2">
  <advance width="600"/>
  <unicode hex="0042"/>
  <guideline x="322" y="2" angle="90" name="center" identifier="YlB84gsj3O"/>
  <outline>
    <contour>
      <point x="56" y="700" type="line"/>
      <point x="56" y="0" type="line"/>
      <point x="205" y="0" type="line"/>
      <point x="205" y="700" type="line"/>
    </contour>
    <contour>
      <point x="326" y="0" type="line"/>
      <point x="483" y="0"/>
      <point x="567" y="97"/>
      <point x="567" y="209" type="curve" smooth="yes"/>
      <point x="567" y="304"/>
      <point x="507" y="350"/>
      <point x="448" y="374" type="curve"/>
      <point x="448" y="356" type="line"/>
      <point x="502" y="374"/>
      <point x="552" y="420"/>
      <point x="552" y="503" type="curve" smooth="yes"/>
      <point x="552" y="613"/>
      <point x="472" y="700"/>
      <point x="326" y="700" type="curve" smooth="yes"/>
      <point x="121" y="700" type="line"/>
      <point x="121" y="577" type="line"/>
      <point x="315" y="577" type="line" smooth="yes"/>
      <point x="368" y="577"/>
      <point x="408" y="551"/>
      <point x="408" y="500" type="curve" smooth="yes"/>
      <point x="408" y="448"/>
      <point x="372" y="420"/>
      <point x="319" y="420" type="curve" smooth="yes"/>
      <point x="120" y="420" type="line"/>
      <point x="120" y="298" type="line"/>
      <point x="316" y="298" type="line" smooth="yes"/>
      <point x="367" y="298"/>
      <point x="418" y="272"/>
      <point x="418" y="210" type="curve" smooth="yes"/>
      <point x="418" y="149"/>
      <point x="371" y="123"/>
      <point x="316" y="123" type="curve" smooth="yes"/>
      <point x="121" y="123" type="line"/>
      <point x="121" y="0" type="line"/>
    </contour>
  </outline>
</glyph>
<glyph name="C" format="2">
  <advance width="600"/>
  <unicode hex="0043"/>
  <outline>
    <contour>
      <point x="49" y="350" type="curve" smooth="yes"/>
      <point x="49" y="109"/>
      <point x="165" y="-12"/>
      <point x="322" y="-12" type="curve" smooth="yes"/>
      <point x="451" y="-12"/>
      <point x="536" y="77"/>
      <point x="565" y="212" type="curve"/>
      <point x="432" y="252" type="line"/>
      <point x="412" y="160"/>
      <point x="374" y="116"/>
      <point x="323" y="116" type="curve" smooth="yes"/>
      <point x="257" y="116"/>
      <point x="204" y="170"/>
      <point x="204" y="350" type="curve" smooth="yes"/>
      <point x="204" y="530"/>
      <point x="257" y="584"/>
      <point x="323" y="584" type="curve" smooth="yes"/>
      <point x="373" y="584"/>
      <point x="413" y="541"/>
      <point x="431" y="451" type="curve"/>
      <point x="564" y="490" type="line"/>
      <point x="535" y="624"/>
      <point x="451" y="712"/>
      <point x="322" y="712" type="curve" smooth="yes"/>
      <point x="164" y="712"/>
      <point x="49" y="591"/>
    </contour>
  </outline>
</glyph>
<glyph name="D" format="2">
  <advance width="600"/>
  <unicode hex="0044"/>
  <outline>
    <contour>
      <point x="119" y="123" type="line"/>
      <point x="119" y="0" type="line"/>
      <point x="287" y="0" type="line" smooth="yes"/>
      <point x="467" y="0"/>
      <point x="570" y="144"/>
      <point x="570" y="350" type="curve" smooth="yes"/>
      <point x="570" y="556"/>
      <point x="467" y="700"/>
      <point x="287" y="700" type="curve" smooth="yes"/>
      <point x="119" y="700" type="line"/>
      <point x="119" y="577" type="line"/>
      <point x="268" y="577" type="line" smooth="yes"/>
      <point x="356" y="577"/>
      <point x="415" y="512"/>
      <point x="415" y="350" type="curve" smooth="yes"/>
      <point x="415" y="188"/>
      <point x="356" y="123"/>
      <point x="268" y="123" type="curve" smooth="yes"/>
    </contour>
    <contour>
      <point x="56" y="0" type="line"/>
      <point x="206" y="0" type="line"/>
      <point x="206" y="700" type="line"/>
      <point x="56" y="700" type="line"/>
    </contour>
  </outline>
</glyph>
<glyph name="E" format="2">
  <advance width="600"/>
  <unicode hex="0045"/>
  <outline>
    <contour>
      <point x="82" y="700" type="line"/>
      <point x="82" y="0" type="line"/>
      <point x="232" y="0" type="line"/>
      <point x="232" y="700" type="line"/>
    </contour>
    <contour>
      <point x="143" y="576" type="line"/>
      <point x="533" y="576" type="line"/>
      <point x="533" y="700" type="line"/>
      <point x="143" y="700" type="line"/>
    </contour>
    <contour>
      <point x="153" y="294" type="line"/>
      <point x="422" y="294" type="line"/>
      <point x="422" y="417" type="line"/>
      <point x="153" y="417" type="line"/>
    </contour>
    <contour>
      <point x="147" y="0" type="line"/>
      <point x="547" y="0" type="line"/>
      <point x="547" y="124" type="line"/>
      <point x="147" y="124" type="line"/>
    </contour>
  </outline>
</glyph>
<glyph name="G" format="2">
  <advance width="600"/>
  <unicode hex="0047"/>
  <guideline x="394" y="700" angle="90" name="center" identifier="3Ta8E1ingc"/>
  <outline>
    <contour>
      <point x="314" y="712" type="curve" smooth="yes"/>
      <point x="149" y="712"/>
      <point x="30" y="595"/>
      <point x="30" y="350" type="curve" smooth="yes"/>
      <point x="30" y="105"/>
      <point x="145" y="-12"/>
      <point x="289" y="-12" type="curve" smooth="yes"/>
      <point x="377" y="-12"/>
      <point x="447" y="42"/>
      <point x="457" y="146" type="curve"/>
      <point x="435" y="144" type="line"/>
      <point x="435" y="0" type="line"/>
      <point x="557" y="0" type="line"/>
      <point x="557" y="382" type="line"/>
      <point x="333" y="382" type="line"/>
      <point x="333" y="268" type="line"/>
      <point x="469" y="268" type="line"/>
      <point x="434" y="311" type="line"/>
      <point x="434" y="269" type="line" smooth="yes"/>
      <point x="434" y="158"/>
      <point x="396" y="115"/>
      <point x="323" y="115" type="curve" smooth="yes"/>
      <point x="244" y="115"/>
      <point x="184" y="159"/>
      <point x="185" y="350" type="curve" smooth="yes"/>
      <point x="186" y="538"/>
      <point x="240" y="585"/>
      <point x="312" y="585" type="curve" smooth="yes"/>
      <point x="367" y="585"/>
      <point x="404" y="549"/>
      <point x="421" y="479" type="curve"/>
      <point x="552" y="518" type="line"/>
      <point x="519" y="646"/>
      <point x="443" y="712"/>
    </contour>
  </outline>
</glyph>
<glyph name="H" format="2">
  <advance width="600"/>
  <unicode hex="0048"/>
  <outline>
    <contour>
      <point x="119" y="299" type="line"/>
      <point x="482" y="299" type="line"/>
      <point x="482" y="423" type="line"/>
      <point x="119" y="423" type="line"/>
    </contour>
    <contour>
      <point x="393" y="700" type="line"/>
      <point x="393" y="0" type="line"/>
      <point x="544" y="0" type="line"/>
      <point x="544" y="700" type="line"/>
    </contour>
    <contour>
      <point x="56" y="700" type="line"/>
      <point x="56" y="0" type="line"/>
      <point x="207" y="0" type="line"/>
      <point x="207" y="700" type="line"/>
    </contour>
  </outline>
</glyph>
<glyph name="I" format="2">
  <advance width="600"/>
  <unicode hex="0049"/>
  <outline>
    <contour>
      <point x="70" y="124" type="line"/>
      <point x="70" y="0" type="line"/>
      <point x="531" y="0" type="line"/>
      <point x="531" y="124" type="line"/>
    </contour>
    <contour>
      <point x="70" y="700" type="line"/>
      <point x="70" y="576" type="line"/>
      <point x="531" y="576" type="line"/>
      <point x="531" y="700" type="line"/>
    </contour>
    <contour>
      <point x="225" y="700" type="line"/>
      <point x="225" y="0" type="line"/>
      <point x="376" y="0" type="line"/>
      <point x="376" y="700" type="line"/>
    </contour>
  </outline>
</glyph>
<glyph name="K" format="2">
  <advance width="600"/>
  <unicode hex="004B"/>
  <outline>
    <contour>
      <point x="137" y="310" type="line"/>
      <point x="150" y="128" type="line"/>
      <point x="302" y="343" type="line"/>
      <point x="330" y="362" type="line"/>
      <point x="578" y="700" type="line"/>
      <point x="410" y="700" type="line"/>
    </contour>
    <contour>
      <point x="60" y="700" type="line"/>
      <point x="60" y="0" type="line"/>
      <point x="204" y="0" type="line"/>
      <point x="204" y="700" type="line"/>
    </contour>
    <contour>
      <point x="232" y="346" type="line"/>
      <point x="436" y="0" type="line"/>
      <point x="599" y="0" type="line"/>
      <point x="335" y="449" type="line"/>
    </contour>
  </outline>
</glyph>
<glyph name="L" format="2">
  <advance width="600"/>
  <unicode hex="004C"/>
  <guideline x="149" y="700" angle="90" name="acute" identifier="V6HVXnwLb1"/>
  <outline>
    <contour>
      <point x="149" y="124" type="line"/>
      <point x="149" y="0" type="line"/>
      <point x="545" y="0" type="line"/>
      <point x="545" y="124" type="line"/>
    </contour>
    <contour>
      <point x="88" y="700" type="line"/>
      <point x="88" y="0" type="line"/>
      <point x="239" y="0" type="line"/>
      <point x="239" y="700" type="line"/>
    </contour>
  </outline>
</glyph>
<glyph name="M" format="2">
  <advance width="600"/>
  <unicode hex="004D"/>
  <outline>
    <contour>
      <point x="155" y="597" type="line"/>
      <point x="278" y="168" type="line"/>
      <point x="321" y="168" type="line"/>
      <point x="451" y="626" type="line"/>
      <point x="419" y="626" type="line"/>
      <point x="419" y="0" type="line"/>
      <point x="548" y="0" type="line"/>
      <point x="548" y="700" type="line"/>
      <point x="375" y="700" type="line"/>
      <point x="280" y="366" type="line"/>
      <point x="321" y="366" type="line"/>
      <point x="225" y="700" type="line"/>
      <point x="52" y="700" type="line"/>
      <point x="52" y="0" type="line"/>
      <point x="181" y="0" type="line"/>
      <point x="181" y="623" type="line"/>
    </contour>
  </outline>
</glyph>
<glyph name="N" format="2">
  <advance width="600"/>
  <unicode hex="004E"/>
  <outline>
    <contour>
      <point x="466" y="108" type="line"/>
      <point x="257" y="700" type="line"/>
      <point x="56" y="700" type="line"/>
      <point x="56" y="0" type="line"/>
      <point x="185" y="0" type="line"/>
      <point x="185" y="631" type="line"/>
      <point x="153" y="629" type="line"/>
      <point x="375" y="0" type="line"/>
      <point x="544" y="0" type="line"/>
      <point x="544" y="700" type="line"/>
      <point x="415" y="700" type="line"/>
      <point x="415" y="108" type="line"/>
    </contour>
  </outline>
</glyph>
<glyph name="O" format="2">
  <advance width="600"/>
  <unicode hex="004F"/>
  <outline>
    <contour>
      <point x="300" y="712" type="curve" smooth="yes"/>
      <point x="138" y="712"/>
      <point x="30" y="582"/>
      <point x="30" y="350" type="curve" smooth="yes"/>
      <point x="30" y="118"/>
      <point x="138" y="-12"/>
      <point x="300" y="-12" type="curve" smooth="yes"/>
      <point x="462" y="-12"/>
      <point x="570" y="118"/>
      <point x="570" y="350" type="curve" smooth="yes"/>
      <point x="570" y="582"/>
      <point x="462" y="712"/>
    </contour>
    <contour>
      <point x="300" y="116" type="curve" smooth="yes"/>
      <point x="228" y="116"/>
      <point x="185" y="184"/>
      <point x="185" y="350" type="curve" smooth="yes"/>
      <point x="185" y="516"/>
      <point x="228" y="584"/>
      <point x="300" y="584" type="curve" smooth="yes"/>
      <point x="372" y="584"/>
      <point x="415" y="516"/>
      <point x="415" y="350" type="curve" smooth="yes"/>
      <point x="415" y="184"/>
      <point x="372" y="116"/>
    </contour>
  </outline>
</glyph>
<glyph name="P" format="2">
  <advance width="600"/>
  <unicode hex="0050"/>
  <outline>
    <contour>
      <point x="56" y="700" type="line"/>
      <point x="56" y="0" type="line"/>
      <point x="206" y="0" type="line"/>
      <point x="206" y="700" type="line"/>
    </contour>
    <contour>
      <point x="318" y="577" type="line"/>
      <point x="384" y="577"/>
      <point x="419" y="546"/>
      <point x="419" y="492" type="curve" smooth="yes"/>
      <point x="419" y="438"/>
      <point x="384" y="407"/>
      <point x="318" y="407" type="curve" smooth="yes"/>
      <point x="129" y="407" type="line"/>
      <point x="129" y="284" type="line"/>
      <point x="333" y="284" type="line" smooth="yes"/>
      <point x="505" y="284"/>
      <point x="571" y="372"/>
      <point x="571" y="492" type="curve" smooth="yes"/>
      <point x="571" y="612"/>
      <point x="505" y="700"/>
      <point x="333" y="700" type="curve" smooth="yes"/>
      <point x="129" y="700" type="line"/>
      <point x="129" y="577" type="line"/>
    </contour>
  </outline>
</glyph>
<glyph name="Q" format="2">
  <advance width="600"/>
  <unicode hex="0051"/>
  <outline>
    <contour>
      <point x="224" y="-23" type="line" smooth="yes"/>
      <point x="224" y="-125"/>
      <point x="281" y="-186"/>
      <point x="420" y="-186" type="curve" smooth="yes"/>
      <point x="444" y="-186"/>
      <point x="479" y="-182"/>
      <point x="495" y="-178" type="curve"/>
      <point x="495" y="-67" type="line"/>
      <point x="478" y="-70"/>
      <point x="460" y="-71"/>
      <point x="445" y="-71" type="curve" smooth="yes"/>
      <point x="389" y="-71"/>
      <point x="377" y="-46"/>
      <point x="377" y="-17" type="curve" smooth="yes"/>
      <point x="377" y="22" type="line"/>
      <point x="224" y="22" type="line"/>
    </contour>
    <contour>
      <point x="415" y="350" type="curve" smooth="yes"/>
      <point x="415" y="184"/>
      <point x="372" y="116"/>
      <point x="300" y="116" type="curve" smooth="yes"/>
      <point x="228" y="116"/>
      <point x="185" y="184"/>
      <point x="185" y="350" type="curve" smooth="yes"/>
      <point x="185" y="516"/>
      <point x="228" y="584"/>
      <point x="300" y="584" type="curve" smooth="yes"/>
      <point x="372" y="584"/>
      <point x="415" y="516"/>
    </contour>
    <contour>
      <point x="30" y="350" type="curve" smooth="yes"/>
      <point x="30" y="118"/>
      <point x="138" y="-12"/>
      <point x="300" y="-12" type="curve" smooth="yes"/>
      <point x="462" y="-12"/>
      <point x="570" y="118"/>
      <point x="570" y="350" type="curve" smooth="yes"/>
      <point x="570" y="582"/>
      <point x="462" y="712"/>
      <point x="300" y="712" type="curve" smooth="yes"/>
      <point x="138" y="712"/>
      <point x="30" y="582"/>
    </contour>
  </outline>
</glyph>
<glyph name="R" format="2">
  <advance width="600"/>
  <unicode hex="0052"/>
  <outline>
    <contour>
      <point x="56" y="700" type="line"/>
      <point x="56" y="0" type="line"/>
      <point x="204" y="0" type="line"/>
      <point x="204" y="700" type="line"/>
    </contour>
    <contour>
      <point x="315" y="397" type="curve" smooth="yes"/>
      <point x="129" y="397" type="line"/>
      <point x="129" y="277" type="line"/>
      <point x="332" y="277" type="line" smooth="yes"/>
      <point x="487" y="277"/>
      <point x="569" y="356"/>
      <point x="569" y="488" type="curve" smooth="yes"/>
      <point x="569" y="620"/>
      <point x="487" y="700"/>
      <point x="332" y="700" type="curve" smooth="yes"/>
      <point x="134" y="700" type="line"/>
      <point x="134" y="579" type="line"/>
      <point x="315" y="579" type="line" smooth="yes"/>
      <point x="381" y="579"/>
      <point x="417" y="546"/>
      <point x="417" y="488" type="curve" smooth="yes"/>
      <point x="417" y="430"/>
      <point x="381" y="397"/>
    </contour>
    <contour>
      <point x="233" y="308" type="line"/>
      <point x="282" y="213"/>
      <point x="372" y="73"/>
      <point x="427" y="0" type="curve"/>
      <point x="593" y="0" type="line"/>
      <point x="593" y="7" type="line"/>
      <point x="530" y="82"/>
      <point x="439" y="215"/>
      <point x="389" y="308" type="curve"/>
    </contour>
  </outline>
</glyph>
<glyph name="S" format="2">
  <advance width="600"/>
  <unicode hex="0053"/>
  <outline>
    <contour>
      <point x="21" y="231" type="line"/>
      <point x="29" y="81"/>
      <point x="139" y="-12"/>
      <point x="313" y="-12" type="curve" smooth="yes"/>
      <point x="470" y="-12"/>
      <point x="571" y="83"/>
      <point x="571" y="222" type="curve" smooth="yes"/>
      <point x="571" y="330"/>
      <point x="500" y="389"/>
      <point x="395" y="406" type="curve" smooth="yes"/>
      <point x="280" y="425" type="line" smooth="yes"/>
      <point x="213" y="436"/>
      <point x="188" y="470"/>
      <point x="188" y="511" type="curve" smooth="yes"/>
      <point x="188" y="555"/>
      <point x="224" y="592"/>
      <point x="287" y="592" type="curve" smooth="yes"/>
      <point x="355" y="592"/>
      <point x="388" y="557"/>
      <point x="394" y="502" type="curve"/>
      <point x="553" y="494" type="line"/>
      <point x="541" y="621"/>
      <point x="458" y="712"/>
      <point x="292" y="712" type="curve" smooth="yes"/>
      <point x="135" y="712"/>
      <point x="37" y="621"/>
      <point x="37" y="491" type="curve" smooth="yes"/>
      <point x="37" y="373"/>
      <point x="116" y="313"/>
      <point x="235" y="295" type="curve" smooth="yes"/>
      <point x="333" y="280" type="line" smooth="yes"/>
      <point x="391" y="271"/>
      <point x="419" y="244"/>
      <point x="419" y="198" type="curve" smooth="yes"/>
      <point x="419" y="145"/>
      <point x="378" y="108"/>
      <point x="313" y="108" type="curve" smooth="yes"/>
      <point x="231" y="108"/>
      <point x="194" y="147"/>
      <point x="183" y="218" type="curve"/>
    </contour>
  </outline>
</glyph>
<glyph name="T" format="2">
  <advance width="600"/>
  <unicode hex="0054"/>
  <outline>
    <contour>
      <point x="36" y="700" type="line"/>
      <point x="36" y="576" type="line"/>
      <point x="564" y="576" type="line"/>
      <point x="564" y="700" type="line"/>
    </contour>
    <contour>
      <point x="225" y="651" type="line"/>
      <point x="225" y="0" type="line"/>
      <point x="376" y="0" type="line"/>
      <point x="376" y="651" type="line"/>
    </contour>
  </outline>
</glyph>
<glyph name="U" format="2">
  <advance width="600"/>
  <unicode hex="0055"/>
  <outline>
    <contour>
      <point x="546" y="700" type="line"/>
      <point x="395" y="700" type="line"/>
      <point x="395" y="222" type="line" smooth="yes"/>
      <point x="395" y="159"/>
      <point x="365" y="117"/>
      <point x="301" y="117" type="curve" smooth="yes"/>
      <point x="236" y="117"/>
      <point x="205" y="159"/>
      <point x="205" y="222" type="curve" smooth="yes"/>
      <point x="205" y="700" type="line"/>
      <point x="54" y="700" type="line"/>
      <point x="54" y="217" type="line" smooth="yes"/>
      <point x="54" y="91"/>
      <point x="144" y="-12"/>
      <point x="301" y="-12" type="curve" smooth="yes"/>
      <point x="458" y="-12"/>
      <point x="546" y="91"/>
      <point x="546" y="217" type="curve" smooth="yes"/>
    </contour>
  </outline>
</glyph>
<glyph name="V" format="2">
  <advance width="600"/>
  <unicode hex="0056"/>
  <outline>
    <contour>
      <point x="160" y="700" type="line"/>
      <point x="5" y="700" type="line"/>
      <point x="214" y="0" type="line"/>
      <point x="386" y="0" type="line"/>
      <point x="595" y="700" type="line"/>
      <point x="442" y="700" type="line"/>
      <point x="259" y="52" type="line"/>
      <point x="344" y="52" type="line"/>
    </contour>
  </outline>
</glyph>
<glyph name="W" format="2">
  <advance width="600"/>
  <unicode hex="0057"/>
  <outline>
    <contour>
      <point x="499" y="0" type="line"/>
      <point x="596" y="700" type="line"/>
      <point x="464" y="700" type="line"/>
      <point x="392" y="114" type="line"/>
      <point x="439" y="114" type="line"/>
      <point x="358" y="560" type="line"/>
      <point x="244" y="560" type="line"/>
      <point x="165" y="114" type="line"/>
      <point x="213" y="114" type="line"/>
      <point x="141" y="700" type="line"/>
      <point x="4" y="700" type="line"/>
      <point x="101" y="0" type="line"/>
      <point x="230" y="0" type="line"/>
      <point x="317" y="491" type="line"/>
      <point x="281" y="491" type="line"/>
      <point x="370" y="0" type="line"/>
    </contour>
  </outline>
</glyph>
<glyph name="X" format="2">
  <advance width="600"/>
  <unicode hex="0058"/>
  <outline>
    <contour>
      <point x="32" y="700" type="line"/>
      <point x="241" y="320" type="line"/>
      <point x="266" y="293" type="line"/>
      <point x="422" y="0" type="line"/>
      <point x="585" y="0" type="line"/>
      <point x="349" y="424" type="line"/>
      <point x="328" y="445" type="line"/>
      <point x="195" y="700" type="line"/>
    </contour>
    <contour>
      <point x="568" y="700" type="line"/>
      <point x="410" y="700" type="line"/>
      <point x="267" y="426" type="line"/>
      <point x="240" y="414" type="line"/>
      <point x="15" y="0" type="line"/>
      <point x="173" y="0" type="line"/>
      <point x="333" y="303" type="line"/>
      <point x="363" y="321" type="line"/>
    </contour>
  </outline>
</glyph>
<glyph name="Y" format="2">
  <advance width="600"/>
  <unicode hex="0059"/>
  <outline>
    <contour>
      <point x="352" y="326" type="line"/>
      <point x="160" y="700" type="line"/>
      <point x="5" y="700" type="line"/>
      <point x="224" y="281" type="line"/>
      <point x="224" y="0" type="line"/>
      <point x="375" y="0" type="line"/>
      <point x="375" y="281" type="line"/>
      <point x="595" y="700" type="line"/>
      <point x="442" y="700" type="line"/>
      <point x="248" y="326" type="line"/>
    </contour>
  </outline>
</glyph>
<glyph name="Z" format="2">
  <advance width="600"/>
  <unicode hex="005A"/>
  <outline>
    <contour>
      <point x="67" y="0" type="line"/>
      <point x="537" y="0" type="line"/>
      <point x="537" y="124" type="line"/>
      <point x="145" y="124" type="line"/>
      <point x="207" y="60" type="line"/>
      <point x="531" y="602" type="line"/>
      <point x="531" y="700" type="line"/>
      <point x="65" y="700" type="line"/>
      <point x="65" y="576" type="line"/>
      <point x="458" y="576" type="line"/>
      <point x="380" y="623" type="line"/>
      <point x="67" y="99" type="line"/>
    </contour>
  </outline>
</glyph>
<glyph name="bracketleft" format="2">
  <advance width="600"/>
  <unicode hex="005B"/>
  <outline>
    <contour>
      <point x="208" y="-113" type="line"/>
      <point x="483" y="-113" type="line"/>
      <point x="483" y="-6" type="line"/>
      <point x="353" y="-6" type="line"/>
      <point x="353" y="638" type="line"/>
      <point x="483" y="638" type="line"/>
      <point x="483" y="745" type="line"/>
      <point x="208" y="745" type="line"/>
    </contour>
  </outline>
</glyph>
<glyph name="backslash" format="2">
  <advance width="600"/>
  <unicode hex="005C"/>
  <outline>
    <contour>
      <point x="162" y="745" type="line"/>
      <point x="590" y="-113" type="line"/>
      <point x="440" y="-113" type="line"/>
      <point x="12" y="745" type="line"/>
    </contour>
  </outline>
</glyph>
<glyph name="h" format="2">
  <advance width="600"/>
  <unicode hex="0068"/>
  <outline>
    <contour>
      <point x="71" y="700" type="line"/>
      <point x="71" y="0" type="line"/>
      <point x="212" y="0" type="line"/>
      <point x="212" y="288" type="line" smooth="yes"/>
      <point x="212" y="348"/>
      <point x="249" y="391"/>
      <point x="311" y="391" type="curve" smooth="yes"/>
      <point x="375" y="391"/>
      <point x="401" y="346"/>
      <point x="401" y="295" type="curve" smooth="yes"/>
      <point x="401" y="0" type="line"/>
      <point x="541" y="0" type="line"/>
      <point x="541" y="334" type="line" smooth="yes"/>
      <point x="541" y="442"/>
      <point x="477" y="512"/>
      <point x="368" y="512" type="curve" smooth="yes"/>
      <point x="282" y="512"/>
      <point x="218" y="459"/>
      <point x="191" y="400" type="curve"/>
      <point x="211" y="402" type="line"/>
      <point x="211" y="700" type="line"/>
    </contour>
  </outline>
</glyph>
<glyph name="l" format="2">
  <advance width="600"/>
  <unicode hex="006C"/>
  <outline>
    <contour>
      <point x="64" y="107" type="line"/>
      <point x="64" y="0" type="line"/>
      <point x="557" y="0" type="line"/>
      <point x="557" y="107" type="line"/>
    </contour>
    <contour>
      <point x="64" y="700" type="line"/>
      <point x="64" y="593" type="line"/>
      <point x="313" y="593" type="line"/>
      <point x="313" y="700" type="line"/>
    </contour>
    <contour>
      <point x="243" y="700" type="line"/>
      <point x="243" y="0" type="line"/>
      <point x="383" y="0" type="line"/>
      <point x="383" y="700" type="line"/>
    </contour>
  </outline>
</glyph>
<glyph name="m" format="2">
  <advance width="600"/>
  <unicode hex="006D"/>
  <outline>
    <contour>
      <point x="301" y="348" type="line"/>
      <point x="361" y="348" type="line"/>
      <point x="361" y="380"/>
      <point x="379" y="401"/>
      <point x="405" y="401" type="curve" smooth="yes"/>
      <point x="431" y="401"/>
      <point x="444" y="383"/>
      <point x="444" y="357" type="curve" smooth="yes"/>
      <point x="444" y="0" type="line"/>
      <point x="566" y="0" type="line"/>
      <point x="566" y="398" type="line" smooth="yes"/>
      <point x="566" y="463"/>
      <point x="529" y="512"/>
      <point x="460" y="512" type="curve" smooth="yes"/>
      <point x="405" y="512"/>
      <point x="357" y="476"/>
      <point x="337" y="420" type="curve"/>
      <point x="301" y="419" type="line"/>
    </contour>
    <contour>
      <point x="34" y="500" type="line"/>
      <point x="34" y="0" type="line"/>
      <point x="156" y="0" type="line"/>
      <point x="156" y="348" type="line" smooth="yes"/>
      <point x="156" y="380"/>
      <point x="174" y="401"/>
      <point x="200" y="401" type="curve" smooth="yes"/>
      <point x="226" y="401"/>
      <point x="239" y="383"/>
      <point x="239" y="357" type="curve" smooth="yes"/>
      <point x="239" y="0" type="line"/>
      <point x="361" y="0" type="line"/>
      <point x="361" y="398" type="line" smooth="yes"/>
      <point x="361" y="463"/>
      <point x="324" y="512"/>
      <point x="255" y="512" type="curve" smooth="yes"/>
      <point x="202" y="512"/>
      <point x="159" y="470"/>
      <point x="137" y="416" type="curve"/>
      <point x="156" y="404" type="line"/>
      <point x="156" y="500" type="line"/>
    </contour>
  </outline>
</glyph>
<glyph name="r" format="2">
  <advance width="600"/>
  <unicode hex="0072"/>
  <guideline x="202" y="602" angle="90" name="top" identifier="C016H4hyzz"/>
  <guideline x="135" y="7" angle="90" name="stem" identifier="4PkZz0MXKR"/>
  <outline>
    <contour>
      <point x="102" y="500" type="line"/>
      <point x="102" y="0" type="line"/>
      <point x="242" y="0" type="line"/>
      <point x="242" y="192" type="line" smooth="yes"/>
      <point x="242" y="315"/>
      <point x="322" y="381"/>
      <point x="444" y="381" type="curve" smooth="yes"/>
      <point x="490" y="381"/>
      <point x="524" y="372"/>
      <point x="550" y="361" type="curve"/>
      <point x="550" y="490" type="line"/>
      <point x="524" y="503"/>
      <point x="489" y="510"/>
      <point x="447" y="510" type="curve" smooth="yes"/>
      <point x="335" y="510"/>
      <point x="241" y="440"/>
      <point x="220" y="341" type="curve"/>
      <point x="242" y="347" type="line"/>
      <point x="242" y="500" type="line"/>
    </contour>
  </outline>
</glyph>
<glyph name="s" format="2">
  <advance width="600"/>
  <unicode hex="0073"/>
  <outline>
    <contour>
      <point x="56" y="173" type="line"/>
      <point x="60" y="63"/>
      <point x="153" y="-12"/>
      <point x="310" y="-12" type="curve" smooth="yes"/>
      <point x="456" y="-12"/>
      <point x="545" y="53"/>
      <point x="545" y="160" type="curve" smooth="yes"/>
      <point x="545" y="247"/>
      <point x="482" y="284"/>
      <point x="378" y="300" type="curve" smooth="yes"/>
      <point x="286" y="314" type="line" smooth="yes"/>
      <point x="225" y="323"/>
      <point x="207" y="335"/>
      <point x="207" y="360" type="curve" smooth="yes"/>
      <point x="207" y="392"/>
      <point x="242" y="413"/>
      <point x="291" y="413" type="curve" smooth="yes"/>
      <point x="350" y="413"/>
      <point x="387" y="382"/>
      <point x="390" y="348" type="curve"/>
      <point x="534" y="337" type="line"/>
      <point x="533" y="438"/>
      <point x="437" y="512"/>
      <point x="300" y="512" type="curve" smooth="yes"/>
      <point x="166" y="512"/>
      <point x="67" y="452"/>
      <point x="67" y="344" type="curve" smooth="yes"/>
      <point x="67" y="253"/>
      <point x="128" y="218"/>
      <point x="235" y="201" type="curve" smooth="yes"/>
      <point x="327" y="187" type="line" smooth="yes"/>
      <point x="386" y="178"/>
      <point x="404" y="165"/>
      <point x="404" y="141" type="curve" smooth="yes"/>
      <point x="404" y="107"/>
      <point x="371" y="88"/>
      <point x="313" y="88" type="curve" smooth="yes"/>
      <point x="248" y="88"/>
      <point x="208" y="120"/>
      <point x="204" y="158" type="curve"/>
    </contour>
  </outline>
</glyph>
<glyph name="w" format="2">
  <advance width="600"/>
  <unicode hex="0077"/>
  <outline>
    <contour>
      <point x="109" y="0" type="line"/>
      <point x="238" y="0" type="line"/>
      <point x="318" y="345" type="line"/>
      <point x="279" y="345" type="line"/>
      <point x="363" y="0" type="line"/>
      <point x="492" y="0" type="line"/>
      <point x="588" y="500" type="line"/>
      <point x="462" y="500" type="line"/>
      <point x="401" y="93" type="line"/>
      <point x="437" y="95" type="line"/>
      <point x="357" y="410" type="line"/>
      <point x="242" y="410" type="line"/>
      <point x="169" y="95" type="line"/>
      <point x="204" y="93" type="line"/>
      <point x="143" y="500" type="line"/>
      <point x="12" y="500" type="line"/>
    </contour>
  </outline>
</glyph>
<glyph name="x" format="2">
  <advance width="600"/>
  <unicode hex="0078"/>
  <outline>
    <contour>
      <point x="35" y="500" type="line"/>
      <point x="243" y="227" type="line"/>
      <point x="254" y="229" type="line"/>
      <point x="422" y="0" type="line"/>
      <point x="580" y="0" type="line"/>
      <point x="370" y="275" type="line"/>
      <point x="357" y="277" type="line"/>
      <point x="192" y="500" type="line"/>
    </contour>
    <contour>
      <point x="564" y="500" type="line"/>
      <point x="410" y="500" type="line"/>
      <point x="252" y="283" type="line"/>
      <point x="230" y="278" type="line"/>
      <point x="21" y="0" type="line"/>
      <point x="175" y="0" type="line"/>
      <point x="349" y="236" type="line"/>
      <point x="363" y="234" type="line"/>
    </contour>
  </outline>
</glyph>
<glyph name="sterling" format="2">
  <advance width="600"/>
  <unicode hex="00A3"/>
  <outline>
    <contour>
      <point x="88" y="489" type="curve" smooth="yes"/>
      <point x="88" y="373"/>
      <point x="165" y="314"/>
      <point x="165" y="233" type="curve" smooth="yes"/>
      <point x="165" y="167"/>
      <point x="135" y="120"/>
      <point x="59" y="120" type="curve" smooth="yes"/>
      <point x="44" y="120" type="line"/>
      <point x="44" y="0" type="line"/>
      <point x="556" y="0" type="line"/>
      <point x="556" y="120" type="line"/>
      <point x="240" y="120" type="line"/>
      <point x="285" y="151"/>
      <point x="301" y="195"/>
      <point x="301" y="241" type="curve" smooth="yes"/>
      <point x="301" y="343"/>
      <point x="228" y="400"/>
      <point x="228" y="488" type="curve" smooth="yes"/>
      <point x="228" y="551"/>
      <point x="262" y="593"/>
      <point x="323" y="593" type="curve" smooth="yes"/>
      <point x="375" y="593"/>
      <point x="411" y="562"/>
      <point x="411" y="506" type="curve" smooth="yes"/>
      <point x="411" y="491"/>
      <point x="408" y="477"/>
      <point x="404" y="468" type="curve"/>
      <point x="536" y="453" type="line"/>
      <point x="544" y="474"/>
      <point x="547" y="497"/>
      <point x="547" y="515" type="curve" smooth="yes"/>
      <point x="547" y="618"/>
      <point x="469" y="712"/>
      <point x="324" y="712" type="curve" smooth="yes"/>
      <point x="155" y="712"/>
      <point x="88" y="604"/>
    </contour>
    <contour>
      <point x="442" y="255" type="line"/>
      <point x="442" y="361" type="line"/>
      <point x="56" y="361" type="line"/>
      <point x="56" y="255" type="line"/>
    </contour>
  </outline>
</glyph>
<glyph name="brokenbar" format="2">
  <advance width="600"/>
  <unicode hex="00A6"/>
  <outline>
    <contour>
      <point x="226" y="745" type="line"/>
      <point x="226" y="367" type="line"/>
      <point x="373" y="367" type="line"/>
      <point x="373" y="745" type="line"/>
    </contour>
    <contour>
      <point x="226" y="265" type="line"/>
      <point x="226" y="-113" type="line"/>
      <point x="373" y="-113" type="line"/>
      <point x="373" y="265" type="line"/>
    </contour>
  </outline>
</glyph>
<glyph name="section" format="2">
  <advance width="600"/>
  <unicode hex="00A7"/>
  <outline>
    <contour>
      <point x="348" y="171" type="line"/>
      <point x="395" y="217"/>
      <point x="405" y="243"/>
      <point x="405" y="267" type="curve" smooth="yes"/>
      <point x="405" y="299"/>
      <point x="386" y="324"/>
      <point x="334" y="341" type="curve" smooth="yes"/>
      <point x="233" y="373" type="line" smooth="yes"/>
      <point x="123" y="408"/>
      <point x="74" y="454"/>
      <point x="74" y="532" type="curve" smooth="yes"/>
      <point x="74" y="643"/>
      <point x="164" y="712"/>
      <point x="298" y="712" type="curve" smooth="yes"/>
      <point x="435" y="712"/>
      <point x="521" y="638"/>
      <point x="522" y="529" type="curve"/>
      <point x="378" y="540" type="line"/>
      <point x="375" y="583"/>
      <point x="345" y="613"/>
      <point x="294" y="613" type="curve" smooth="yes"/>
      <point x="244" y="613"/>
      <point x="214" y="586"/>
      <point x="214" y="552" type="curve" smooth="yes"/>
      <point x="214" y="525"/>
      <point x="231" y="507"/>
      <point x="286" y="490" type="curve" smooth="yes"/>
      <point x="387" y="458" type="line" smooth="yes"/>
      <point x="499" y="422"/>
      <point x="542" y="370"/>
      <point x="542" y="290" type="curve" smooth="yes"/>
      <point x="542" y="215"/>
      <point x="505" y="168"/>
      <point x="444" y="110" type="curve"/>
    </contour>
    <contour>
      <point x="59" y="75" type="curve"/>
      <point x="207" y="60" type="line"/>
      <point x="211" y="6"/>
      <point x="241" y="-26"/>
      <point x="304" y="-26" type="curve" smooth="yes"/>
      <point x="361" y="-26"/>
      <point x="386" y="1"/>
      <point x="386" y="36" type="curve" smooth="yes"/>
      <point x="386" y="65"/>
      <point x="366" y="87"/>
      <point x="314" y="104" type="curve" smooth="yes"/>
      <point x="213" y="136" type="line" smooth="yes"/>
      <point x="107" y="170"/>
      <point x="63" y="224"/>
      <point x="63" y="305" type="curve" smooth="yes"/>
      <point x="63" y="382"/>
      <point x="112" y="438"/>
      <point x="182" y="482" type="curve"/>
      <point x="262" y="423" type="line"/>
      <point x="217" y="388"/>
      <point x="194" y="359"/>
      <point x="194" y="324" type="curve" smooth="yes"/>
      <point x="194" y="292"/>
      <point x="213" y="270"/>
      <point x="266" y="253" type="curve" smooth="yes"/>
      <point x="367" y="221" type="line" smooth="yes"/>
      <point x="473" y="187"/>
      <point x="527" y="135"/>
      <point x="527" y="51" type="curve" smooth="yes"/>
      <point x="527" y="-52"/>
      <point x="449" y="-126"/>
      <point x="303" y="-126" type="curve" smooth="yes"/>
      <point x="146" y="-126"/>
      <point x="63" y="-52"/>
    </contour>
  </outline>
</glyph>
<glyph name="copyright" format="2">
  <advance width="600"/>
  <unicode hex="00A9"/>
  <outline>
    <contour>
      <point x="404" y="525" type="line"/>
      <point x="388" y="573"/>
      <point x="348" y="594"/>
      <point x="301" y="594" type="curve" smooth="yes"/>
      <point x="236" y="594"/>
      <point x="193" y="546"/>
      <point x="193" y="483" type="curve" smooth="yes"/>
      <point x="193" y="420"/>
      <point x="236" y="372"/>
      <point x="301" y="372" type="curve" smooth="yes"/>
      <point x="348" y="372"/>
      <point x="388" y="393"/>
      <point x="404" y="441" type="curve"/>
      <point x="341" y="458" type="line"/>
      <point x="335" y="440"/>
      <point x="323" y="429"/>
      <point x="303" y="429" type="curve" smooth="yes"/>
      <point x="278" y="429"/>
      <point x="261" y="447"/>
      <point x="261" y="483" type="curve" smooth="yes"/>
      <point x="261" y="519"/>
      <point x="278" y="537"/>
      <point x="303" y="537" type="curve" smooth="yes"/>
      <point x="323" y="537"/>
      <point x="335" y="526"/>
      <point x="341" y="508" type="curve"/>
    </contour>
    <contour>
      <point x="78" y="482" type="curve" smooth="yes"/>
      <point x="78" y="358"/>
      <point x="172" y="259"/>
      <point x="300" y="259" type="curve" smooth="yes"/>
      <point x="428" y="259"/>
      <point x="522" y="358"/>
      <point x="522" y="482" type="curve" smooth="yes"/>
      <point x="522" y="606"/>
      <point x="428" y="705"/>
      <point x="300" y="705" type="curve" smooth="yes"/>
      <point x="172" y="705"/>
      <point x="78" y="606"/>
    </contour>
    <contour>
      <point x="460" y="482" type="curve" smooth="yes"/>
      <point x="460" y="388"/>
      <point x="398" y="318"/>
      <point x="300" y="318" type="curve" smooth="yes"/>
      <point x="202" y="318"/>
      <point x="140" y="388"/>
      <point x="140" y="482" type="curve" smooth="yes"/>
      <point x="140" y="576"/>
      <point x="202" y="646"/>
      <point x="300" y="646" type="curve" smooth="yes"/>
      <point x="398" y="646"/>
      <point x="460" y="576"/>
    </contour>
  </outline>
</glyph>
<glyph name="ordfeminine" format="2">
  <advance width="600"/>
  <unicode hex="00AA"/>
  <outline>
    <contour>
      <point x="107" y="423" type="curve" smooth="yes"/>
      <point x="107" y="346"/>
      <point x="163" y="298"/>
      <point x="249" y="298" type="curve" smooth="yes"/>
      <point x="303" y="298"/>
      <point x="341" y="318"/>
      <point x="368" y="353" type="curve"/>
      <point x="384" y="313"/>
      <point x="423" y="302"/>
      <point x="465" y="302" type="curve" smooth="yes"/>
      <point x="477" y="302"/>
      <point x="484" y="303"/>
      <point x="494" y="304" type="curve"/>
      <point x="494" y="388" type="line"/>
      <point x="488" y="388" type="line" smooth="yes"/>
      <point x="474" y="388"/>
      <point x="465" y="395"/>
      <point x="465" y="414" type="curve" smooth="yes"/>
      <point x="465" y="580" type="line" smooth="yes"/>
      <point x="465" y="664"/>
      <point x="408" y="712"/>
      <point x="295" y="712" type="curve" smooth="yes"/>
      <point x="177" y="712"/>
      <point x="127" y="644"/>
      <point x="123" y="583" type="curve"/>
      <point x="241" y="564" type="line"/>
      <point x="241" y="600"/>
      <point x="252" y="624"/>
      <point x="295" y="624" type="curve" smooth="yes"/>
      <point x="337" y="624"/>
      <point x="350" y="606"/>
      <point x="350" y="572" type="curve" smooth="yes"/>
      <point x="350" y="555" type="line"/>
      <point x="242" y="543" type="line" smooth="yes"/>
      <point x="160" y="534"/>
      <point x="107" y="495"/>
    </contour>
    <contour>
      <point x="350" y="454" type="line" smooth="yes"/>
      <point x="350" y="410"/>
      <point x="317" y="382"/>
      <point x="273" y="382" type="curve" smooth="yes"/>
      <point x="241" y="382"/>
      <point x="224" y="398"/>
      <point x="224" y="424" type="curve" smooth="yes"/>
      <point x="224" y="453"/>
      <point x="241" y="465"/>
      <point x="288" y="471" type="curve" smooth="yes"/>
      <point x="350" y="479" type="line"/>
    </contour>
  </outline>
</glyph>
<glyph name="logicalnot" format="2">
  <advance width="600"/>
  <unicode hex="00AC"/>
  <outline>
    <contour>
      <point x="56" y="275" type="line"/>
      <point x="477" y="275" type="line"/>
      <point x="410" y="338" type="line"/>
      <point x="410" y="52" type="line"/>
      <point x="544" y="52" type="line"/>
      <point x="544" y="403" type="line"/>
      <point x="56" y="403" type="line"/>
    </contour>
  </outline>
</glyph>
<glyph name="registered" format="2">
  <advance width="600"/>
  <unicode hex="00AE"/>
  <outline>
    <contour>
      <point x="522" y="482" type="curve" smooth="yes"/>
      <point x="522" y="606"/>
      <point x="428" y="705"/>
      <point x="300" y="705" type="curve" smooth="yes"/>
      <point x="172" y="705"/>
      <point x="78" y="606"/>
      <point x="78" y="482" type="curve" smooth="yes"/>
      <point x="78" y="358"/>
      <point x="172" y="259"/>
      <point x="300" y="259" type="curve" smooth="yes"/>
      <point x="428" y="259"/>
      <point x="522" y="358"/>
    </contour>
    <contour>
      <point x="140" y="482" type="curve" smooth="yes"/>
      <point x="140" y="576"/>
      <point x="202" y="646"/>
      <point x="300" y="646" type="curve" smooth="yes"/>
      <point x="398" y="646"/>
      <point x="460" y="576"/>
      <point x="460" y="482" type="curve" smooth="yes"/>
      <point x="460" y="388"/>
      <point x="398" y="318"/>
      <point x="300" y="318" type="curve" smooth="yes"/>
      <point x="202" y="318"/>
      <point x="140" y="388"/>
    </contour>
    <contour>
      <point x="207" y="589" type="line"/>
      <point x="207" y="375" type="line"/>
      <point x="270" y="375" type="line"/>
      <point x="270" y="589" type="line"/>
    </contour>
    <contour>
      <point x="314" y="494" type="curve" smooth="yes"/>
      <point x="226" y="494" type="line"/>
      <point x="226" y="443" type="line"/>
      <point x="314" y="443" type="line" smooth="yes"/>
      <point x="374" y="443"/>
      <point x="402" y="470"/>
      <point x="402" y="517" type="curve" smooth="yes"/>
      <point x="402" y="564"/>
      <point x="372" y="589"/>
      <point x="314" y="589" type="curve" smooth="yes"/>
      <point x="227" y="589" type="line"/>
      <point x="227" y="536" type="line"/>
      <point x="314" y="536" type="line" smooth="yes"/>
      <point x="330" y="536"/>
      <point x="338" y="528"/>
      <point x="338" y="515" type="curve" smooth="yes"/>
      <point x="338" y="502"/>
      <point x="330" y="494"/>
    </contour>
    <contour>
      <point x="277" y="452" type="line"/>
      <point x="297" y="424"/>
      <point x="321" y="399"/>
      <point x="342" y="375" type="curve"/>
      <point x="412" y="375" type="line"/>
      <point x="412" y="377" type="line"/>
      <point x="391" y="400"/>
      <point x="367" y="425"/>
      <point x="346" y="452" type="curve"/>
    </contour>
  </outline>
</glyph>
<glyph name="degree" format="2">
  <advance width="600"/>
  <unicode hex="00B0"/>
  <outline>
    <contour>
      <point x="121" y="530" type="curve" smooth="yes"/>
      <point x="121" y="429"/>
      <point x="198" y="352"/>
      <point x="300" y="352" type="curve" smooth="yes"/>
      <point x="402" y="352"/>
      <point x="479" y="429"/>
      <point x="479" y="530" type="curve" smooth="yes"/>
      <point x="479" y="631"/>
      <point x="402" y="708"/>
      <point x="300" y="708" type="curve" smooth="yes"/>
      <point x="198" y="708"/>
      <point x="121" y="631"/>
    </contour>
    <contour>
      <point x="381" y="530" type="curve" smooth="yes"/>
      <point x="381" y="480"/>
      <point x="347" y="446"/>
      <point x="300" y="446" type="curve" smooth="yes"/>
      <point x="253" y="446"/>
      <point x="219" y="480"/>
      <point x="219" y="530" type="curve" smooth="yes"/>
      <point x="219" y="580"/>
      <point x="253" y="614"/>
      <point x="300" y="614" type="curve" smooth="yes"/>
      <point x="347" y="614"/>
      <point x="381" y="580"/>
    </contour>
  </outline>
</glyph>
<glyph name="paragraph" format="2">
  <advance width="600"/>
  <unicode hex="00B6"/>
  <outline>
    <contour>
      <point x="285" y="315" type="line"/>
      <point x="285" y="610" type="line"/>
      <point x="583" y="610" type="line"/>
      <point x="583" y="700" type="line"/>
      <point x="221" y="700" type="line" smooth="yes"/>
      <point x="99" y="700"/>
      <point x="17" y="623"/>
      <point x="17" y="508" type="curve" smooth="yes"/>
      <point x="17" y="391"/>
      <point x="99" y="315"/>
      <point x="221" y="315" type="curve" smooth="yes"/>
    </contour>
    <contour>
      <point x="357" y="700" type="line"/>
      <point x="245" y="700" type="line"/>
      <point x="245" y="-113" type="line"/>
      <point x="357" y="-113" type="line"/>
    </contour>
    <contour>
      <point x="519" y="700" type="line"/>
      <point x="407" y="700" type="line"/>
      <point x="407" y="-113" type="line"/>
      <point x="519" y="-113" type="line"/>
    </contour>
  </outline>
</glyph>
<glyph name="ordmasculine" format="2">
  <advance width="600"/>
  <unicode hex="00BA"/>
  <outline>
    <contour>
      <point x="300" y="298" type="curve" smooth="yes"/>
      <point x="416" y="298"/>
      <point x="499" y="379"/>
      <point x="499" y="505" type="curve" smooth="yes"/>
      <point x="499" y="631"/>
      <point x="416" y="712"/>
      <point x="300" y="712" type="curve" smooth="yes"/>
      <point x="184" y="712"/>
      <point x="101" y="631"/>
      <point x="101" y="505" type="curve" smooth="yes"/>
      <point x="101" y="379"/>
      <point x="184" y="298"/>
    </contour>
    <contour>
      <point x="300" y="617" type="curve" smooth="yes"/>
      <point x="351" y="617"/>
      <point x="380" y="577"/>
      <point x="380" y="505" type="curve" smooth="yes"/>
      <point x="380" y="433"/>
      <point x="351" y="393"/>
      <point x="300" y="393" type="curve" smooth="yes"/>
      <point x="249" y="393"/>
      <point x="220" y="433"/>
      <point x="220" y="505" type="curve" smooth="yes"/>
      <point x="220" y="577"/>
      <point x="249" y="617"/>
    </contour>
  </outline>
</glyph>
<glyph name="guillemetright" format="2">
  <advance width="600"/>
  <unicode hex="00BB"/>
  <outline>
    <contour>
      <point x="248" y="450" type="line"/>
      <point x="398" y="450" type="line"/>
      <point x="561" y="276" type="line"/>
      <point x="561" y="234" type="line"/>
      <point x="398" y="60" type="line"/>
      <point x="248" y="60" type="line"/>
      <point x="457" y="280" type="line"/>
      <point x="457" y="230" type="line"/>
    </contour>
    <contour>
      <point x="39" y="450" type="line"/>
      <point x="189" y="450" type="line"/>
      <point x="352" y="276" type="line"/>
      <point x="352" y="234" type="line"/>
      <point x="189" y="60" type="line"/>
      <point x="39" y="60" type="line"/>
      <point x="248" y="280" type="line"/>
      <point x="248" y="230" type="line"/>
    </contour>
  </outline>
</glyph>
<glyph name="AE" format="2">
  <advance width="600"/>
  <unicode hex="00C6"/>
  <outline>
    <contour>
      <point x="141" y="700" type="line"/>
      <point x="-1" y="0" type="line"/>
      <point x="138" y="0" type="line"/>
      <point x="250" y="576" type="line"/>
      <point x="323" y="576" type="line"/>
      <point x="323" y="700" type="line"/>
    </contour>
    <contour>
      <point x="103" y="273" type="line"/>
      <point x="103" y="151" type="line"/>
      <point x="350" y="151" type="line"/>
      <point x="350" y="273" type="line"/>
    </contour>
    <contour>
      <point x="350" y="417" type="line"/>
      <point x="350" y="294" type="line"/>
      <point x="527" y="294" type="line"/>
      <point x="527" y="417" type="line"/>
    </contour>
    <contour>
      <point x="344" y="124" type="line"/>
      <point x="344" y="0" type="line"/>
      <point x="596" y="0" type="line"/>
      <point x="596" y="124" type="line"/>
    </contour>
    <contour>
      <point x="340" y="700" type="line"/>
      <point x="340" y="576" type="line"/>
      <point x="578" y="576" type="line"/>
      <point x="578" y="700" type="line"/>
    </contour>
    <contour>
      <point x="283" y="700" type="line"/>
      <point x="283" y="0" type="line"/>
      <point x="419" y="0" type="line"/>
      <point x="419" y="700" type="line"/>
    </contour>
  </outline>
</glyph>
<glyph name="Eth" format="2">
  <advance width="600"/>
  <unicode hex="00D0"/>
  <outline>
    <contour>
      <point x="125" y="123" type="line"/>
      <point x="125" y="0" type="line"/>
      <point x="293" y="0" type="line" smooth="yes"/>
      <point x="473" y="0"/>
      <point x="576" y="144"/>
      <point x="576" y="350" type="curve" smooth="yes"/>
      <point x="576" y="556"/>
      <point x="473" y="700"/>
      <point x="293" y="700" type="curve" smooth="yes"/>
      <point x="125" y="700" type="line"/>
      <point x="125" y="577" type="line"/>
      <point x="274" y="577" type="line" smooth="yes"/>
      <point x="362" y="577"/>
      <point x="421" y="512"/>
      <point x="421" y="350" type="curve" smooth="yes"/>
      <point x="421" y="188"/>
      <point x="362" y="123"/>
      <point x="274" y="123" type="curve" smooth="yes"/>
    </contour>
    <contour>
      <point x="62" y="0" type="line"/>
      <point x="212" y="0" type="line"/>
      <point x="212" y="700" type="line"/>
      <point x="62" y="700" type="line"/>
    </contour>
    <contour>
      <point x="10" y="297" type="line"/>
      <point x="319" y="297" type="line"/>
      <point x="319" y="418" type="line"/>
      <point x="10" y="418" type="line"/>
    </contour>
  </outline>
</glyph>
<glyph name="Oslash" format="2">
  <advance width="600"/>
  <unicode hex="00D8"/>
  <guideline x="300" y="712" angle="0" identifier="hOj3bi0XD0"/>
  <guideline x="300" y="-12" angle="0" identifier="XPvJ98IGHf"/>
  <guideline x="570" y="350" angle="90" identifier="Ff1hhvCL2U"/>
  <guideline x="30" y="350" angle="90" identifier="DI0hswAtEr"/>
  <outline>
    <contour>
      <point x="37" y="20" type="line"/>
      <point x="141" y="-40" type="line"/>
      <point x="563" y="679" type="line"/>
      <point x="459" y="739" type="line"/>
    </contour>
    <contour>
      <point x="300" y="712" type="curve" smooth="yes"/>
      <point x="138" y="712"/>
      <point x="30" y="582"/>
      <point x="30" y="350" type="curve" smooth="yes"/>
      <point x="30" y="118"/>
      <point x="138" y="-12"/>
      <point x="300" y="-12" type="curve" smooth="yes"/>
      <point x="462" y="-12"/>
      <point x="570" y="118"/>
      <point x="570" y="350" type="curve" smooth="yes"/>
      <point x="570" y="582"/>
      <point x="462" y="712"/>
    </contour>
    <contour>
      <point x="300" y="116" type="curve" smooth="yes"/>
      <point x="222" y="116"/>
      <point x="175" y="184"/>
      <point x="175" y="350" type="curve" smooth="yes"/>
      <point x="175" y="516"/>
      <point x="222" y="584"/>
      <point x="300" y="584" type="curve" smooth="yes"/>
      <point x="378" y="584"/>
      <point x="425" y="516"/>
      <point x="425" y="350" type="curve" smooth="yes"/>
      <point x="425" y="184"/>
      <point x="378" y="116"/>
    </contour>
  </outline>
</glyph>
<glyph name="Thorn" format="2">
  <advance width="600"/>
  <unicode hex="00DE"/>
  <outline>
    <contour>
      <point x="56" y="700" type="line"/>
      <point x="56" y="0" type="line"/>
      <point x="206" y="0" type="line"/>
      <point x="206" y="700" type="line"/>
    </contour>
    <contour>
      <point x="318" y="440" type="line"/>
      <point x="384" y="440"/>
      <point x="419" y="409"/>
      <point x="419" y="355" type="curve" smooth="yes"/>
      <point x="419" y="301"/>
      <point x="384" y="270"/>
      <point x="318" y="270" type="curve" smooth="yes"/>
      <point x="129" y="270" type="line"/>
      <point x="129" y="147" type="line"/>
      <point x="333" y="147" type="line" smooth="yes"/>
      <point x="505" y="147"/>
      <point x="571" y="235"/>
      <point x="571" y="355" type="curve" smooth="yes"/>
      <point x="571" y="475"/>
      <point x="505" y="563"/>
      <point x="333" y="563" type="curve" smooth="yes"/>
      <point x="129" y="563" type="line"/>
      <point x="129" y="440" type="line"/>
    </contour>
  </outline>
</glyph>
<glyph name="ae" format="2">
  <advance width="600"/>
  <unicode hex="00E6"/>
  <outline>
    <contour>
      <point x="4" y="145" type="curve" smooth="yes"/>
      <point x="4" y="49"/>
      <point x="59" y="-12"/>
      <point x="150" y="-12" type="curve" smooth="yes"/>
      <point x="294" y="-12"/>
      <point x="313" y="119"/>
      <point x="313" y="194" type="curve"/>
      <point x="326" y="368" type="line"/>
      <point x="326" y="445"/>
      <point x="277" y="512"/>
      <point x="180" y="512" type="curve" smooth="yes"/>
      <point x="83" y="512"/>
      <point x="25" y="457"/>
      <point x="14" y="350" type="curve"/>
      <point x="132" y="329" type="line"/>
      <point x="139" y="386"/>
      <point x="153" y="408"/>
      <point x="186" y="408" type="curve" smooth="yes"/>
      <point x="211" y="408"/>
      <point x="227" y="394"/>
      <point x="227" y="352" type="curve" smooth="yes"/>
      <point x="227" y="153" type="line" smooth="yes"/>
      <point x="227" y="108"/>
      <point x="201" y="88"/>
      <point x="172" y="88" type="curve" smooth="yes"/>
      <point x="141" y="88"/>
      <point x="122" y="108"/>
      <point x="122" y="143" type="curve" smooth="yes"/>
      <point x="122" y="176"/>
      <point x="145" y="202"/>
      <point x="190" y="205" type="curve" smooth="yes"/>
      <point x="289" y="212" type="line"/>
      <point x="289" y="312" type="line"/>
      <point x="176" y="305" type="line" smooth="yes"/>
      <point x="73" y="299"/>
      <point x="4" y="241"/>
    </contour>
    <contour>
      <point x="253" y="238" type="curve" smooth="yes"/>
      <point x="253" y="79"/>
      <point x="301" y="-12"/>
      <point x="423" y="-12" type="curve" smooth="yes"/>
      <point x="487" y="-12"/>
      <point x="555" y="30"/>
      <point x="583" y="136" type="curve"/>
      <point x="468" y="165" type="line"/>
      <point x="457" y="112"/>
      <point x="439" y="95"/>
      <point x="416" y="95" type="curve" smooth="yes"/>
      <point x="380" y="95"/>
      <point x="350" y="116"/>
      <point x="350" y="250" type="curve" smooth="yes"/>
      <point x="350" y="377"/>
      <point x="378" y="403"/>
      <point x="413" y="403" type="curve" smooth="yes"/>
      <point x="442" y="403"/>
      <point x="471" y="381"/>
      <point x="469" y="252" type="curve"/>
      <point x="533" y="308" type="line"/>
      <point x="287" y="308" type="line"/>
      <point x="287" y="205" type="line"/>
      <point x="586" y="205" type="line"/>
      <point x="586" y="245" type="line" smooth="yes"/>
      <point x="586" y="424"/>
      <point x="525" y="512"/>
      <point x="419" y="512" type="curve" smooth="yes"/>
      <point x="308" y="512"/>
      <point x="253" y="397"/>
    </contour>
  </outline>
</glyph>
<glyph name="idieresis" format="2">
  <advance width="600"/>
  <unicode hex="00EF"/>
  <outline>
    <contour>
      <point x="149" y="700" type="line"/>
      <point x="149" y="560" type="line"/>
      <point x="294" y="560" type="line"/>
      <point x="294" y="700" type="line"/>
    </contour>
    <contour>
      <point x="346" y="700" type="line"/>
      <point x="346" y="560" type="line"/>
      <point x="491" y="560" type="line"/>
      <point x="491" y="700" type="line"/>
    </contour>
    <component base="dotlessi"/>
  </outline>
</glyph>
<glyph name="oslash" format="2">
  <advance width="600"/>
  <unicode hex="00F8"/>
  <outline>
    <contour>
      <point x="43" y="24" type="line"/>
      <point x="110" y="-32" type="line"/>
      <point x="557" y="466" type="line"/>
      <point x="490" y="522" type="line"/>
    </contour>
    <contour>
      <point x="300" y="-12" type="curve" smooth="yes"/>
      <point x="446" y="-12"/>
      <point x="555" y="91"/>
      <point x="555" y="250" type="curve" smooth="yes"/>
      <point x="555" y="409"/>
      <point x="446" y="512"/>
      <point x="300" y="512" type="curve" smooth="yes"/>
      <point x="154" y="512"/>
      <point x="45" y="409"/>
      <point x="45" y="250" type="curve" smooth="yes"/>
      <point x="45" y="91"/>
      <point x="154" y="-12"/>
    </contour>
    <contour>
      <point x="300" y="396" type="curve" smooth="yes"/>
      <point x="371" y="396"/>
      <point x="414" y="344"/>
      <point x="414" y="250" type="curve" smooth="yes"/>
      <point x="414" y="156"/>
      <point x="371" y="104"/>
      <point x="300" y="104" type="curve" smooth="yes"/>
      <point x="229" y="104"/>
      <point x="186" y="156"/>
      <point x="186" y="250" type="curve" smooth="yes"/>
      <point x="186" y="344"/>
      <point x="229" y="396"/>
    </contour>
  </outline>
</glyph>
<glyph name="Aogonek" format="2">
  <advance width="600"/>
  <unicode hex="0104"/>
  <outline>
    <contour>
      <point x="125" y="267" type="line"/>
      <point x="125" y="145" type="line"/>
      <point x="474" y="145" type="line"/>
      <point x="474" y="267" type="line"/>
    </contour>
    <contour>
      <point x="458" y="-28" type="line"/>
      <point x="595" y="0" type="line"/>
      <point x="388" y="700" type="line"/>
      <point x="216" y="700" type="line"/>
      <point x="5" y="0" type="line"/>
      <point x="149" y="0" type="line"/>
      <point x="335" y="647" type="line"/>
      <point x="268" y="647" type="line"/>
    </contour>
    <contour>
      <point x="529" y="-203" type="curve" smooth="yes"/>
      <point x="552" y="-203"/>
      <point x="587" y="-198"/>
      <point x="612" y="-188" type="curve"/>
      <point x="606" y="-106" type="line"/>
      <point x="588" y="-111"/>
      <point x="574" y="-114"/>
      <point x="558" y="-114" type="curve" smooth="yes"/>
      <point x="528" y="-114"/>
      <point x="513" y="-104"/>
      <point x="513" y="-85" type="curve" smooth="yes"/>
      <point x="513" y="-61"/>
      <point x="536" y="-37"/>
      <point x="595" y="0" type="curve"/>
      <point x="482" y="0" type="line"/>
      <point x="428" y="-35"/>
      <point x="400" y="-76"/>
      <point x="400" y="-118" type="curve" smooth="yes"/>
      <point x="400" y="-171"/>
      <point x="441" y="-203"/>
    </contour>
  </outline>
</glyph>
<glyph name="aogonek" format="2">
  <advance width="600"/>
  <unicode hex="0105"/>
  <outline>
    <contour>
      <point x="396" y="100" type="line"/>
      <point x="402" y="14"/>
      <point x="456" y="-7"/>
      <point x="522" y="-7" type="curve" smooth="yes"/>
      <point x="537" y="-7"/>
      <point x="547" y="-6"/>
      <point x="559" y="-4" type="curve"/>
      <point x="559" y="100" type="line"/>
      <point x="556" y="100"/>
      <point x="555" y="100"/>
      <point x="551" y="100" type="curve" smooth="yes"/>
      <point x="534" y="100"/>
      <point x="522" y="108"/>
      <point x="522" y="133" type="curve" smooth="yes"/>
      <point x="522" y="343" type="line" smooth="yes"/>
      <point x="522" y="451"/>
      <point x="446" y="512"/>
      <point x="299" y="512" type="curve" smooth="yes"/>
      <point x="142" y="512"/>
      <point x="80" y="431"/>
      <point x="73" y="349" type="curve"/>
      <point x="211" y="325" type="line"/>
      <point x="212" y="376"/>
      <point x="241" y="405"/>
      <point x="300" y="405" type="curve" smooth="yes"/>
      <point x="362" y="405"/>
      <point x="385" y="379"/>
      <point x="385" y="333" type="curve" smooth="yes"/>
      <point x="385" y="187" type="line" smooth="yes"/>
      <point x="385" y="129"/>
      <point x="340" y="91"/>
      <point x="265" y="91" type="curve" smooth="yes"/>
      <point x="218" y="91"/>
      <point x="192" y="114"/>
      <point x="192" y="147" type="curve" smooth="yes"/>
      <point x="192" y="183"/>
      <point x="222" y="201"/>
      <point x="266" y="206" type="curve" smooth="yes"/>
      <point x="455" y="228" type="line"/>
      <point x="455" y="322" type="line"/>
      <point x="208" y="294" type="line" smooth="yes"/>
      <point x="123" y="284"/>
      <point x="53" y="238"/>
      <point x="53" y="147" type="curve" smooth="yes"/>
      <point x="53" y="50"/>
      <point x="124" y="-12"/>
      <point x="236" y="-12" type="curve" smooth="yes"/>
      <point x="331" y="-12"/>
      <point x="395" y="22"/>
      <point x="429" y="101" type="curve"/>
    </contour>
    <contour>
      <point x="493" y="-203" type="curve" smooth="yes"/>
      <point x="516" y="-203"/>
      <point x="551" y="-198"/>
      <point x="576" y="-188" type="curve"/>
      <point x="570" y="-106" type="line"/>
      <point x="552" y="-111"/>
      <point x="538" y="-114"/>
      <point x="522" y="-114" type="curve" smooth="yes"/>
      <point x="492" y="-114"/>
      <point x="477" y="-104"/>
      <point x="477" y="-85" type="curve" smooth="yes"/>
      <point x="477" y="-61"/>
      <point x="500" y="-37"/>
      <point x="559" y="-4" type="curve"/>
      <point x="458" y="9" type="line"/>
      <point x="392" y="-35"/>
      <point x="364" y="-76"/>
      <point x="364" y="-118" type="curve" smooth="yes"/>
      <point x="364" y="-171"/>
      <point x="405" y="-203"/>
    </contour>
  </outline>
</glyph>
<glyph name="dcroat" format="2">
  <advance width="600"/>
  <unicode hex="0111"/>
  <outline>
    <contour>
      <point x="273" y="547" type="line"/>
      <point x="591" y="547" type="line"/>
      <point x="591" y="627" type="line"/>
      <point x="273" y="627" type="line"/>
    </contour>
    <component base="d" xOffset="-10" identifier="01B7CBE6"/>
  </outline>
</glyph>
<glyph name="Hbar" format="2">
  <advance width="600"/>
  <unicode hex="0126"/>
  <outline>
    <contour>
      <point x="-6" y="500" type="line"/>
      <point x="606" y="500" type="line"/>
      <point x="606" y="608" type="line"/>
      <point x="-6" y="608" type="line"/>
    </contour>
    <contour>
      <point x="119" y="279" type="line"/>
      <point x="482" y="279" type="line"/>
      <point x="482" y="403" type="line"/>
      <point x="119" y="403" type="line"/>
    </contour>
    <contour>
      <point x="393" y="700" type="line"/>
      <point x="393" y="0" type="line"/>
      <point x="544" y="0" type="line"/>
      <point x="544" y="700" type="line"/>
    </contour>
    <contour>
      <point x="56" y="700" type="line"/>
      <point x="56" y="0" type="line"/>
      <point x="207" y="0" type="line"/>
      <point x="207" y="700" type="line"/>
    </contour>
  </outline>
</glyph>
<glyph name="hbar" format="2">
  <advance width="600"/>
  <unicode hex="0127"/>
  <outline>
    <contour>
      <point x="336" y="547" type="line"/>
      <point x="336" y="627" type="line"/>
      <point x="18" y="627" type="line"/>
      <point x="18" y="547" type="line"/>
    </contour>
    <component base="h" xOffset="11"/>
  </outline>
</glyph>
<glyph name="itilde" format="2">
  <advance width="600"/>
  <unicode hex="0129"/>
  <outline>
    <contour>
      <point x="257" y="696" type="curve" smooth="yes"/>
      <point x="200" y="696"/>
      <point x="163" y="646"/>
      <point x="160" y="564" type="curve"/>
      <point x="253" y="564" type="line"/>
      <point x="255" y="584"/>
      <point x="260" y="598"/>
      <point x="275" y="598" type="curve" smooth="yes"/>
      <point x="297" y="598"/>
      <point x="343" y="567"/>
      <point x="383" y="567" type="curve" smooth="yes"/>
      <point x="440" y="567"/>
      <point x="477" y="617"/>
      <point x="480" y="699" type="curve"/>
      <point x="386" y="699" type="line"/>
      <point x="384" y="679"/>
      <point x="380" y="665"/>
      <point x="365" y="665" type="curve" smooth="yes"/>
      <point x="343" y="665"/>
      <point x="297" y="696"/>
    </contour>
    <component base="dotlessi"/>
  </outline>
</glyph>
<glyph name="imacron" format="2">
  <advance width="600"/>
  <unicode hex="012B"/>
  <outline>
    <contour>
      <point x="165" y="583" type="line"/>
      <point x="475" y="583" type="line"/>
      <point x="475" y="693" type="line"/>
      <point x="165" y="693" type="line"/>
    </contour>
    <component base="dotlessi"/>
  </outline>
</glyph>
<glyph name="ibreve" format="2">
  <advance width="600"/>
  <unicode hex="012D"/>
  <outline>
    <contour>
      <point x="160" y="700" type="line"/>
      <point x="160" y="629"/>
      <point x="213" y="558"/>
      <point x="320" y="558" type="curve" smooth="yes"/>
      <point x="427" y="558"/>
      <point x="480" y="629"/>
      <point x="480" y="700" type="curve"/>
      <point x="370" y="700" type="line"/>
      <point x="370" y="670"/>
      <point x="352" y="648"/>
      <point x="320" y="648" type="curve" smooth="yes"/>
      <point x="288" y="648"/>
      <point x="270" y="670"/>
      <point x="270" y="700" type="curve"/>
    </contour>
    <component base="dotlessi"/>
  </outline>
</glyph>
<glyph name="dotlessi" format="2">
  <advance width="600"/>
  <unicode hex="0131"/>
  <outline>
    <contour>
      <point x="71" y="500" type="line"/>
      <point x="71" y="393" type="line"/>
      <point x="320" y="393" type="line"/>
      <point x="320" y="500" type="line"/>
    </contour>
    <contour>
      <point x="71" y="107" type="line"/>
      <point x="71" y="0" type="line"/>
      <point x="564" y="0" type="line"/>
      <point x="564" y="107" type="line"/>
    </contour>
    <contour>
      <point x="250" y="500" type="line"/>
      <point x="250" y="0" type="line"/>
      <point x="390" y="0" type="line"/>
      <point x="390" y="500" type="line"/>
    </contour>
  </outline>
</glyph>
<glyph name="IJ" format="2">
  <advance width="600"/>
  <unicode hex="0132"/>
  <outline>
    <contour>
      <point x="334" y="109" type="curve" smooth="yes"/>
      <point x="303" y="109"/>
      <point x="279" y="114"/>
      <point x="256" y="118" type="curve"/>
      <point x="256" y="2" type="line"/>
      <point x="282" y="-5"/>
      <point x="320" y="-12"/>
      <point x="359" y="-12" type="curve" smooth="yes"/>
      <point x="496" y="-12"/>
      <point x="560" y="52"/>
      <point x="560" y="189" type="curve" smooth="yes"/>
      <point x="560" y="700" type="line"/>
      <point x="410" y="700" type="line"/>
      <point x="410" y="177" type="line" smooth="yes"/>
      <point x="410" y="133"/>
      <point x="384" y="109"/>
    </contour>
    <contour>
      <point x="40" y="700" type="line"/>
      <point x="40" y="0" type="line"/>
      <point x="191" y="0" type="line"/>
      <point x="191" y="700" type="line"/>
    </contour>
  </outline>
</glyph>
<glyph name="ij" format="2">
  <advance width="600"/>
  <unicode hex="0133"/>
  <outline>
    <contour>
      <point x="81" y="700" type="line"/>
      <point x="81" y="564" type="line"/>
      <point x="225" y="564" type="line"/>
      <point x="225" y="700" type="line"/>
    </contour>
    <contour>
      <point x="83" y="500" type="line"/>
      <point x="83" y="0" type="line"/>
      <point x="223" y="0" type="line"/>
      <point x="223" y="500" type="line"/>
    </contour>
    <contour>
      <point x="83" y="0" type="line"/>
      <point x="223" y="0" type="line"/>
      <point x="223" y="107" type="line"/>
      <point x="83" y="107" type="line"/>
    </contour>
    <contour>
      <point x="83" y="393" type="line"/>
      <point x="223" y="393" type="line"/>
      <point x="223" y="500" type="line"/>
      <point x="83" y="500" type="line"/>
    </contour>
    <contour>
      <point x="287" y="-182" type="line"/>
      <point x="304" y="-187"/>
      <point x="337" y="-190"/>
      <point x="364" y="-190" type="curve" smooth="yes"/>
      <point x="436" y="-190"/>
      <point x="517" y="-162"/>
      <point x="517" y="-63" type="curve" smooth="yes"/>
      <point x="517" y="500" type="line"/>
      <point x="377" y="500" type="line"/>
      <point x="377" y="-35" type="line" smooth="yes"/>
      <point x="377" y="-68"/>
      <point x="363" y="-81"/>
      <point x="327" y="-81" type="curve" smooth="yes"/>
      <point x="316" y="-81"/>
      <point x="305" y="-80"/>
      <point x="287" y="-78" type="curve"/>
    </contour>
    <contour>
      <point x="377" y="393" type="line"/>
      <point x="517" y="393" type="line"/>
      <point x="517" y="500" type="line"/>
      <point x="377" y="500" type="line"/>
    </contour>
    <contour>
      <point x="375" y="700" type="line"/>
      <point x="375" y="564" type="line"/>
      <point x="519" y="564" type="line"/>
      <point x="519" y="700" type="line"/>
    </contour>
  </outline>
</glyph>
<glyph name="Ldot" format="2">
  <advance width="600"/>
  <unicode hex="013F"/>
  <outline>
    <contour>
      <point x="390" y="485" type="line"/>
      <point x="390" y="336" type="line"/>
      <point x="537" y="336" type="line"/>
      <point x="537" y="485" type="line"/>
    </contour>
    <component base="L" identifier="7243F110"/>
  </outline>
</glyph>
<glyph name="ldot" format="2">
  <advance width="600"/>
  <unicode hex="0140"/>
  <outline>
    <contour>
      <point x="548" y="446" type="line"/>
      <point x="548" y="303" type="line"/>
      <point x="679" y="303" type="line"/>
      <point x="679" y="446" type="line"/>
    </contour>
    <component base="l"/>
  </outline>
</glyph>
<glyph name="Lslash" format="2">
  <advance width="600"/>
  <unicode hex="0141"/>
  <outline>
    <contour>
      <point x="21" y="303" type="line"/>
      <point x="21" y="174" type="line"/>
      <point x="420" y="359" type="line"/>
      <point x="420" y="488" type="line"/>
    </contour>
    <component base="L" xOffset="21" identifier="DA59AB41"/>
  </outline>
</glyph>
<glyph name="lslash" format="2">
  <advance width="600"/>
  <unicode hex="0142"/>
  <outline>
    <contour>
      <point x="102" y="314" type="line"/>
      <point x="102" y="216" type="line"/>
      <point x="520" y="439" type="line"/>
      <point x="520" y="537" type="line"/>
    </contour>
    <component base="l"/>
  </outline>
</glyph>
<glyph name="Eng" format="2">
  <advance width="600"/>
  <unicode hex="014A"/>
  <outline>
    <contour>
      <point x="500" y="108" type="line"/>
      <point x="237" y="700" type="line"/>
      <point x="56" y="700" type="line"/>
      <point x="56" y="0" type="line"/>
      <point x="185" y="0" type="line"/>
      <point x="185" y="631" type="line"/>
      <point x="139" y="629" type="line"/>
      <point x="415" y="0" type="line"/>
      <point x="544" y="0" type="line"/>
      <point x="544" y="700" type="line"/>
      <point x="415" y="700" type="line"/>
      <point x="415" y="108" type="line"/>
    </contour>
    <contour>
      <point x="355" y="-77" type="curve" smooth="yes"/>
      <point x="324" y="-77"/>
      <point x="297" y="-74"/>
      <point x="277" y="-70" type="curve"/>
      <point x="277" y="-180" type="line"/>
      <point x="304" y="-187"/>
      <point x="340" y="-192"/>
      <point x="373" y="-192" type="curve" smooth="yes"/>
      <point x="489" y="-192"/>
      <point x="544" y="-128"/>
      <point x="544" y="-5" type="curve" smooth="yes"/>
      <point x="544" y="80" type="line"/>
      <point x="415" y="80" type="line"/>
      <point x="415" y="-23" type="line" smooth="yes"/>
      <point x="415" y="-58"/>
      <point x="394" y="-77"/>
    </contour>
  </outline>
</glyph>
<glyph name="eng" format="2">
  <advance width="600"/>
  <unicode hex="014B"/>
  <outline>
    <contour>
      <point x="71" y="500" type="line"/>
      <point x="71" y="0" type="line"/>
      <point x="211" y="0" type="line"/>
      <point x="211" y="288" type="line" smooth="yes"/>
      <point x="211" y="348"/>
      <point x="249" y="391"/>
      <point x="311" y="391" type="curve" smooth="yes"/>
      <point x="375" y="391"/>
      <point x="400" y="346"/>
      <point x="400" y="295" type="curve" smooth="yes"/>
      <point x="400" y="0" type="line"/>
      <point x="540" y="0" type="line"/>
      <point x="540" y="334" type="line" smooth="yes"/>
      <point x="540" y="442"/>
      <point x="477" y="512"/>
      <point x="368" y="512" type="curve" smooth="yes"/>
      <point x="282" y="512"/>
      <point x="218" y="459"/>
      <point x="191" y="400" type="curve"/>
      <point x="211" y="402" type="line"/>
      <point x="211" y="500" type="line"/>
    </contour>
    <contour>
      <point x="332" y="-183" type="line"/>
      <point x="345" y="-187"/>
      <point x="374" y="-190"/>
      <point x="397" y="-190" type="curve" smooth="yes"/>
      <point x="464" y="-190"/>
      <point x="540" y="-164"/>
      <point x="540" y="-71" type="curve" smooth="yes"/>
      <point x="540" y="100" type="line"/>
      <point x="400" y="100" type="line"/>
      <point x="400" y="-35" type="line" smooth="yes"/>
      <point x="400" y="-68"/>
      <point x="389" y="-81"/>
      <point x="360" y="-81" type="curve" smooth="yes"/>
      <point x="352" y="-81"/>
      <point x="344" y="-80"/>
      <point x="332" y="-79" type="curve"/>
    </contour>
  </outline>
</glyph>
<glyph name="OE" format="2">
  <advance width="600"/>
  <unicode hex="0152"/>
  <guideline x="300" y="734" angle="90"/>
  <outline>
    <contour>
      <point x="318" y="700" type="line"/>
      <point x="318" y="0" type="line"/>
      <point x="426" y="0" type="line"/>
      <point x="426" y="700" type="line"/>
    </contour>
    <contour>
      <point x="347" y="576" type="line"/>
      <point x="578" y="576" type="line"/>
      <point x="578" y="700" type="line"/>
      <point x="347" y="700" type="line"/>
    </contour>
    <contour>
      <point x="357" y="294" type="line"/>
      <point x="525" y="294" type="line"/>
      <point x="525" y="417" type="line"/>
      <point x="357" y="417" type="line"/>
    </contour>
    <contour>
      <point x="351" y="0" type="line"/>
      <point x="591" y="0" type="line"/>
      <point x="591" y="124" type="line"/>
      <point x="351" y="124" type="line"/>
    </contour>
    <contour>
      <point x="197" y="712" type="curve" smooth="yes"/>
      <point x="104" y="712"/>
      <point x="15" y="622"/>
      <point x="15" y="350" type="curve" smooth="yes"/>
      <point x="15" y="78"/>
      <point x="104" y="-12"/>
      <point x="197" y="-12" type="curve" smooth="yes"/>
      <point x="311" y="-12"/>
      <point x="356" y="108"/>
      <point x="356" y="350" type="curve" smooth="yes"/>
      <point x="356" y="592"/>
      <point x="311" y="712"/>
    </contour>
    <contour>
      <point x="225" y="111" type="curve" smooth="yes"/>
      <point x="182" y="111"/>
      <point x="144" y="158"/>
      <point x="144" y="350" type="curve" smooth="yes"/>
      <point x="144" y="542"/>
      <point x="182" y="589"/>
      <point x="225" y="589" type="curve" smooth="yes"/>
      <point x="268" y="589"/>
      <point x="306" y="542"/>
      <point x="306" y="350" type="curve" smooth="yes"/>
      <point x="306" y="158"/>
      <point x="268" y="111"/>
    </contour>
  </outline>
</glyph>
<glyph name="oe" format="2">
  <advance width="600"/>
  <unicode hex="0153"/>
  <outline>
    <contour>
      <point x="435" y="-12" type="curve" smooth="yes"/>
      <point x="489" y="-12"/>
      <point x="556" y="30"/>
      <point x="584" y="136" type="curve"/>
      <point x="464" y="165" type="line"/>
      <point x="456" y="112"/>
      <point x="440" y="98"/>
      <point x="417" y="98" type="curve" smooth="yes"/>
      <point x="389" y="98"/>
      <point x="366" y="119"/>
      <point x="366" y="250" type="curve" smooth="yes"/>
      <point x="366" y="375"/>
      <point x="390" y="400"/>
      <point x="419" y="400" type="curve" smooth="yes"/>
      <point x="447" y="400"/>
      <point x="474" y="378"/>
      <point x="472" y="252" type="curve"/>
      <point x="534" y="308" type="line"/>
      <point x="288" y="308" type="line"/>
      <point x="288" y="205" type="line"/>
      <point x="587" y="205" type="line"/>
      <point x="587" y="255" type="line" smooth="yes"/>
      <point x="587" y="434"/>
      <point x="523" y="512"/>
      <point x="430" y="512" type="curve" smooth="yes"/>
      <point x="320" y="512"/>
      <point x="272" y="412"/>
      <point x="272" y="253" type="curve" smooth="yes"/>
      <point x="272" y="74"/>
      <point x="321" y="-12"/>
    </contour>
    <contour>
      <point x="185" y="-12" type="curve" smooth="yes"/>
      <point x="282" y="-12"/>
      <point x="343" y="71"/>
      <point x="343" y="250" type="curve" smooth="yes"/>
      <point x="343" y="429"/>
      <point x="282" y="512"/>
      <point x="185" y="512" type="curve" smooth="yes"/>
      <point x="95" y="512"/>
      <point x="14" y="450"/>
      <point x="14" y="250" type="curve" smooth="yes"/>
      <point x="14" y="50"/>
      <point x="95" y="-12"/>
    </contour>
    <contour>
      <point x="187" y="400" type="curve" smooth="yes"/>
      <point x="219" y="400"/>
      <point x="239" y="365"/>
      <point x="239" y="250" type="curve" smooth="yes"/>
      <point x="239" y="135"/>
      <point x="219" y="98"/>
      <point x="187" y="98" type="curve" smooth="yes"/>
      <point x="154" y="98"/>
      <point x="134" y="135"/>
      <point x="134" y="250" type="curve" smooth="yes"/>
      <point x="134" y="365"/>
      <point x="154" y="400"/>
    </contour>
  </outline>
</glyph>
<glyph name="Tbar" format="2">
  <advance width="600"/>
  <unicode hex="0166"/>
  <outline>
    <contour>
      <point x="107" y="281" type="line"/>
      <point x="494" y="281" type="line"/>
      <point x="494" y="403" type="line"/>
      <point x="107" y="403" type="line"/>
    </contour>
    <component base="T"/>
  </outline>
</glyph>
<glyph name="tbar" format="2">
  <advance width="600"/>
  <unicode hex="0167"/>
  <outline>
    <contour>
      <point x="27" y="223" type="line"/>
      <point x="531" y="223" type="line"/>
      <point x="531" y="330" type="line"/>
      <point x="27" y="330" type="line"/>
    </contour>
    <component base="t"/>
  </outline>
</glyph>
<glyph name="Uogonek" format="2">
  <advance width="600"/>
  <unicode hex="0172"/>
  <outline>
    <contour>
      <point x="326" y="-203" type="curve" smooth="yes"/>
      <point x="349" y="-203"/>
      <point x="384" y="-198"/>
      <point x="409" y="-188" type="curve"/>
      <point x="403" y="-106" type="line"/>
      <point x="385" y="-111"/>
      <point x="371" y="-114"/>
      <point x="355" y="-114" type="curve" smooth="yes"/>
      <point x="325" y="-114"/>
      <point x="310" y="-104"/>
      <point x="310" y="-85" type="curve" smooth="yes"/>
      <point x="310" y="-62"/>
      <point x="331" y="-33"/>
      <point x="405" y="2" type="curve" smooth="yes"/>
      <point x="495" y="44"/>
      <point x="546" y="121"/>
      <point x="546" y="217" type="curve" smooth="yes"/>
      <point x="546" y="700" type="line"/>
      <point x="395" y="700" type="line"/>
      <point x="395" y="222" type="line" smooth="yes"/>
      <point x="395" y="159"/>
      <point x="365" y="117"/>
      <point x="301" y="117" type="curve" smooth="yes"/>
      <point x="236" y="117"/>
      <point x="205" y="159"/>
      <point x="205" y="222" type="curve" smooth="yes"/>
      <point x="205" y="700" type="line"/>
      <point x="54" y="700" type="line"/>
      <point x="54" y="217" type="line" smooth="yes"/>
      <point x="54" y="92"/>
      <point x="143" y="-10"/>
      <point x="297" y="-12" type="curve"/>
      <point x="309" y="-12"/>
      <point x="320" y="-12"/>
      <point x="332" y="-12" type="curve"/>
      <point x="294" y="10" type="line"/>
      <point x="231" y="-28"/>
      <point x="197" y="-72"/>
      <point x="197" y="-118" type="curve" smooth="yes"/>
      <point x="197" y="-171"/>
      <point x="238" y="-203"/>
    </contour>
  </outline>
</glyph>
<glyph name="Bhook" format="2">
  <advance width="600"/>
  <unicode hex="0181"/>
  <outline>
    <contour>
      <point x="165" y="700" type="line"/>
      <point x="165" y="0" type="line"/>
      <point x="307" y="0" type="line"/>
      <point x="307" y="700" type="line"/>
    </contour>
    <contour>
      <point x="378" y="0" type="line"/>
      <point x="522" y="0"/>
      <point x="589" y="97"/>
      <point x="589" y="209" type="curve" smooth="yes"/>
      <point x="589" y="304"/>
      <point x="529" y="350"/>
      <point x="470" y="374" type="curve"/>
      <point x="470" y="356" type="line"/>
      <point x="524" y="374"/>
      <point x="574" y="421"/>
      <point x="574" y="514" type="curve" smooth="yes"/>
      <point x="574" y="614"/>
      <point x="511" y="700"/>
      <point x="378" y="700" type="curve" smooth="yes"/>
      <point x="230" y="700" type="line"/>
      <point x="230" y="577" type="line"/>
      <point x="365" y="577" type="line" smooth="yes"/>
      <point x="407" y="577"/>
      <point x="434" y="551"/>
      <point x="434" y="500" type="curve" smooth="yes"/>
      <point x="434" y="448"/>
      <point x="410" y="420"/>
      <point x="369" y="420" type="curve" smooth="yes"/>
      <point x="229" y="420" type="line"/>
      <point x="229" y="298" type="line"/>
      <point x="369" y="298" type="line" smooth="yes"/>
      <point x="410" y="298"/>
      <point x="447" y="272"/>
      <point x="447" y="210" type="curve" smooth="yes"/>
      <point x="447" y="149"/>
      <point x="413" y="123"/>
      <point x="369" y="123" type="curve" smooth="yes"/>
      <point x="230" y="123" type="line"/>
      <point x="230" y="0" type="line"/>
    </contour>
    <contour>
      <point x="251" y="700" type="line"/>
      <point x="167" y="700" type="line" smooth="yes"/>
      <point x="58" y="700"/>
      <point x="-10" y="636"/>
      <point x="-10" y="525" type="curve" smooth="yes"/>
      <point x="-10" y="480"/>
      <point x="1" y="447"/>
      <point x="14" y="424" type="curve"/>
      <point x="141" y="429" type="line"/>
      <point x="126" y="457"/>
      <point x="117" y="484"/>
      <point x="117" y="514" type="curve" smooth="yes"/>
      <point x="117" y="557"/>
      <point x="136" y="577"/>
      <point x="170" y="577" type="curve" smooth="yes"/>
      <point x="254" y="577" type="line"/>
    </contour>
  </outline>
</glyph>
<glyph name="Oopen" format="2">
  <advance width="600"/>
  <unicode hex="0186"/>
  <outline>
    <contour>
      <point x="31" y="490" type="curve"/>
      <point x="168" y="448" type="line"/>
      <point x="190" y="540"/>
      <point x="231" y="584"/>
      <point x="287" y="584" type="curve" smooth="yes"/>
      <point x="347" y="584"/>
      <point x="396" y="530"/>
      <point x="396" y="350" type="curve" smooth="yes"/>
      <point x="396" y="170"/>
      <point x="347" y="116"/>
      <point x="287" y="116" type="curve" smooth="yes"/>
      <point x="232" y="116"/>
      <point x="189" y="159"/>
      <point x="169" y="249" type="curve"/>
      <point x="32" y="208" type="line"/>
      <point x="63" y="75"/>
      <point x="152" y="-12"/>
      <point x="288" y="-12" type="curve" smooth="yes"/>
      <point x="440" y="-12"/>
      <point x="551" y="109"/>
      <point x="551" y="350" type="curve" smooth="yes"/>
      <point x="551" y="591"/>
      <point x="439" y="712"/>
      <point x="288" y="712" type="curve" smooth="yes"/>
      <point x="152" y="712"/>
      <point x="62" y="624"/>
    </contour>
  </outline>
</glyph>
<glyph name="Dhook" format="2">
  <advance width="600"/>
  <unicode hex="018A"/>
  <outline>
    <contour>
      <point x="218" y="123" type="line"/>
      <point x="218" y="0" type="line"/>
      <point x="336" y="0" type="line" smooth="yes"/>
      <point x="491" y="0"/>
      <point x="589" y="144"/>
      <point x="589" y="350" type="curve" smooth="yes"/>
      <point x="589" y="556"/>
      <point x="491" y="700"/>
      <point x="336" y="700" type="curve" smooth="yes"/>
      <point x="218" y="700" type="line"/>
      <point x="218" y="577" type="line"/>
      <point x="327" y="577" type="line" smooth="yes"/>
      <point x="391" y="577"/>
      <point x="444" y="512"/>
      <point x="444" y="350" type="curve" smooth="yes"/>
      <point x="444" y="188"/>
      <point x="391" y="123"/>
      <point x="327" y="123" type="curve" smooth="yes"/>
    </contour>
    <contour>
      <point x="165" y="0" type="line"/>
      <point x="305" y="0" type="line"/>
      <point x="305" y="700" type="line"/>
      <point x="165" y="700" type="line"/>
    </contour>
    <contour>
      <point x="251" y="700" type="line"/>
      <point x="167" y="700" type="line" smooth="yes"/>
      <point x="58" y="700"/>
      <point x="-10" y="636"/>
      <point x="-10" y="525" type="curve" smooth="yes"/>
      <point x="-10" y="480"/>
      <point x="1" y="447"/>
      <point x="14" y="424" type="curve"/>
      <point x="141" y="429" type="line"/>
      <point x="126" y="457"/>
      <point x="117" y="484"/>
      <point x="117" y="514" type="curve" smooth="yes"/>
      <point x="117" y="557"/>
      <point x="136" y="577"/>
      <point x="170" y="577" type="curve" smooth="yes"/>
      <point x="254" y="577" type="line"/>
    </contour>
  </outline>
</glyph>
<glyph name="Ereversed" format="2">
  <advance width="600"/>
  <unicode hex="018E"/>
  <outline>
    <contour>
      <point x="518" y="700" type="line"/>
      <point x="368" y="700" type="line"/>
      <point x="368" y="0" type="line"/>
      <point x="518" y="0" type="line"/>
    </contour>
    <contour>
      <point x="457" y="576" type="line"/>
      <point x="457" y="700" type="line"/>
      <point x="67" y="700" type="line"/>
      <point x="67" y="576" type="line"/>
    </contour>
    <contour>
      <point x="447" y="294" type="line"/>
      <point x="447" y="417" type="line"/>
      <point x="178" y="417" type="line"/>
      <point x="178" y="294" type="line"/>
    </contour>
    <contour>
      <point x="453" y="0" type="line"/>
      <point x="453" y="124" type="line"/>
      <point x="53" y="124" type="line"/>
      <point x="53" y="0" type="line"/>
    </contour>
  </outline>
</glyph>
<glyph name="Schwa" format="2">
  <advance width="600"/>
  <unicode hex="018F"/>
  <outline>
    <contour>
      <point x="301" y="712" type="curve" smooth="yes"/>
      <point x="177" y="712"/>
      <point x="82" y="637"/>
      <point x="49" y="511" type="curve"/>
      <point x="191" y="471" type="line"/>
      <point x="211" y="550"/>
      <point x="248" y="584"/>
      <point x="300" y="584" type="curve" smooth="yes"/>
      <point x="372" y="584"/>
      <point x="415" y="516"/>
      <point x="415" y="350" type="curve" smooth="yes"/>
      <point x="415" y="184"/>
      <point x="372" y="116"/>
      <point x="299" y="116" type="curve" smooth="yes"/>
      <point x="235" y="116"/>
      <point x="192" y="174"/>
      <point x="186" y="312" type="curve"/>
      <point x="163" y="280" type="line"/>
      <point x="490" y="280" type="line"/>
      <point x="490" y="403" type="line"/>
      <point x="34" y="403" type="line"/>
      <point x="34" y="350" type="line" smooth="yes"/>
      <point x="34" y="118"/>
      <point x="140" y="-12"/>
      <point x="296" y="-12" type="curve" smooth="yes"/>
      <point x="458" y="-12"/>
      <point x="566" y="118"/>
      <point x="566" y="350" type="curve" smooth="yes"/>
      <point x="566" y="582"/>
      <point x="460" y="712"/>
    </contour>
  </outline>
</glyph>
<glyph name="Eopen" format="2">
  <advance width="600"/>
  <unicode hex="0190"/>
  <outline>
    <contour>
      <point x="572" y="218" type="curve"/>
      <point x="422" y="212" type="line"/>
      <point x="424" y="151"/>
      <point x="392" y="107"/>
      <point x="310" y="107" type="curve" smooth="yes"/>
      <point x="236" y="107"/>
      <point x="197" y="149"/>
      <point x="197" y="205" type="curve" smooth="yes"/>
      <point x="197" y="266"/>
      <point x="237" y="303"/>
      <point x="312" y="303" type="curve" smooth="yes"/>
      <point x="375" y="303" type="line"/>
      <point x="375" y="421" type="line"/>
      <point x="313" y="421" type="line" smooth="yes"/>
      <point x="253" y="421"/>
      <point x="214" y="449"/>
      <point x="214" y="505" type="curve" smooth="yes"/>
      <point x="214" y="558"/>
      <point x="251" y="594"/>
      <point x="313" y="594" type="curve" smooth="yes"/>
      <point x="386" y="594"/>
      <point x="415" y="550"/>
      <point x="416" y="492" type="curve"/>
      <point x="565" y="486" type="line"/>
      <point x="567" y="632"/>
      <point x="454" y="712"/>
      <point x="311" y="712" type="curve" smooth="yes"/>
      <point x="160" y="712"/>
      <point x="59" y="627"/>
      <point x="59" y="515" type="curve" smooth="yes"/>
      <point x="59" y="422"/>
      <point x="129" y="366"/>
      <point x="189" y="357" type="curve"/>
      <point x="189" y="373" type="line"/>
      <point x="108" y="362"/>
      <point x="44" y="293"/>
      <point x="44" y="199" type="curve" smooth="yes"/>
      <point x="44" y="76"/>
      <point x="143" y="-12"/>
      <point x="311" y="-12" type="curve" smooth="yes"/>
      <point x="454" y="-12"/>
      <point x="575" y="60"/>
    </contour>
  </outline>
</glyph>
<glyph name="Khook" format="2">
  <advance width="600"/>
  <unicode hex="0198"/>
  <outline>
    <contour>
      <point x="48" y="700" type="line"/>
      <point x="48" y="0" type="line"/>
      <point x="191" y="0" type="line"/>
      <point x="192" y="700" type="line"/>
    </contour>
    <contour>
      <point x="220" y="346" type="line"/>
      <point x="423" y="0" type="line"/>
      <point x="586" y="0" type="line"/>
      <point x="323" y="449" type="line"/>
    </contour>
    <contour>
      <point x="533" y="581" type="curve" smooth="yes"/>
      <point x="548" y="581"/>
      <point x="560" y="578"/>
      <point x="579" y="568" type="curve"/>
      <point x="584" y="695" type="line"/>
      <point x="563" y="707"/>
      <point x="542" y="712"/>
      <point x="513" y="712" type="curve" smooth="yes"/>
      <point x="459" y="712"/>
      <point x="413" y="691"/>
      <point x="364" y="626" type="curve" smooth="yes"/>
      <point x="123" y="310" type="line"/>
      <point x="137" y="135" type="line"/>
      <point x="287" y="327" type="line"/>
      <point x="324" y="357" type="line"/>
      <point x="465" y="540" type="line" smooth="yes"/>
      <point x="488" y="569"/>
      <point x="509" y="581"/>
    </contour>
  </outline>
</glyph>
<glyph name="Nhookleft" format="2">
  <advance width="600"/>
  <unicode hex="019D"/>
  <outline>
    <contour>
      <point x="466" y="108" type="line"/>
      <point x="257" y="700" type="line"/>
      <point x="56" y="700" type="line"/>
      <point x="56" y="0" type="line"/>
      <point x="185" y="0" type="line"/>
      <point x="185" y="631" type="line"/>
      <point x="153" y="629" type="line"/>
      <point x="375" y="0" type="line"/>
      <point x="544" y="0" type="line"/>
      <point x="544" y="700" type="line"/>
      <point x="415" y="700" type="line"/>
      <point x="415" y="108" type="line"/>
    </contour>
    <contour>
      <point x="0" y="-77" type="curve" smooth="yes"/>
      <point x="-21" y="-77"/>
      <point x="-35" y="-75"/>
      <point x="-50" y="-72" type="curve"/>
      <point x="-50" y="-182" type="line"/>
      <point x="-29" y="-188"/>
      <point x="-1" y="-192"/>
      <point x="24" y="-192" type="curve" smooth="yes"/>
      <point x="123" y="-192"/>
      <point x="185" y="-136"/>
      <point x="185" y="-43" type="curve" smooth="yes"/>
      <point x="185" y="80" type="line"/>
      <point x="56" y="80" type="line"/>
      <point x="56" y="-25" type="line" smooth="yes"/>
      <point x="56" y="-57"/>
      <point x="41" y="-77"/>
    </contour>
  </outline>
</glyph>
<glyph name="Uhorn" format="2">
  <advance width="600"/>
  <unicode hex="01AF"/>
  <outline>
    <contour>
      <point x="54" y="207" type="line" smooth="yes"/>
      <point x="54" y="87"/>
      <point x="140" y="-12"/>
      <point x="291" y="-12" type="curve" smooth="yes"/>
      <point x="442" y="-12"/>
      <point x="526" y="87"/>
      <point x="526" y="207" type="curve" smooth="yes"/>
      <point x="526" y="700" type="line"/>
      <point x="375" y="700" type="line"/>
      <point x="375" y="212" type="line" smooth="yes"/>
      <point x="375" y="155"/>
      <point x="348" y="117"/>
      <point x="291" y="117" type="curve" smooth="yes"/>
      <point x="233" y="117"/>
      <point x="205" y="155"/>
      <point x="205" y="212" type="curve" smooth="yes"/>
      <point x="205" y="700" type="line"/>
      <point x="54" y="700" type="line"/>
    </contour>
    <component base="horncmb.uc" xOffset="212"/>
  </outline>
</glyph>
<glyph name="Yhook" format="2">
  <advance width="600"/>
  <unicode hex="01B3"/>
  <outline>
    <contour>
      <point x="565" y="581" type="curve" smooth="yes"/>
      <point x="579" y="581"/>
      <point x="589" y="578"/>
      <point x="602" y="574" type="curve"/>
      <point x="607" y="700" type="line"/>
      <point x="590" y="708"/>
      <point x="567" y="712"/>
      <point x="543" y="712" type="curve" smooth="yes"/>
      <point x="479" y="712"/>
      <point x="439" y="686"/>
      <point x="401" y="615" type="curve" smooth="yes"/>
      <point x="247" y="326" type="line"/>
      <point x="352" y="326" type="line"/>
      <point x="160" y="700" type="line"/>
      <point x="5" y="700" type="line"/>
      <point x="224" y="281" type="line"/>
      <point x="224" y="0" type="line"/>
      <point x="375" y="0" type="line"/>
      <point x="375" y="281" type="line"/>
      <point x="505" y="534" type="line" smooth="yes"/>
      <point x="521" y="566"/>
      <point x="541" y="581"/>
    </contour>
  </outline>
</glyph>
<glyph name="yhook" format="2">
  <advance width="600"/>
  <unicode hex="01B4"/>
  <outline>
    <contour>
      <point x="21" y="500" type="line"/>
      <point x="248" y="-61" type="line"/>
      <point x="316" y="116" type="line"/>
      <point x="169" y="500" type="line"/>
    </contour>
    <contour>
      <point x="515" y="338" type="line"/>
      <point x="531" y="377"/>
      <point x="552" y="396"/>
      <point x="578" y="396" type="curve" smooth="yes"/>
      <point x="586" y="396"/>
      <point x="598" y="394"/>
      <point x="607" y="390" type="curve"/>
      <point x="610" y="498" type="line"/>
      <point x="585" y="508"/>
      <point x="559" y="512"/>
      <point x="538" y="512" type="curve" smooth="yes"/>
      <point x="465" y="512"/>
      <point x="418" y="466"/>
      <point x="390" y="391" type="curve" smooth="yes"/>
      <point x="265" y="58" type="line"/>
      <point x="249" y="32" type="line"/>
      <point x="157" y="-180" type="line"/>
      <point x="307" y="-180" type="line"/>
    </contour>
  </outline>
</glyph>
<glyph name="Icaron" format="2">
  <advance width="600"/>
  <unicode hex="01CF"/>
  <outline>
    <contour>
      <point x="110" y="892" type="line"/>
      <point x="224" y="760" type="line"/>
      <point x="376" y="760" type="line"/>
      <point x="490" y="892" type="line"/>
      <point x="362" y="892" type="line"/>
      <point x="247" y="798" type="line"/>
      <point x="353" y="798" type="line"/>
      <point x="238" y="892" type="line"/>
    </contour>
    <component base="I"/>
  </outline>
</glyph>
<glyph name="icaron" format="2">
  <advance width="600"/>
  <unicode hex="01D0"/>
  <outline>
    <contour>
      <point x="248" y="564" type="line"/>
      <point x="392" y="564" type="line"/>
      <point x="497" y="700" type="line"/>
      <point x="375" y="700" type="line"/>
      <point x="260" y="584" type="line"/>
      <point x="380" y="584" type="line"/>
      <point x="265" y="700" type="line"/>
      <point x="143" y="700" type="line"/>
    </contour>
    <component base="dotlessi"/>
  </outline>
</glyph>
<glyph name="Oogonek" format="2">
  <advance width="600"/>
  <unicode hex="01EA"/>
  <outline>
    <contour>
      <point x="330" y="-203" type="curve" smooth="yes"/>
      <point x="353" y="-203"/>
      <point x="388" y="-198"/>
      <point x="413" y="-188" type="curve"/>
      <point x="407" y="-106" type="line"/>
      <point x="389" y="-111"/>
      <point x="375" y="-114"/>
      <point x="359" y="-114" type="curve" smooth="yes"/>
      <point x="329" y="-114"/>
      <point x="314" y="-104"/>
      <point x="314" y="-85" type="curve" smooth="yes"/>
      <point x="314" y="-62"/>
      <point x="329" y="-36"/>
      <point x="404" y="4" type="curve" smooth="yes"/>
      <point x="505" y="58"/>
      <point x="570" y="172"/>
      <point x="570" y="350" type="curve" smooth="yes"/>
      <point x="570" y="582"/>
      <point x="462" y="712"/>
      <point x="300" y="712" type="curve" smooth="yes"/>
      <point x="138" y="712"/>
      <point x="30" y="582"/>
      <point x="30" y="350" type="curve" smooth="yes"/>
      <point x="30" y="122"/>
      <point x="135" y="-8"/>
      <point x="293" y="-12" type="curve"/>
      <point x="298" y="-12"/>
      <point x="302" y="-12"/>
      <point x="307" y="-12" type="curve"/>
      <point x="298" y="10" type="line"/>
      <point x="235" y="-28"/>
      <point x="201" y="-72"/>
      <point x="201" y="-118" type="curve" smooth="yes"/>
      <point x="201" y="-171"/>
      <point x="242" y="-203"/>
    </contour>
    <contour>
      <point x="300" y="116" type="curve" smooth="yes"/>
      <point x="228" y="116"/>
      <point x="185" y="184"/>
      <point x="185" y="350" type="curve" smooth="yes"/>
      <point x="185" y="516"/>
      <point x="228" y="584"/>
      <point x="300" y="584" type="curve" smooth="yes"/>
      <point x="372" y="584"/>
      <point x="415" y="516"/>
      <point x="415" y="350" type="curve" smooth="yes"/>
      <point x="415" y="184"/>
      <point x="372" y="116"/>
    </contour>
  </outline>
</glyph>
<glyph name="oogonek" format="2">
  <advance width="600"/>
  <unicode hex="01EB"/>
  <outline>
    <contour>
      <point x="324" y="-203" type="curve" smooth="yes"/>
      <point x="347" y="-203"/>
      <point x="382" y="-198"/>
      <point x="407" y="-188" type="curve"/>
      <point x="401" y="-106" type="line"/>
      <point x="383" y="-111"/>
      <point x="369" y="-114"/>
      <point x="353" y="-114" type="curve" smooth="yes"/>
      <point x="323" y="-114"/>
      <point x="308" y="-104"/>
      <point x="308" y="-85" type="curve" smooth="yes"/>
      <point x="308" y="-61"/>
      <point x="329" y="-34"/>
      <point x="404" y="3" type="curve" smooth="yes"/>
      <point x="493" y="47"/>
      <point x="555" y="130"/>
      <point x="555" y="250" type="curve" smooth="yes"/>
      <point x="555" y="409"/>
      <point x="446" y="512"/>
      <point x="300" y="512" type="curve" smooth="yes"/>
      <point x="154" y="512"/>
      <point x="45" y="409"/>
      <point x="45" y="250" type="curve" smooth="yes"/>
      <point x="45" y="87"/>
      <point x="159" y="-17"/>
      <point x="311" y="-12" type="curve"/>
      <point x="315" y="-12"/>
      <point x="320" y="-12"/>
      <point x="324" y="-12" type="curve"/>
      <point x="317" y="20" type="line"/>
      <point x="236" y="-16"/>
      <point x="195" y="-67"/>
      <point x="195" y="-118" type="curve" smooth="yes"/>
      <point x="195" y="-171"/>
      <point x="236" y="-203"/>
    </contour>
    <contour>
      <point x="300" y="396" type="curve" smooth="yes"/>
      <point x="371" y="396"/>
      <point x="414" y="344"/>
      <point x="414" y="250" type="curve" smooth="yes"/>
      <point x="414" y="156"/>
      <point x="371" y="104"/>
      <point x="300" y="104" type="curve" smooth="yes"/>
      <point x="229" y="104"/>
      <point x="186" y="156"/>
      <point x="186" y="250" type="curve" smooth="yes"/>
      <point x="186" y="344"/>
      <point x="229" y="396"/>
    </contour>
  </outline>
</glyph>
<glyph name="dotlessj" format="2">
  <advance width="600"/>
  <unicode hex="0237"/>
  <guideline x="215" y="490" angle="90" name="center" identifier="gyeq5WPwhy"/>
  <outline>
    <contour>
      <point x="74" y="-177" type="line"/>
      <point x="106" y="-185"/>
      <point x="156" y="-190"/>
      <point x="212" y="-190" type="curve" smooth="yes"/>
      <point x="361" y="-190"/>
      <point x="443" y="-132"/>
      <point x="443" y="-25" type="curve" smooth="yes"/>
      <point x="443" y="500" type="line"/>
      <point x="303" y="500" type="line"/>
      <point x="303" y="5" type="line" smooth="yes"/>
      <point x="303" y="-55"/>
      <point x="274" y="-81"/>
      <point x="195" y="-81" type="curve" smooth="yes"/>
      <point x="146" y="-81"/>
      <point x="114" y="-79"/>
      <point x="74" y="-72" type="curve"/>
    </contour>
    <contour>
      <point x="88" y="393" type="line"/>
      <point x="372" y="393" type="line"/>
      <point x="372" y="500" type="line"/>
      <point x="88" y="500" type="line"/>
    </contour>
  </outline>
</glyph>
<glyph name="schwa" format="2">
  <advance width="600"/>
  <unicode hex="0259"/>
  <outline>
    <contour>
      <point x="300" y="512" type="curve" smooth="yes"/>
      <point x="183" y="512"/>
      <point x="91" y="452"/>
      <point x="59" y="362" type="curve"/>
      <point x="189" y="328" type="line"/>
      <point x="208" y="376"/>
      <point x="243" y="402"/>
      <point x="300" y="402" type="curve" smooth="yes"/>
      <point x="369" y="402"/>
      <point x="412" y="355"/>
      <point x="412" y="250" type="curve" smooth="yes"/>
      <point x="412" y="149"/>
      <point x="370" y="100"/>
      <point x="303" y="100" type="curve" smooth="yes"/>
      <point x="232" y="100"/>
      <point x="191" y="147"/>
      <point x="191" y="248" type="curve"/>
      <point x="137" y="192" type="line"/>
      <point x="484" y="192" type="line"/>
      <point x="484" y="296" type="line"/>
      <point x="52" y="296" type="line"/>
      <point x="52" y="255" type="line" smooth="yes"/>
      <point x="52" y="96"/>
      <point x="152" y="-12"/>
      <point x="303" y="-12" type="curve" smooth="yes"/>
      <point x="449" y="-12"/>
      <point x="552" y="91"/>
      <point x="552" y="250" type="curve" smooth="yes"/>
      <point x="552" y="409"/>
      <point x="447" y="512"/>
    </contour>
  </outline>
</glyph>
<glyph name="eopen" format="2">
  <advance width="600"/>
  <unicode hex="025B"/>
  <outline>
    <contour>
      <point x="552" y="161" type="curve"/>
      <point x="413" y="155" type="line"/>
      <point x="410" y="116"/>
      <point x="389" y="88"/>
      <point x="306" y="88" type="curve" smooth="yes"/>
      <point x="227" y="88"/>
      <point x="199" y="119"/>
      <point x="199" y="150" type="curve" smooth="yes"/>
      <point x="199" y="186"/>
      <point x="235" y="208"/>
      <point x="302" y="208" type="curve" smooth="yes"/>
      <point x="355" y="208" type="line"/>
      <point x="355" y="308" type="line"/>
      <point x="303" y="308" type="line" smooth="yes"/>
      <point x="248" y="308"/>
      <point x="211" y="321"/>
      <point x="211" y="358" type="curve" smooth="yes"/>
      <point x="211" y="388"/>
      <point x="241" y="412"/>
      <point x="306" y="412" type="curve" smooth="yes"/>
      <point x="384" y="412"/>
      <point x="408" y="385"/>
      <point x="408" y="345" type="curve"/>
      <point x="547" y="338" type="line"/>
      <point x="552" y="450"/>
      <point x="459" y="512"/>
      <point x="305" y="512" type="curve" smooth="yes"/>
      <point x="156" y="512"/>
      <point x="70" y="445"/>
      <point x="70" y="363" type="curve" smooth="yes"/>
      <point x="70" y="298"/>
      <point x="131" y="270"/>
      <point x="171" y="258" type="curve"/>
      <point x="171" y="263" type="line"/>
      <point x="111" y="251"/>
      <point x="56" y="212"/>
      <point x="56" y="146" type="curve" smooth="yes"/>
      <point x="56" y="53"/>
      <point x="156" y="-12"/>
      <point x="307" y="-12" type="curve" smooth="yes"/>
      <point x="464" y="-12"/>
      <point x="553" y="43"/>
    </contour>
  </outline>
</glyph>
<glyph name="istroke" format="2">
  <advance width="600"/>
  <unicode hex="0268"/>
  <outline>
    <contour>
      <point x="564" y="212" type="line"/>
      <point x="564" y="306" type="line"/>
      <point x="71" y="306" type="line"/>
      <point x="71" y="212" type="line"/>
    </contour>
    <component base="i"/>
  </outline>
</glyph>
<glyph name="nhookleft" format="2">
  <advance width="600"/>
  <unicode hex="0272"/>
  <outline>
    <contour>
      <point x="71" y="500" type="line"/>
      <point x="71" y="0" type="line"/>
      <point x="211" y="0" type="line"/>
      <point x="211" y="288" type="line" smooth="yes"/>
      <point x="211" y="348"/>
      <point x="249" y="391"/>
      <point x="311" y="391" type="curve" smooth="yes"/>
      <point x="375" y="391"/>
      <point x="400" y="346"/>
      <point x="400" y="295" type="curve" smooth="yes"/>
      <point x="400" y="0" type="line"/>
      <point x="540" y="0" type="line"/>
      <point x="540" y="334" type="line" smooth="yes"/>
      <point x="540" y="442"/>
      <point x="477" y="512"/>
      <point x="368" y="512" type="curve" smooth="yes"/>
      <point x="282" y="512"/>
      <point x="218" y="459"/>
      <point x="191" y="400" type="curve"/>
      <point x="211" y="402" type="line"/>
      <point x="211" y="500" type="line"/>
    </contour>
    <contour>
      <point x="6" y="-183" type="line"/>
      <point x="20" y="-187"/>
      <point x="45" y="-190"/>
      <point x="68" y="-190" type="curve" smooth="yes"/>
      <point x="135" y="-190"/>
      <point x="211" y="-164"/>
      <point x="211" y="-71" type="curve" smooth="yes"/>
      <point x="211" y="100" type="line"/>
      <point x="71" y="100" type="line"/>
      <point x="71" y="-35" type="line" smooth="yes"/>
      <point x="71" y="-68"/>
      <point x="60" y="-81"/>
      <point x="31" y="-81" type="curve" smooth="yes"/>
      <point x="23" y="-81"/>
      <point x="15" y="-80"/>
      <point x="6" y="-79" type="curve"/>
    </contour>
  </outline>
</glyph>
<glyph name="nretroflex" format="2">
  <advance width="600"/>
  <unicode hex="0273"/>
  <outline>
    <contour>
      <point x="71" y="500" type="line"/>
      <point x="71" y="0" type="line"/>
      <point x="211" y="0" type="line"/>
      <point x="211" y="288" type="line" smooth="yes"/>
      <point x="211" y="348"/>
      <point x="249" y="391"/>
      <point x="311" y="391" type="curve" smooth="yes"/>
      <point x="375" y="391"/>
      <point x="400" y="346"/>
      <point x="400" y="295" type="curve" smooth="yes"/>
      <point x="400" y="0" type="line"/>
      <point x="540" y="0" type="line"/>
      <point x="540" y="334" type="line" smooth="yes"/>
      <point x="540" y="442"/>
      <point x="477" y="512"/>
      <point x="368" y="512" type="curve" smooth="yes"/>
      <point x="282" y="512"/>
      <point x="218" y="459"/>
      <point x="191" y="400" type="curve"/>
      <point x="211" y="402" type="line"/>
      <point x="211" y="500" type="line"/>
    </contour>
    <contour>
      <point x="605" y="-183" type="curve"/>
      <point x="605" y="-79" type="line"/>
      <point x="596" y="-80"/>
      <point x="588" y="-81"/>
      <point x="580" y="-81" type="curve" smooth="yes"/>
      <point x="551" y="-81"/>
      <point x="540" y="-68"/>
      <point x="540" y="-35" type="curve" smooth="yes"/>
      <point x="540" y="100" type="line"/>
      <point x="400" y="100" type="line"/>
      <point x="400" y="-71" type="line" smooth="yes"/>
      <point x="400" y="-164"/>
      <point x="476" y="-190"/>
      <point x="543" y="-190" type="curve" smooth="yes"/>
      <point x="566" y="-190"/>
      <point x="591" y="-187"/>
    </contour>
  </outline>
</glyph>
<glyph name="vturned" format="2">
  <advance width="600"/>
  <unicode hex="028C"/>
  <outline>
    <contour>
      <point x="377" y="500" type="line"/>
      <point x="222" y="500" type="line"/>
      <point x="21" y="0" type="line"/>
      <point x="169" y="0" type="line"/>
      <point x="343" y="461" type="line"/>
      <point x="255" y="461" type="line"/>
      <point x="431" y="0" type="line"/>
      <point x="579" y="0" type="line"/>
    </contour>
  </outline>
</glyph>
<glyph name="ringhalfrightmod" format="2">
  <advance width="600"/>
  <unicode hex="02BE"/>
  <outline>
    <contour>
      <point x="218" y="469" type="line" smooth="yes"/>
      <point x="260" y="469"/>
      <point x="289" y="495"/>
      <point x="289" y="535" type="curve" smooth="yes"/>
      <point x="289" y="575"/>
      <point x="260" y="601"/>
      <point x="218" y="601" type="curve" smooth="yes"/>
      <point x="200" y="601" type="line"/>
      <point x="200" y="700" type="line"/>
      <point x="218" y="700" type="line" smooth="yes"/>
      <point x="337" y="700"/>
      <point x="400" y="630"/>
      <point x="400" y="535" type="curve" smooth="yes"/>
      <point x="400" y="440"/>
      <point x="337" y="370"/>
      <point x="218" y="370" type="curve" smooth="yes"/>
      <point x="200" y="370" type="line"/>
      <point x="200" y="469" type="line"/>
    </contour>
  </outline>
</glyph>
<glyph name="ringhalfleftmod" format="2">
  <advance width="600"/>
  <unicode hex="02BF"/>
  <outline>
    <contour>
      <point x="382" y="469" type="line"/>
      <point x="340" y="469"/>
      <point x="311" y="495"/>
      <point x="311" y="535" type="curve" smooth="yes"/>
      <point x="311" y="575"/>
      <point x="340" y="601"/>
      <point x="382" y="601" type="curve" smooth="yes"/>
      <point x="400" y="601" type="line"/>
      <point x="400" y="700" type="line"/>
      <point x="382" y="700" type="line" smooth="yes"/>
      <point x="263" y="700"/>
      <point x="200" y="630"/>
      <point x="200" y="535" type="curve" smooth="yes"/>
      <point x="200" y="440"/>
      <point x="263" y="370"/>
      <point x="382" y="370" type="curve" smooth="yes"/>
      <point x="400" y="370" type="line"/>
      <point x="400" y="469" type="line"/>
    </contour>
  </outline>
</glyph>
<glyph name="gravecmb" format="2">
  <advance width="600"/>
  <unicode hex="0300"/>
  <outline>
    <contour>
      <point x="332" y="700" type="line"/>
      <point x="392" y="564" type="line"/>
      <point x="277" y="564" type="line"/>
      <point x="189" y="700" type="line"/>
    </contour>
  </outline>
</glyph>
<glyph name="acutecmb" format="2">
  <advance width="600"/>
  <unicode hex="0301"/>
  <outline>
    <contour>
      <point x="268" y="700" type="line"/>
      <point x="411" y="700" type="line"/>
      <point x="323" y="564" type="line"/>
      <point x="208" y="564" type="line"/>
    </contour>
  </outline>
</glyph>
<glyph name="circumflexcmb" format="2">
  <advance width="600"/>
  <unicode hex="0302"/>
  <outline>
    <contour>
      <point x="228" y="700" type="line"/>
      <point x="123" y="564" type="line"/>
      <point x="245" y="564" type="line"/>
      <point x="360" y="680" type="line"/>
      <point x="240" y="680" type="line"/>
      <point x="355" y="564" type="line"/>
      <point x="477" y="564" type="line"/>
      <point x="372" y="700" type="line"/>
    </contour>
  </outline>
</glyph>
<glyph name="tildecmb" format="2">
  <advance width="600"/>
  <unicode hex="0303"/>
  <outline>
    <contour>
      <point x="237" y="696" type="curve" smooth="yes"/>
      <point x="180" y="696"/>
      <point x="143" y="646"/>
      <point x="140" y="564" type="curve"/>
      <point x="233" y="564" type="line"/>
      <point x="235" y="584"/>
      <point x="240" y="598"/>
      <point x="255" y="598" type="curve" smooth="yes"/>
      <point x="277" y="598"/>
      <point x="323" y="567"/>
      <point x="363" y="567" type="curve" smooth="yes"/>
      <point x="420" y="567"/>
      <point x="457" y="617"/>
      <point x="460" y="699" type="curve"/>
      <point x="366" y="699" type="line"/>
      <point x="364" y="679"/>
      <point x="360" y="665"/>
      <point x="345" y="665" type="curve" smooth="yes"/>
      <point x="323" y="665"/>
      <point x="277" y="696"/>
    </contour>
  </outline>
</glyph>
<glyph name="macroncmb" format="2">
  <advance width="600"/>
  <unicode hex="0304"/>
  <outline>
    <contour>
      <point x="145" y="583" type="line"/>
      <point x="455" y="583" type="line"/>
      <point x="455" y="693" type="line"/>
      <point x="145" y="693" type="line"/>
    </contour>
  </outline>
</glyph>
<glyph name="brevecmb" format="2">
  <advance width="600"/>
  <unicode hex="0306"/>
  <outline>
    <contour>
      <point x="143" y="700" type="line"/>
      <point x="143" y="629"/>
      <point x="196" y="558"/>
      <point x="303" y="558" type="curve" smooth="yes"/>
      <point x="410" y="558"/>
      <point x="463" y="629"/>
      <point x="463" y="700" type="curve"/>
      <point x="353" y="700" type="line"/>
      <point x="353" y="670"/>
      <point x="335" y="648"/>
      <point x="303" y="648" type="curve" smooth="yes"/>
      <point x="271" y="648"/>
      <point x="253" y="670"/>
      <point x="253" y="700" type="curve"/>
    </contour>
  </outline>
</glyph>
<glyph name="dieresiscmb" format="2">
  <advance width="600"/>
  <unicode hex="0308"/>
  <outline>
    <contour>
      <point x="129" y="700" type="line"/>
      <point x="129" y="560" type="line"/>
      <point x="274" y="560" type="line"/>
      <point x="274" y="700" type="line"/>
    </contour>
    <contour>
      <point x="326" y="700" type="line"/>
      <point x="326" y="560" type="line"/>
      <point x="471" y="560" type="line"/>
      <point x="471" y="700" type="line"/>
    </contour>
  </outline>
</glyph>
<glyph name="hookabovecmb" format="2">
  <advance width="600"/>
  <unicode hex="0309"/>
  <outline>
    <contour>
      <point x="325" y="657" type="curve" smooth="yes"/>
      <point x="325" y="631"/>
      <point x="300" y="614"/>
      <point x="256" y="604" type="curve"/>
      <point x="308" y="544" type="line"/>
      <point x="360" y="557"/>
      <point x="409" y="595"/>
      <point x="409" y="660" type="curve" smooth="yes"/>
      <point x="409" y="719"/>
      <point x="368" y="769"/>
      <point x="300" y="769" type="curve" smooth="yes"/>
      <point x="251" y="769"/>
      <point x="208" y="742"/>
      <point x="186" y="701" type="curve"/>
      <point x="245" y="655" type="line"/>
      <point x="253" y="672"/>
      <point x="270" y="688"/>
      <point x="292" y="688" type="curve" smooth="yes"/>
      <point x="311" y="688"/>
      <point x="325" y="676"/>
    </contour>
  </outline>
</glyph>
<glyph name="ringabovecmb" format="2">
  <advance width="600"/>
  <unicode hex="030A"/>
  <outline>
    <contour>
      <point x="410" y="666" type="curve" smooth="yes"/>
      <point x="410" y="726"/>
      <point x="362" y="774"/>
      <point x="301" y="774" type="curve" smooth="yes"/>
      <point x="240" y="774"/>
      <point x="192" y="726"/>
      <point x="192" y="666" type="curve" smooth="yes"/>
      <point x="192" y="606"/>
      <point x="240" y="558"/>
      <point x="301" y="558" type="curve" smooth="yes"/>
      <point x="362" y="558"/>
      <point x="410" y="606"/>
    </contour>
    <contour>
      <point x="336" y="666" type="curve" smooth="yes"/>
      <point x="336" y="647"/>
      <point x="322" y="630"/>
      <point x="301" y="630" type="curve" smooth="yes"/>
      <point x="280" y="630"/>
      <point x="266" y="647"/>
      <point x="266" y="666" type="curve" smooth="yes"/>
      <point x="266" y="685"/>
      <point x="280" y="702"/>
      <point x="301" y="702" type="curve" smooth="yes"/>
      <point x="322" y="702"/>
      <point x="336" y="685"/>
    </contour>
  </outline>
</glyph>
<glyph name="hungarumlautcmb" format="2">
  <advance width="600"/>
  <unicode hex="030B"/>
  <guideline x="265" y="570" angle="90" name="center" identifier="qqE52RWXT3"/>
  <outline>
    <contour>
      <point x="176" y="700" type="line"/>
      <point x="127" y="564" type="line"/>
      <point x="240" y="564" type="line"/>
      <point x="311" y="700" type="line"/>
    </contour>
    <contour>
      <point x="340" y="700" type="line"/>
      <point x="291" y="564" type="line"/>
      <point x="404" y="564" type="line"/>
      <point x="475" y="700" type="line"/>
    </contour>
  </outline>
</glyph>
<glyph name="caroncmb" format="2">
  <advance width="600"/>
  <unicode hex="030C"/>
  <outline>
    <contour>
      <point x="228" y="564" type="line"/>
      <point x="372" y="564" type="line"/>
      <point x="477" y="700" type="line"/>
      <point x="355" y="700" type="line"/>
      <point x="240" y="584" type="line"/>
      <point x="360" y="584" type="line"/>
      <point x="245" y="700" type="line"/>
      <point x="123" y="700" type="line"/>
    </contour>
  </outline>
</glyph>
<glyph name="commaturnedabovecmb" format="2">
  <advance width="600"/>
  <unicode hex="0312"/>
  <outline>
    <contour>
      <point x="381" y="560" type="line"/>
      <point x="381" y="700" type="line"/>
      <point x="296" y="700" type="line"/>
      <point x="296" y="702" type="line" smooth="yes"/>
      <point x="296" y="741"/>
      <point x="307" y="772"/>
      <point x="389" y="772" type="curve"/>
      <point x="389" y="836" type="line"/>
      <point x="261" y="836"/>
      <point x="221" y="771"/>
      <point x="221" y="689" type="curve" smooth="yes"/>
      <point x="221" y="560" type="line"/>
    </contour>
  </outline>
</glyph>
<glyph name="horncmb" format="2">
  <advance width="600"/>
  <unicode hex="031B"/>
  <outline>
    <contour>
      <point x="311" y="619" type="line"/>
      <point x="318" y="595"/>
      <point x="324" y="569"/>
      <point x="324" y="544" type="curve" smooth="yes"/>
      <point x="324" y="515"/>
      <point x="308" y="500"/>
      <point x="274" y="500" type="curve" smooth="yes"/>
      <point x="224" y="500" type="line"/>
      <point x="224" y="402" type="line"/>
      <point x="294" y="402" type="line" smooth="yes"/>
      <point x="401" y="402"/>
      <point x="433" y="447"/>
      <point x="433" y="527" type="curve" smooth="yes"/>
      <point x="433" y="561"/>
      <point x="425" y="592"/>
      <point x="413" y="619" type="curve"/>
    </contour>
  </outline>
</glyph>
<glyph name="dotbelowcmb" format="2">
  <advance width="600"/>
  <unicode hex="0323"/>
  <outline>
    <contour>
      <point x="221" y="-60" type="line"/>
      <point x="221" y="-200" type="line"/>
      <point x="381" y="-200" type="line"/>
      <point x="381" y="-60" type="line"/>
    </contour>
  </outline>
</glyph>
<glyph name="commaaccentbelowcmb" format="2">
  <advance width="600"/>
  <unicode hex="0326"/>
  <outline>
    <contour>
      <point x="220" y="-60" type="line"/>
      <point x="220" y="-200" type="line"/>
      <point x="305" y="-200" type="line"/>
      <point x="305" y="-202" type="line" smooth="yes"/>
      <point x="305" y="-241"/>
      <point x="294" y="-272"/>
      <point x="212" y="-272" type="curve"/>
      <point x="212" y="-336" type="line"/>
      <point x="340" y="-336"/>
      <point x="380" y="-271"/>
      <point x="380" y="-189" type="curve" smooth="yes"/>
      <point x="380" y="-60" type="line"/>
    </contour>
  </outline>
</glyph>
<glyph name="cedillacmb" format="2">
  <advance width="600"/>
  <unicode hex="0327"/>
  <outline>
    <contour>
      <point x="160" y="-215" type="line"/>
      <point x="199" y="-229"/>
      <point x="234" y="-236"/>
      <point x="282" y="-236" type="curve" smooth="yes"/>
      <point x="377" y="-236"/>
      <point x="437" y="-188"/>
      <point x="437" y="-125" type="curve" smooth="yes"/>
      <point x="437" y="-64"/>
      <point x="382" y="-38"/>
      <point x="323" y="-38" type="curve" smooth="yes"/>
      <point x="303" y="-38"/>
      <point x="284" y="-41"/>
      <point x="258" y="-52" type="curve"/>
      <point x="292" y="-65" type="line"/>
      <point x="344" y="11" type="line"/>
      <point x="262" y="11" type="line"/>
      <point x="205" y="-74" type="line"/>
      <point x="230" y="-116" type="line"/>
      <point x="255" y="-111"/>
      <point x="269" y="-109"/>
      <point x="284" y="-109" type="curve" smooth="yes"/>
      <point x="312" y="-109"/>
      <point x="327" y="-115"/>
      <point x="327" y="-130" type="curve" smooth="yes"/>
      <point x="327" y="-147"/>
      <point x="308" y="-157"/>
      <point x="274" y="-157" type="curve" smooth="yes"/>
      <point x="243" y="-157"/>
      <point x="213" y="-152"/>
      <point x="170" y="-139" type="curve"/>
    </contour>
  </outline>
</glyph>
<glyph name="ogonekcmb" format="2">
  <advance width="600"/>
  <unicode hex="0328"/>
  <outline>
    <contour>
      <point x="319" y="-203" type="curve" smooth="yes"/>
      <point x="342" y="-203"/>
      <point x="377" y="-198"/>
      <point x="402" y="-188" type="curve"/>
      <point x="396" y="-106" type="line"/>
      <point x="378" y="-111"/>
      <point x="364" y="-114"/>
      <point x="348" y="-114" type="curve" smooth="yes"/>
      <point x="318" y="-114"/>
      <point x="303" y="-104"/>
      <point x="303" y="-85" type="curve" smooth="yes"/>
      <point x="303" y="-61"/>
      <point x="326" y="-37"/>
      <point x="385" y="0" type="curve"/>
      <point x="272" y="0" type="line"/>
      <point x="218" y="-35"/>
      <point x="190" y="-76"/>
      <point x="190" y="-118" type="curve" smooth="yes"/>
      <point x="190" y="-171"/>
      <point x="231" y="-203"/>
    </contour>
  </outline>
</glyph>
<glyph name="overlaystrokeshortcmb" format="2">
  <advance width="600"/>
  <unicode hex="0335"/>
  <outline>
    <contour>
      <point x="117" y="296" type="line"/>
      <point x="482" y="296" type="line"/>
      <point x="482" y="420" type="line"/>
      <point x="117" y="420" type="line"/>
    </contour>
  </outline>
</glyph>
<glyph name="rlinebelow" format="2">
  <advance width="600"/>
  <unicode hex="1E5F"/>
  <outline>
    <contour>
      <point x="17" y="-69" type="line"/>
      <point x="327" y="-69" type="line"/>
      <point x="327" y="-179" type="line"/>
      <point x="17" y="-179" type="line"/>
    </contour>
    <component base="r"/>
  </outline>
</glyph>
<glyph name="Germandbls" format="2">
  <advance width="600"/>
  <unicode hex="1E9E"/>
  <outline>
    <contour>
      <point x="56" y="700" type="line"/>
      <point x="56" y="0" type="line"/>
      <point x="207" y="0" type="line"/>
      <point x="207" y="700" type="line"/>
    </contour>
    <contour>
      <point x="553" y="577" type="line"/>
      <point x="553" y="700" type="line"/>
      <point x="105" y="700" type="line"/>
      <point x="105" y="577" type="line"/>
      <point x="474" y="577" type="line"/>
      <point x="428" y="608" type="line"/>
      <point x="260" y="418" type="line"/>
      <point x="260" y="314" type="line"/>
      <point x="320" y="314" type="line" smooth="yes"/>
      <point x="389" y="314"/>
      <point x="427" y="276"/>
      <point x="427" y="216" type="curve" smooth="yes"/>
      <point x="427" y="147"/>
      <point x="387" y="108"/>
      <point x="315" y="108" type="curve" smooth="yes"/>
      <point x="294" y="108"/>
      <point x="272" y="111"/>
      <point x="252" y="116" type="curve"/>
      <point x="252" y="2" type="line"/>
      <point x="276" y="-6"/>
      <point x="307" y="-12"/>
      <point x="347" y="-12" type="curve" smooth="yes"/>
      <point x="493" y="-12"/>
      <point x="577" y="70"/>
      <point x="577" y="221" type="curve" smooth="yes"/>
      <point x="577" y="345"/>
      <point x="496" y="421"/>
      <point x="367" y="421" type="curve" smooth="yes"/>
      <point x="305" y="421" type="line"/>
      <point x="388" y="404" type="line"/>
    </contour>
  </outline>
</glyph>
<glyph name="endash" format="2">
  <advance width="600"/>
  <unicode hex="2013"/>
  <outline>
    <contour>
      <point x="62" y="238" type="line"/>
      <point x="538" y="238" type="line"/>
      <point x="538" y="354" type="line"/>
      <point x="62" y="354" type="line"/>
    </contour>
  </outline>
</glyph>
<glyph name="emdash" format="2">
  <advance width="600"/>
  <unicode hex="2014"/>
  <outline>
    <contour>
      <point x="30" y="238" type="line"/>
      <point x="570" y="238" type="line"/>
      <point x="570" y="354" type="line"/>
      <point x="30" y="354" type="line"/>
    </contour>
  </outline>
</glyph>
<glyph name="quotedblright" format="2">
  <advance width="600"/>
  <unicode hex="201D"/>
  <outline>
    <contour>
      <point x="127" y="700" type="line"/>
      <point x="127" y="521" type="line"/>
      <point x="206" y="521" type="line"/>
      <point x="206" y="508" type="line" smooth="yes"/>
      <point x="206" y="456"/>
      <point x="175" y="421"/>
      <point x="105" y="421" type="curve"/>
      <point x="105" y="359" type="line"/>
      <point x="238" y="359"/>
      <point x="278" y="454"/>
      <point x="278" y="509" type="curve" smooth="yes"/>
      <point x="278" y="700" type="line"/>
    </contour>
    <contour>
      <point x="323" y="700" type="line"/>
      <point x="323" y="521" type="line"/>
      <point x="402" y="521" type="line"/>
      <point x="402" y="508" type="line" smooth="yes"/>
      <point x="402" y="456"/>
      <point x="371" y="421"/>
      <point x="301" y="421" type="curve"/>
      <point x="301" y="359" type="line"/>
      <point x="434" y="359"/>
      <point x="474" y="454"/>
      <point x="474" y="509" type="curve" smooth="yes"/>
      <point x="474" y="700" type="line"/>
    </contour>
  </outline>
</glyph>
<glyph name="dagger" format="2">
  <advance width="600"/>
  <unicode hex="2020"/>
  <outline>
    <contour>
      <point x="244" y="193" type="line"/>
      <point x="356" y="193" type="line"/>
      <point x="356" y="700" type="line"/>
      <point x="244" y="700" type="line"/>
    </contour>
    <contour>
      <point x="106" y="569" type="line"/>
      <point x="106" y="477" type="line"/>
      <point x="494" y="477" type="line"/>
      <point x="494" y="569" type="line"/>
    </contour>
  </outline>
</glyph>
<glyph name="daggerdbl" format="2">
  <advance width="600"/>
  <unicode hex="2021"/>
  <outline>
    <contour>
      <point x="244" y="193" type="line"/>
      <point x="356" y="193" type="line"/>
      <point x="356" y="700" type="line"/>
      <point x="244" y="700" type="line"/>
    </contour>
    <contour>
      <point x="106" y="588" type="line"/>
      <point x="106" y="496" type="line"/>
      <point x="494" y="496" type="line"/>
      <point x="494" y="588" type="line"/>
    </contour>
    <contour>
      <point x="106" y="409" type="line"/>
      <point x="106" y="317" type="line"/>
      <point x="494" y="317" type="line"/>
      <point x="494" y="409" type="line"/>
    </contour>
  </outline>
</glyph>
<glyph name="ellipsis" format="2">
  <advance width="600"/>
  <unicode hex="2026"/>
  <outline>
    <contour>
      <point x="40" y="153" type="line"/>
      <point x="40" y="0" type="line"/>
      <point x="160" y="0" type="line"/>
      <point x="160" y="153" type="line"/>
    </contour>
    <contour>
      <point x="240" y="153" type="line"/>
      <point x="240" y="0" type="line"/>
      <point x="360" y="0" type="line"/>
      <point x="360" y="153" type="line"/>
    </contour>
    <contour>
      <point x="440" y="153" type="line"/>
      <point x="440" y="0" type="line"/>
      <point x="560" y="0" type="line"/>
      <point x="560" y="153" type="line"/>
    </contour>
  </outline>
</glyph>
<glyph name="perthousand" format="2">
  <advance width="600"/>
  <unicode hex="2030"/>
  <outline>
    <contour>
      <point x="18" y="178" type="line"/>
      <point x="582" y="544" type="line"/>
      <point x="582" y="632" type="line"/>
      <point x="18" y="266" type="line"/>
    </contour>
    <contour>
      <point x="16" y="549" type="curve" smooth="yes"/>
      <point x="16" y="446"/>
      <point x="76" y="391"/>
      <point x="149" y="391" type="curve" smooth="yes"/>
      <point x="220" y="391"/>
      <point x="280" y="446"/>
      <point x="280" y="549" type="curve" smooth="yes"/>
      <point x="280" y="650"/>
      <point x="220" y="705"/>
      <point x="149" y="705" type="curve" smooth="yes"/>
      <point x="76" y="705"/>
      <point x="16" y="650"/>
    </contour>
    <contour>
      <point x="106" y="549" type="curve" smooth="yes"/>
      <point x="106" y="600"/>
      <point x="125" y="623"/>
      <point x="149" y="623" type="curve" smooth="yes"/>
      <point x="171" y="623"/>
      <point x="190" y="600"/>
      <point x="190" y="549" type="curve" smooth="yes"/>
      <point x="190" y="496"/>
      <point x="171" y="473"/>
      <point x="149" y="473" type="curve" smooth="yes"/>
      <point x="125" y="473"/>
      <point x="106" y="496"/>
    </contour>
    <contour>
      <point x="109" y="133" type="curve" smooth="yes"/>
      <point x="109" y="43"/>
      <point x="162" y="-5"/>
      <point x="226" y="-5" type="curve" smooth="yes"/>
      <point x="290" y="-5"/>
      <point x="345" y="43"/>
      <point x="345" y="133" type="curve" smooth="yes"/>
      <point x="345" y="223"/>
      <point x="290" y="271"/>
      <point x="226" y="271" type="curve" smooth="yes"/>
      <point x="162" y="271"/>
      <point x="109" y="223"/>
    </contour>
    <contour>
      <point x="197" y="133" type="curve" smooth="yes"/>
      <point x="197" y="176"/>
      <point x="211" y="193"/>
      <point x="226" y="193" type="curve" smooth="yes"/>
      <point x="242" y="193"/>
      <point x="257" y="175"/>
      <point x="257" y="133" type="curve" smooth="yes"/>
      <point x="257" y="91"/>
      <point x="242" y="73"/>
      <point x="226" y="73" type="curve" smooth="yes"/>
      <point x="211" y="73"/>
      <point x="197" y="90"/>
    </contour>
    <contour>
      <point x="358" y="133" type="curve" smooth="yes"/>
      <point x="358" y="43"/>
      <point x="413" y="-5"/>
      <point x="476" y="-5" type="curve" smooth="yes"/>
      <point x="539" y="-5"/>
      <point x="594" y="43"/>
      <point x="594" y="133" type="curve" smooth="yes"/>
      <point x="594" y="223"/>
      <point x="539" y="271"/>
      <point x="476" y="271" type="curve" smooth="yes"/>
      <point x="413" y="271"/>
      <point x="358" y="223"/>
    </contour>
    <contour>
      <point x="446" y="133" type="curve" smooth="yes"/>
      <point x="446" y="175"/>
      <point x="461" y="193"/>
      <point x="476" y="193" type="curve" smooth="yes"/>
      <point x="491" y="193"/>
      <point x="506" y="175"/>
      <point x="506" y="133" type="curve" smooth="yes"/>
      <point x="506" y="91"/>
      <point x="491" y="73"/>
      <point x="476" y="73" type="curve" smooth="yes"/>
      <point x="461" y="73"/>
      <point x="446" y="91"/>
    </contour>
  </outline>
</glyph>
<glyph name="minute" format="2">
  <advance width="600"/>
  <unicode hex="2032"/>
  <outline>
    <contour>
      <point x="247" y="700" type="line"/>
      <point x="189" y="349" type="line"/>
      <point x="301" y="349" type="line"/>
      <point x="411" y="700" type="line"/>
    </contour>
  </outline>
</glyph>
<glyph name="second" format="2">
  <advance width="600"/>
  <unicode hex="2033"/>
  <outline>
    <contour>
      <point x="145" y="700" type="line"/>
      <point x="87" y="349" type="line"/>
      <point x="199" y="349" type="line"/>
      <point x="309" y="700" type="line"/>
    </contour>
    <contour>
      <point x="348" y="700" type="line"/>
      <point x="290" y="349" type="line"/>
      <point x="402" y="349" type="line"/>
      <point x="512" y="700" type="line"/>
    </contour>
  </outline>
</glyph>
<glyph name="guilsinglleft" format="2">
  <advance width="600"/>
  <unicode hex="2039"/>
  <outline>
    <contour>
      <point x="474" y="450" type="line"/>
      <point x="324" y="450" type="line"/>
      <point x="161" y="276" type="line"/>
      <point x="161" y="234" type="line"/>
      <point x="324" y="60" type="line"/>
      <point x="474" y="60" type="line"/>
      <point x="265" y="280" type="line"/>
      <point x="265" y="230" type="line"/>
    </contour>
  </outline>
</glyph>
<glyph name="guilsinglright" format="2">
  <advance width="600"/>
  <unicode hex="203A"/>
  <outline>
    <contour>
      <point x="126" y="60" type="line"/>
      <point x="276" y="60" type="line"/>
      <point x="439" y="234" type="line"/>
      <point x="439" y="276" type="line"/>
      <point x="276" y="450" type="line"/>
      <point x="126" y="450" type="line"/>
      <point x="335" y="230" type="line"/>
      <point x="335" y="280" type="line"/>
    </contour>
  </outline>
</glyph>
<glyph name="interrobang" format="2">
  <advance width="600"/>
  <unicode hex="203D"/>
  <outline>
    <contour>
      <point x="253" y="217" type="line"/>
      <point x="359" y="217" type="line"/>
      <point x="359" y="235" type="line" smooth="yes"/>
      <point x="359" y="282"/>
      <point x="377" y="308"/>
      <point x="424" y="343" type="curve" smooth="yes"/>
      <point x="488" y="391"/>
      <point x="539" y="432"/>
      <point x="539" y="523" type="curve" smooth="yes"/>
      <point x="539" y="635"/>
      <point x="445" y="712"/>
      <point x="302" y="712" type="curve" smooth="yes"/>
      <point x="166" y="712"/>
      <point x="74" y="635"/>
      <point x="55" y="517" type="curve"/>
      <point x="177" y="488" type="line"/>
      <point x="184" y="550"/>
      <point x="218" y="603"/>
      <point x="293" y="603" type="curve" smooth="yes"/>
      <point x="366" y="603"/>
      <point x="405" y="565"/>
      <point x="405" y="518" type="curve" smooth="yes"/>
      <point x="405" y="483"/>
      <point x="393" y="459"/>
      <point x="330" y="411" type="curve" smooth="yes"/>
      <point x="268" y="363"/>
      <point x="253" y="324"/>
      <point x="253" y="243" type="curve" smooth="yes"/>
    </contour>
    <contour>
      <point x="353" y="680" type="line"/>
      <point x="225" y="680" type="line"/>
      <point x="240" y="217" type="line"/>
      <point x="328" y="217" type="line"/>
    </contour>
    <contour>
      <point x="223" y="149" type="line"/>
      <point x="223" y="0" type="line"/>
      <point x="370" y="0" type="line"/>
      <point x="370" y="149" type="line"/>
    </contour>
  </outline>
</glyph>
<glyph name="fraction" format="2">
  <advance width="600"/>
  <unicode hex="2044"/>
  <outline>
    <contour>
      <point x="24" y="0" type="line"/>
      <point x="126" y="0" type="line"/>
      <point x="576" y="700" type="line"/>
      <point x="474" y="700" type="line"/>
    </contour>
  </outline>
</glyph>
<glyph name="colonmonetary" format="2">
  <advance width="600"/>
  <unicode hex="20A1"/>
  <outline>
    <contour>
      <point x="558" y="490" type="line"/>
      <point x="535" y="620"/>
      <point x="448" y="712"/>
      <point x="318" y="712" type="curve" smooth="yes"/>
      <point x="140" y="712"/>
      <point x="44" y="569"/>
      <point x="44" y="350" type="curve" smooth="yes"/>
      <point x="44" y="131"/>
      <point x="140" y="-12"/>
      <point x="318" y="-12" type="curve" smooth="yes"/>
      <point x="448" y="-12"/>
      <point x="538" y="81"/>
      <point x="559" y="212" type="curve"/>
      <point x="451" y="236" type="line"/>
      <point x="433" y="141"/>
      <point x="384" y="102"/>
      <point x="318" y="102" type="curve" smooth="yes"/>
      <point x="233" y="102"/>
      <point x="173" y="174"/>
      <point x="173" y="350" type="curve" smooth="yes"/>
      <point x="173" y="526"/>
      <point x="233" y="598"/>
      <point x="318" y="598" type="curve" smooth="yes"/>
      <point x="384" y="598"/>
      <point x="432" y="562"/>
      <point x="450" y="466" type="curve"/>
    </contour>
    <contour>
      <point x="165" y="-112" type="line"/>
      <point x="244" y="-112" type="line"/>
      <point x="327" y="797" type="line"/>
      <point x="248" y="797" type="line"/>
    </contour>
    <contour>
      <point x="274" y="-112" type="line"/>
      <point x="353" y="-112" type="line"/>
      <point x="436" y="797" type="line"/>
      <point x="357" y="797" type="line"/>
    </contour>
  </outline>
</glyph>
<glyph name="newsheqel" format="2">
  <advance width="600"/>
  <unicode hex="20AA"/>
  <outline>
    <contour>
      <point x="251" y="700" type="line"/>
      <point x="359" y="700"/>
      <point x="416" y="650"/>
      <point x="416" y="533" type="curve" smooth="yes"/>
      <point x="416" y="136" type="line"/>
      <point x="316" y="136" type="line"/>
      <point x="316" y="532" type="line" smooth="yes"/>
      <point x="316" y="571"/>
      <point x="297" y="601"/>
      <point x="249" y="601" type="curve" smooth="yes"/>
      <point x="140" y="601" type="line"/>
      <point x="140" y="0" type="line"/>
      <point x="40" y="0" type="line"/>
      <point x="40" y="700" type="line"/>
    </contour>
    <contour>
      <point x="343" y="0" type="line"/>
      <point x="235" y="0"/>
      <point x="178" y="50"/>
      <point x="178" y="167" type="curve" smooth="yes"/>
      <point x="178" y="564" type="line"/>
      <point x="278" y="564" type="line"/>
      <point x="278" y="168" type="line" smooth="yes"/>
      <point x="278" y="129"/>
      <point x="297" y="99"/>
      <point x="345" y="99" type="curve" smooth="yes"/>
      <point x="454" y="99" type="line"/>
      <point x="454" y="700" type="line"/>
      <point x="554" y="700" type="line"/>
      <point x="554" y="0" type="line"/>
    </contour>
  </outline>
</glyph>
<glyph name="turkishlira" format="2">
  <advance width="600"/>
  <unicode hex="20BA"/>
  <outline>
    <contour>
      <point x="28" y="266" type="line"/>
      <point x="402" y="468" type="line"/>
      <point x="402" y="568" type="line"/>
      <point x="28" y="366" type="line"/>
    </contour>
    <contour>
      <point x="28" y="114" type="line"/>
      <point x="402" y="316" type="line"/>
      <point x="402" y="416" type="line"/>
      <point x="28" y="214" type="line"/>
    </contour>
    <contour>
      <point x="94" y="700" type="line"/>
      <point x="94" y="0" type="line"/>
      <point x="231" y="0" type="line"/>
      <point x="231" y="700" type="line"/>
    </contour>
    <contour>
      <point x="155" y="0" type="line"/>
      <point x="335" y="0" type="line" smooth="yes"/>
      <point x="495" y="0"/>
      <point x="565" y="90"/>
      <point x="586" y="239" type="curve"/>
      <point x="460" y="270" type="line"/>
      <point x="442" y="166"/>
      <point x="404" y="114"/>
      <point x="302" y="114" type="curve" smooth="yes"/>
      <point x="155" y="114" type="line"/>
    </contour>
  </outline>
</glyph>
<glyph name="trademark" format="2">
  <advance width="600"/>
  <unicode hex="2122"/>
  <outline>
    <contour>
      <point x="89" y="678" type="line"/>
      <point x="173" y="678" type="line"/>
      <point x="173" y="357" type="line"/>
      <point x="89" y="357" type="line"/>
    </contour>
    <contour>
      <point x="19" y="622" type="line"/>
      <point x="19" y="700" type="line"/>
      <point x="243" y="700" type="line"/>
      <point x="243" y="622" type="line"/>
    </contour>
    <contour>
      <point x="330" y="677" type="line"/>
      <point x="404" y="427" type="line"/>
      <point x="429" y="427" type="line"/>
      <point x="503" y="677" type="line"/>
      <point x="484" y="677" type="line"/>
      <point x="484" y="357" type="line"/>
      <point x="562" y="357" type="line"/>
      <point x="562" y="700" type="line"/>
      <point x="452" y="700" type="line"/>
      <point x="408" y="549" type="line"/>
      <point x="429" y="549" type="line"/>
      <point x="385" y="700" type="line"/>
      <point x="271" y="700" type="line"/>
      <point x="271" y="357" type="line"/>
      <point x="349" y="357" type="line"/>
      <point x="349" y="677" type="line"/>
    </contour>
  </outline>
</glyph>
<glyph name="onetenth" format="2">
  <advance width="600"/>
  <unicode hex="2152"/>
  <outline>
    <contour>
      <point x="276" y="274" type="line"/>
      <point x="276" y="226"/>
      <point x="263" y="211"/>
      <point x="211" y="211" type="curve"/>
      <point x="211" y="153" type="line"/>
      <point x="314" y="153" type="line"/>
      <point x="270" y="205" type="line"/>
      <point x="270" y="0" type="line"/>
      <point x="347" y="0" type="line"/>
      <point x="347" y="274" type="line"/>
    </contour>
    <contour>
      <point x="482" y="277" type="curve" smooth="yes"/>
      <point x="411" y="277"/>
      <point x="367" y="223"/>
      <point x="367" y="135" type="curve" smooth="yes"/>
      <point x="367" y="49"/>
      <point x="411" y="-5"/>
      <point x="482" y="-5" type="curve" smooth="yes"/>
      <point x="552" y="-5"/>
      <point x="598" y="49"/>
      <point x="598" y="135" type="curve" smooth="yes"/>
      <point x="598" y="223"/>
      <point x="552" y="277"/>
    </contour>
    <contour>
      <point x="483" y="59" type="curve" smooth="yes"/>
      <point x="459" y="59"/>
      <point x="445" y="84"/>
      <point x="445" y="135" type="curve" smooth="yes"/>
      <point x="445" y="188"/>
      <point x="459" y="213"/>
      <point x="483" y="213" type="curve" smooth="yes"/>
      <point x="506" y="213"/>
      <point x="520" y="188"/>
      <point x="520" y="135" type="curve" smooth="yes"/>
      <point x="520" y="84"/>
      <point x="506" y="59"/>
    </contour>
    <contour>
      <point x="88" y="700" type="line"/>
      <point x="88" y="646"/>
      <point x="73" y="629"/>
      <point x="13" y="629" type="curve"/>
      <point x="13" y="561" type="line"/>
      <point x="131" y="561" type="line"/>
      <point x="81" y="621" type="line"/>
      <point x="81" y="386" type="line"/>
      <point x="169" y="386" type="line"/>
      <point x="169" y="700" type="line"/>
    </contour>
    <contour>
      <point x="1" y="0" type="line"/>
      <point x="90" y="0" type="line"/>
      <point x="431" y="700" type="line"/>
      <point x="342" y="700" type="line"/>
    </contour>
  </outline>
</glyph>
<glyph name="notequal" format="2">
  <advance width="600"/>
  <unicode hex="2260"/>
  <outline>
    <contour>
      <point x="80" y="70" type="line"/>
      <point x="204" y="70" type="line"/>
      <point x="520" y="610" type="line"/>
      <point x="396" y="610" type="line"/>
    </contour>
    <component base="equal" identifier="692D93CD"/>
  </outline>
</glyph>
<glyph name="circlewhite" format="2">
  <advance width="600"/>
  <unicode hex="25CB"/>
  <outline>
    <contour>
      <point x="300" y="65" type="curve" smooth="yes"/>
      <point x="459" y="65"/>
      <point x="581" y="189"/>
      <point x="581" y="350" type="curve" smooth="yes"/>
      <point x="581" y="511"/>
      <point x="459" y="635"/>
      <point x="300" y="635" type="curve" smooth="yes"/>
      <point x="141" y="635"/>
      <point x="19" y="511"/>
      <point x="19" y="350" type="curve" smooth="yes"/>
      <point x="19" y="189"/>
      <point x="141" y="65"/>
    </contour>
    <contour>
      <point x="300" y="147" type="curve" smooth="yes"/>
      <point x="188" y="147"/>
      <point x="107" y="232"/>
      <point x="107" y="350" type="curve" smooth="yes"/>
      <point x="107" y="468"/>
      <point x="188" y="553"/>
      <point x="300" y="553" type="curve" smooth="yes"/>
      <point x="412" y="553"/>
      <point x="493" y="468"/>
      <point x="493" y="350" type="curve" smooth="yes"/>
      <point x="493" y="232"/>
      <point x="412" y="147"/>
    </contour>
  </outline>
</glyph>
<glyph name="onesanscircled" format="2">
  <advance width="600"/>
  <unicode hex="2780"/>
  <outline>
    <contour>
      <point x="274" y="500" type="line"/>
      <point x="274" y="448"/>
      <point x="259" y="432"/>
      <point x="203" y="432" type="curve"/>
      <point x="203" y="368" type="line"/>
      <point x="267" y="368" type="line"/>
      <point x="267" y="200" type="line"/>
      <point x="351" y="200" type="line"/>
      <point x="351" y="500" type="line"/>
    </contour>
    <component base="circlewhite" identifier="D17ABD0E"/>
  </outline>
</glyph>
<glyph name="twosanscircled" format="2">
  <advance width="600"/>
  <unicode hex="2781"/>
  <outline>
    <contour>
      <point x="408" y="200" type="line"/>
      <point x="408" y="270" type="line"/>
      <point x="305" y="270" type="line"/>
      <point x="367" y="318"/>
      <point x="408" y="355"/>
      <point x="408" y="406" type="curve" smooth="yes"/>
      <point x="408" y="451"/>
      <point x="381" y="504"/>
      <point x="300" y="504" type="curve" smooth="yes"/>
      <point x="223" y="504"/>
      <point x="190" y="456"/>
      <point x="190" y="410" type="curve" smooth="yes"/>
      <point x="190" y="396"/>
      <point x="193" y="384"/>
      <point x="202" y="369" type="curve"/>
      <point x="280" y="379" type="line"/>
      <point x="274" y="389"/>
      <point x="273" y="398"/>
      <point x="273" y="405" type="curve" smooth="yes"/>
      <point x="273" y="429"/>
      <point x="283" y="438"/>
      <point x="298" y="438" type="curve" smooth="yes"/>
      <point x="313" y="438"/>
      <point x="322" y="430"/>
      <point x="322" y="405" type="curve" smooth="yes"/>
      <point x="322" y="373"/>
      <point x="290" y="349"/>
      <point x="194" y="268" type="curve"/>
      <point x="194" y="200" type="line"/>
    </contour>
    <component base="circlewhite" identifier="EDD26841"/>
  </outline>
</glyph>
<glyph name="threesanscircled" format="2">
  <advance width="600"/>
  <unicode hex="2782"/>
  <outline>
    <contour>
      <point x="182" y="306" type="line"/>
      <point x="177" y="232"/>
      <point x="230" y="196"/>
      <point x="301" y="196" type="curve" smooth="yes"/>
      <point x="377" y="196"/>
      <point x="417" y="235"/>
      <point x="417" y="288" type="curve" smooth="yes"/>
      <point x="417" y="326"/>
      <point x="397" y="347"/>
      <point x="366" y="357" type="curve"/>
      <point x="388" y="365"/>
      <point x="409" y="383"/>
      <point x="409" y="418" type="curve" smooth="yes"/>
      <point x="409" y="462"/>
      <point x="378" y="504"/>
      <point x="300" y="504" type="curve" smooth="yes"/>
      <point x="229" y="504"/>
      <point x="179" y="466"/>
      <point x="184" y="396" type="curve"/>
      <point x="270" y="401" type="line"/>
      <point x="267" y="423"/>
      <point x="277" y="440"/>
      <point x="297" y="440" type="curve" smooth="yes"/>
      <point x="310" y="440"/>
      <point x="324" y="431"/>
      <point x="324" y="412" type="curve" smooth="yes"/>
      <point x="324" y="395"/>
      <point x="313" y="385"/>
      <point x="301" y="385" type="curve" smooth="yes"/>
      <point x="282" y="385" type="line"/>
      <point x="282" y="324" type="line"/>
      <point x="301" y="324" type="line" smooth="yes"/>
      <point x="319" y="324"/>
      <point x="332" y="315"/>
      <point x="332" y="294" type="curve" smooth="yes"/>
      <point x="332" y="272"/>
      <point x="320" y="261"/>
      <point x="301" y="261" type="curve" smooth="yes"/>
      <point x="276" y="261"/>
      <point x="263" y="277"/>
      <point x="266" y="300" type="curve"/>
    </contour>
    <component base="circlewhite" identifier="EA2680FB"/>
  </outline>
</glyph>
<glyph name="foursanscircled" format="2">
  <advance width="600"/>
  <unicode hex="2783"/>
  <outline>
    <contour>
      <point x="368" y="499" type="line"/>
      <point x="263" y="499" type="line"/>
      <point x="169" y="322" type="line"/>
      <point x="169" y="252" type="line"/>
      <point x="291" y="252" type="line"/>
      <point x="291" y="199" type="line"/>
      <point x="368" y="199" type="line"/>
      <point x="368" y="252" type="line"/>
      <point x="411" y="252" type="line"/>
      <point x="411" y="319" type="line"/>
      <point x="368" y="319" type="line"/>
    </contour>
    <contour>
      <point x="236" y="319" type="line"/>
      <point x="291" y="425" type="line"/>
      <point x="291" y="319" type="line"/>
    </contour>
    <component base="circlewhite" identifier="2360E153"/>
  </outline>
</glyph>
<glyph name="sixsanscircled" format="2">
  <advance width="600"/>
  <unicode hex="2785"/>
  <outline>
    <contour>
      <point x="297" y="196" type="curve" smooth="yes"/>
      <point x="377" y="196"/>
      <point x="416" y="245"/>
      <point x="416" y="300" type="curve" smooth="yes"/>
      <point x="416" y="361"/>
      <point x="380" y="400"/>
      <point x="323" y="400" type="curve" smooth="yes"/>
      <point x="297" y="400"/>
      <point x="275" y="392"/>
      <point x="260" y="377" type="curve"/>
      <point x="265" y="420"/>
      <point x="284" y="437"/>
      <point x="305" y="437" type="curve" smooth="yes"/>
      <point x="318" y="437"/>
      <point x="326" y="431"/>
      <point x="327" y="415" type="curve"/>
      <point x="411" y="406" type="line"/>
      <point x="408" y="467"/>
      <point x="371" y="504"/>
      <point x="308" y="504" type="curve" smooth="yes"/>
      <point x="226" y="504"/>
      <point x="174" y="441"/>
      <point x="174" y="342" type="curve" smooth="yes"/>
      <point x="174" y="299"/>
      <point x="182" y="266"/>
      <point x="198" y="244" type="curve" smooth="yes"/>
      <point x="218" y="214"/>
      <point x="248" y="196"/>
    </contour>
    <contour>
      <point x="297" y="257" type="curve" smooth="yes"/>
      <point x="276" y="257"/>
      <point x="263" y="274"/>
      <point x="263" y="299" type="curve" smooth="yes"/>
      <point x="263" y="324"/>
      <point x="276" y="342"/>
      <point x="297" y="342" type="curve" smooth="yes"/>
      <point x="318" y="342"/>
      <point x="331" y="324"/>
      <point x="331" y="299" type="curve" smooth="yes"/>
      <point x="331" y="274"/>
      <point x="318" y="257"/>
    </contour>
    <component base="circlewhite" identifier="C1F834C6"/>
  </outline>
</glyph>
<glyph name="sevensanscircled" format="2">
  <advance width="600"/>
  <unicode hex="2786"/>
  <outline>
    <contour>
      <point x="182" y="499" type="line"/>
      <point x="182" y="376" type="line"/>
      <point x="260" y="376" type="line"/>
      <point x="260" y="431" type="line"/>
      <point x="333" y="431" type="line"/>
      <point x="286" y="358"/>
      <point x="252" y="289"/>
      <point x="249" y="199" type="curve"/>
      <point x="335" y="199" type="line"/>
      <point x="341" y="299"/>
      <point x="371" y="369"/>
      <point x="420" y="449" type="curve"/>
      <point x="420" y="499" type="line"/>
    </contour>
    <component base="circlewhite" identifier="157BFCB8"/>
  </outline>
</glyph>
<glyph name="eightsanscircled" format="2">
  <advance width="600"/>
  <unicode hex="2787"/>
  <outline>
    <contour>
      <point x="177" y="288" type="curve" smooth="yes"/>
      <point x="177" y="235"/>
      <point x="222" y="196"/>
      <point x="301" y="196" type="curve" smooth="yes"/>
      <point x="379" y="196"/>
      <point x="424" y="235"/>
      <point x="424" y="288" type="curve" smooth="yes"/>
      <point x="424" y="326"/>
      <point x="400" y="349"/>
      <point x="369" y="360" type="curve"/>
      <point x="394" y="369"/>
      <point x="414" y="389"/>
      <point x="414" y="421" type="curve" smooth="yes"/>
      <point x="414" y="468"/>
      <point x="375" y="504"/>
      <point x="301" y="504" type="curve" smooth="yes"/>
      <point x="226" y="504"/>
      <point x="187" y="468"/>
      <point x="187" y="421" type="curve" smooth="yes"/>
      <point x="187" y="389"/>
      <point x="207" y="369"/>
      <point x="232" y="360" type="curve"/>
      <point x="201" y="349"/>
      <point x="177" y="326"/>
    </contour>
    <contour>
      <point x="341" y="293" type="curve" smooth="yes"/>
      <point x="341" y="271"/>
      <point x="325" y="255"/>
      <point x="301" y="255" type="curve" smooth="yes"/>
      <point x="276" y="255"/>
      <point x="260" y="271"/>
      <point x="260" y="293" type="curve" smooth="yes"/>
      <point x="260" y="315"/>
      <point x="276" y="330"/>
      <point x="301" y="330" type="curve" smooth="yes"/>
      <point x="325" y="330"/>
      <point x="341" y="315"/>
    </contour>
    <contour>
      <point x="333" y="416" type="curve" smooth="yes"/>
      <point x="333" y="400"/>
      <point x="321" y="388"/>
      <point x="301" y="388" type="curve" smooth="yes"/>
      <point x="280" y="388"/>
      <point x="267" y="400"/>
      <point x="267" y="416" type="curve" smooth="yes"/>
      <point x="267" y="432"/>
      <point x="280" y="445"/>
      <point x="301" y="445" type="curve" smooth="yes"/>
      <point x="321" y="445"/>
      <point x="333" y="432"/>
    </contour>
    <component base="circlewhite" identifier="95298054"/>
  </outline>
</glyph>
<glyph name="onesansnegativecircled" format="2">
  <advance width="600"/>
  <unicode hex="278A"/>
  <outline>
    <contour>
      <point x="274" y="500" type="curve"/>
      <point x="351" y="500" type="line"/>
      <point x="351" y="200" type="line"/>
      <point x="267" y="200" type="line"/>
      <point x="267" y="368" type="line"/>
      <point x="203" y="368" type="line"/>
      <point x="203" y="432" type="line"/>
      <point x="259" y="432"/>
      <point x="274" y="448"/>
    </contour>
    <component base="circleblack" identifier="934E526F"/>
  </outline>
</glyph>
<glyph name="twosansnegativecircled" format="2">
  <advance width="600"/>
  <unicode hex="278B"/>
  <outline>
    <contour>
      <point x="408" y="200" type="line"/>
      <point x="194" y="200" type="line"/>
      <point x="194" y="268" type="line"/>
      <point x="290" y="349"/>
      <point x="322" y="373"/>
      <point x="322" y="405" type="curve" smooth="yes"/>
      <point x="322" y="430"/>
      <point x="313" y="438"/>
      <point x="298" y="438" type="curve" smooth="yes"/>
      <point x="283" y="438"/>
      <point x="273" y="429"/>
      <point x="273" y="405" type="curve" smooth="yes"/>
      <point x="273" y="398"/>
      <point x="274" y="389"/>
      <point x="280" y="379" type="curve"/>
      <point x="202" y="369" type="line"/>
      <point x="193" y="384"/>
      <point x="190" y="396"/>
      <point x="190" y="410" type="curve" smooth="yes"/>
      <point x="190" y="456"/>
      <point x="223" y="504"/>
      <point x="300" y="504" type="curve" smooth="yes"/>
      <point x="381" y="504"/>
      <point x="408" y="451"/>
      <point x="408" y="406" type="curve" smooth="yes"/>
      <point x="408" y="355"/>
      <point x="367" y="318"/>
      <point x="305" y="270" type="curve"/>
      <point x="408" y="270" type="line"/>
    </contour>
    <component base="circleblack" identifier="46228D83"/>
  </outline>
</glyph>
<glyph name="threesansnegativecircled" format="2">
  <advance width="600"/>
  <unicode hex="278C"/>
  <outline>
    <contour>
      <point x="182" y="306" type="curve"/>
      <point x="266" y="300" type="line"/>
      <point x="263" y="277"/>
      <point x="276" y="261"/>
      <point x="301" y="261" type="curve" smooth="yes"/>
      <point x="320" y="261"/>
      <point x="332" y="272"/>
      <point x="332" y="294" type="curve" smooth="yes"/>
      <point x="332" y="315"/>
      <point x="319" y="324"/>
      <point x="301" y="324" type="curve" smooth="yes"/>
      <point x="282" y="324" type="line"/>
      <point x="282" y="385" type="line"/>
      <point x="301" y="385" type="line" smooth="yes"/>
      <point x="313" y="385"/>
      <point x="324" y="395"/>
      <point x="324" y="412" type="curve" smooth="yes"/>
      <point x="324" y="431"/>
      <point x="310" y="440"/>
      <point x="297" y="440" type="curve" smooth="yes"/>
      <point x="277" y="440"/>
      <point x="267" y="423"/>
      <point x="270" y="401" type="curve"/>
      <point x="184" y="396" type="line"/>
      <point x="179" y="466"/>
      <point x="229" y="504"/>
      <point x="300" y="504" type="curve" smooth="yes"/>
      <point x="378" y="504"/>
      <point x="409" y="462"/>
      <point x="409" y="418" type="curve" smooth="yes"/>
      <point x="409" y="383"/>
      <point x="388" y="365"/>
      <point x="366" y="357" type="curve"/>
      <point x="397" y="347"/>
      <point x="417" y="326"/>
      <point x="417" y="288" type="curve" smooth="yes"/>
      <point x="417" y="235"/>
      <point x="377" y="196"/>
      <point x="301" y="196" type="curve" smooth="yes"/>
      <point x="230" y="196"/>
      <point x="177" y="232"/>
    </contour>
    <component base="circleblack" identifier="77C6EF07"/>
  </outline>
</glyph>
<glyph name="fivesansnegativecircled" format="2">
  <advance width="600"/>
  <unicode hex="278E"/>
  <outline>
    <contour>
      <point x="183" y="306" type="curve"/>
      <point x="271" y="295" type="line"/>
      <point x="272" y="274"/>
      <point x="280" y="260"/>
      <point x="298" y="260" type="curve" smooth="yes"/>
      <point x="317" y="260"/>
      <point x="325" y="279"/>
      <point x="325" y="302" type="curve" smooth="yes"/>
      <point x="325" y="325"/>
      <point x="316" y="341"/>
      <point x="298" y="341" type="curve" smooth="yes"/>
      <point x="285" y="341"/>
      <point x="275" y="332"/>
      <point x="271" y="323" type="curve"/>
      <point x="190" y="328" type="line"/>
      <point x="209" y="499" type="line"/>
      <point x="401" y="499" type="line"/>
      <point x="401" y="429" type="line"/>
      <point x="278" y="429" type="line"/>
      <point x="273" y="389" type="line"/>
      <point x="285" y="398"/>
      <point x="302" y="404"/>
      <point x="322" y="404" type="curve" smooth="yes"/>
      <point x="381" y="404"/>
      <point x="410" y="361"/>
      <point x="410" y="305" type="curve" smooth="yes"/>
      <point x="410" y="239"/>
      <point x="373" y="195"/>
      <point x="299" y="195" type="curve" smooth="yes"/>
      <point x="228" y="195"/>
      <point x="186" y="232"/>
    </contour>
    <component base="circleblack" identifier="1B13B8C4"/>
  </outline>
</glyph>
<glyph name="sixsansnegativecircled" format="2">
  <advance width="600"/>
  <unicode hex="278F"/>
  <outline>
    <contour>
      <point x="297" y="196" type="curve" smooth="yes"/>
      <point x="248" y="196"/>
      <point x="218" y="214"/>
      <point x="198" y="244" type="curve" smooth="yes"/>
      <point x="182" y="266"/>
      <point x="174" y="299"/>
      <point x="174" y="342" type="curve" smooth="yes"/>
      <point x="174" y="441"/>
      <point x="226" y="504"/>
      <point x="308" y="504" type="curve" smooth="yes"/>
      <point x="371" y="504"/>
      <point x="408" y="467"/>
      <point x="411" y="406" type="curve"/>
      <point x="327" y="415" type="line"/>
      <point x="326" y="431"/>
      <point x="318" y="437"/>
      <point x="305" y="437" type="curve" smooth="yes"/>
      <point x="284" y="437"/>
      <point x="265" y="420"/>
      <point x="260" y="377" type="curve"/>
      <point x="275" y="392"/>
      <point x="297" y="400"/>
      <point x="323" y="400" type="curve" smooth="yes"/>
      <point x="380" y="400"/>
      <point x="416" y="361"/>
      <point x="416" y="300" type="curve" smooth="yes"/>
      <point x="416" y="245"/>
      <point x="377" y="196"/>
    </contour>
    <contour>
      <point x="297" y="257" type="curve" smooth="yes"/>
      <point x="318" y="257"/>
      <point x="331" y="274"/>
      <point x="331" y="299" type="curve" smooth="yes"/>
      <point x="331" y="324"/>
      <point x="318" y="342"/>
      <point x="297" y="342" type="curve" smooth="yes"/>
      <point x="276" y="342"/>
      <point x="263" y="324"/>
      <point x="263" y="299" type="curve" smooth="yes"/>
      <point x="263" y="274"/>
      <point x="276" y="257"/>
    </contour>
    <component base="circleblack" identifier="20FB306F"/>
  </outline>
</glyph>
<glyph name="sevensansnegativecircled" format="2">
  <advance width="600"/>
  <unicode hex="2790"/>
  <outline>
    <contour>
      <point x="182" y="499" type="line"/>
      <point x="420" y="499" type="line"/>
      <point x="420" y="449" type="line"/>
      <point x="371" y="369"/>
      <point x="341" y="299"/>
      <point x="335" y="199" type="curve"/>
      <point x="249" y="199" type="line"/>
      <point x="252" y="289"/>
      <point x="286" y="358"/>
      <point x="333" y="431" type="curve"/>
      <point x="260" y="431" type="line"/>
      <point x="260" y="376" type="line"/>
      <point x="182" y="376" type="line"/>
    </contour>
    <component base="circleblack" identifier="295154E4"/>
  </outline>
</glyph>
<glyph name="eightsansnegativecircled" format="2">
  <advance width="600"/>
  <unicode hex="2791"/>
  <outline>
    <contour>
      <point x="177" y="288" type="curve" smooth="yes"/>
      <point x="177" y="326"/>
      <point x="201" y="349"/>
      <point x="232" y="360" type="curve"/>
      <point x="207" y="369"/>
      <point x="187" y="389"/>
      <point x="187" y="421" type="curve" smooth="yes"/>
      <point x="187" y="468"/>
      <point x="226" y="504"/>
      <point x="301" y="504" type="curve" smooth="yes"/>
      <point x="375" y="504"/>
      <point x="414" y="468"/>
      <point x="414" y="421" type="curve" smooth="yes"/>
      <point x="414" y="389"/>
      <point x="394" y="369"/>
      <point x="369" y="360" type="curve"/>
      <point x="400" y="349"/>
      <point x="424" y="326"/>
      <point x="424" y="288" type="curve" smooth="yes"/>
      <point x="424" y="235"/>
      <point x="379" y="196"/>
      <point x="301" y="196" type="curve" smooth="yes"/>
      <point x="222" y="196"/>
      <point x="177" y="235"/>
    </contour>
    <contour>
      <point x="301" y="388" type="curve" smooth="yes"/>
      <point x="321" y="388"/>
      <point x="333" y="400"/>
      <point x="333" y="416" type="curve" smooth="yes"/>
      <point x="333" y="432"/>
      <point x="321" y="445"/>
      <point x="301" y="445" type="curve" smooth="yes"/>
      <point x="280" y="445"/>
      <point x="267" y="432"/>
      <point x="267" y="416" type="curve" smooth="yes"/>
      <point x="267" y="400"/>
      <point x="280" y="388"/>
    </contour>
    <contour>
      <point x="301" y="330" type="curve" smooth="yes"/>
      <point x="276" y="330"/>
      <point x="260" y="315"/>
      <point x="260" y="293" type="curve" smooth="yes"/>
      <point x="260" y="271"/>
      <point x="276" y="255"/>
      <point x="301" y="255" type="curve" smooth="yes"/>
      <point x="325" y="255"/>
      <point x="341" y="271"/>
      <point x="341" y="293" type="curve" smooth="yes"/>
      <point x="341" y="315"/>
      <point x="325" y="330"/>
    </contour>
    <component base="circleblack" identifier="C6AC9D1E"/>
  </outline>
</glyph>
<glyph name="ninesansnegativecircled" format="2">
  <advance width="600"/>
  <unicode hex="2792"/>
  <outline>
    <contour>
      <point x="301" y="504" type="curve" smooth="yes"/>
      <point x="347" y="504"/>
      <point x="380" y="486"/>
      <point x="398" y="460" type="curve" smooth="yes"/>
      <point x="416" y="433"/>
      <point x="423" y="405"/>
      <point x="423" y="356" type="curve" smooth="yes"/>
      <point x="423" y="252"/>
      <point x="386" y="196"/>
      <point x="298" y="196" type="curve" smooth="yes"/>
      <point x="233" y="196"/>
      <point x="187" y="233"/>
      <point x="184" y="299" type="curve"/>
      <point x="274" y="288" type="line"/>
      <point x="274" y="269"/>
      <point x="284" y="257"/>
      <point x="301" y="257" type="curve" smooth="yes"/>
      <point x="325" y="257"/>
      <point x="335" y="288"/>
      <point x="338" y="325" type="curve"/>
      <point x="323" y="311"/>
      <point x="302" y="303"/>
      <point x="274" y="303" type="curve" smooth="yes"/>
      <point x="221" y="303"/>
      <point x="183" y="336"/>
      <point x="183" y="397" type="curve" smooth="yes"/>
      <point x="183" y="459"/>
      <point x="221" y="504"/>
    </contour>
    <contour>
      <point x="301" y="360" type="curve" smooth="yes"/>
      <point x="322" y="360"/>
      <point x="336" y="377"/>
      <point x="336" y="401" type="curve" smooth="yes"/>
      <point x="336" y="425"/>
      <point x="322" y="442"/>
      <point x="301" y="442" type="curve" smooth="yes"/>
      <point x="281" y="442"/>
      <point x="267" y="425"/>
      <point x="267" y="401" type="curve" smooth="yes"/>
      <point x="267" y="377"/>
      <point x="281" y="360"/>
    </contour>
    <component base="circleblack" identifier="A01D9E4F"/>
  </outline>
</glyph>
<glyph name="tensansnegativecircled" format="2">
  <advance width="600"/>
  <unicode hex="2793"/>
  <outline>
    <contour>
      <point x="362" y="504" type="curve" smooth="yes"/>
      <point x="412" y="504"/>
      <point x="450" y="465"/>
      <point x="450" y="350" type="curve" smooth="yes"/>
      <point x="450" y="235"/>
      <point x="412" y="196"/>
      <point x="362" y="196" type="curve" smooth="yes"/>
      <point x="312" y="196"/>
      <point x="274" y="235"/>
      <point x="274" y="350" type="curve" smooth="yes"/>
      <point x="274" y="465"/>
      <point x="312" y="504"/>
    </contour>
    <contour>
      <point x="362" y="264" type="curve" smooth="yes"/>
      <point x="373" y="264"/>
      <point x="379" y="274"/>
      <point x="379" y="350" type="curve" smooth="yes"/>
      <point x="379" y="426"/>
      <point x="373" y="436"/>
      <point x="362" y="436" type="curve" smooth="yes"/>
      <point x="351" y="436"/>
      <point x="345" y="426"/>
      <point x="345" y="350" type="curve" smooth="yes"/>
      <point x="345" y="274"/>
      <point x="351" y="264"/>
    </contour>
    <contour>
      <point x="189" y="499" type="curve"/>
      <point x="254" y="499" type="line"/>
      <point x="254" y="199" type="line"/>
      <point x="185" y="199" type="line"/>
      <point x="185" y="377" type="line"/>
      <point x="143" y="377" type="line"/>
      <point x="143" y="441" type="line"/>
      <point x="180" y="441"/>
      <point x="189" y="457"/>
    </contour>
    <component base="circleblack" identifier="B5569BFB"/>
  </outline>
</glyph>
<glyph name="R.alt1" format="2">
  <advance width="600"/>
  <outline>
    <contour>
      <point x="56" y="700" type="line"/>
      <point x="56" y="0" type="line"/>
      <point x="204" y="0" type="line"/>
      <point x="204" y="700" type="line"/>
    </contour>
    <contour>
      <point x="315" y="397" type="curve" smooth="yes"/>
      <point x="129" y="397" type="line"/>
      <point x="129" y="277" type="line"/>
      <point x="348" y="277" type="line" smooth="yes"/>
      <point x="379" y="277"/>
      <point x="403" y="249"/>
      <point x="405" y="179" type="curve" smooth="yes"/>
      <point x="408" y="84"/>
      <point x="401" y="34"/>
      <point x="431" y="0" type="curve"/>
      <point x="580" y="0" type="line"/>
      <point x="580" y="17" type="line"/>
      <point x="550" y="35"/>
      <point x="556" y="130"/>
      <point x="550" y="210" type="curve" smooth="yes"/>
      <point x="545" y="278"/>
      <point x="504" y="319"/>
      <point x="432" y="333" type="curve"/>
      <point x="432" y="306" type="line"/>
      <point x="523" y="325"/>
      <point x="569" y="383"/>
      <point x="569" y="488" type="curve" smooth="yes"/>
      <point x="569" y="620"/>
      <point x="487" y="700"/>
      <point x="332" y="700" type="curve" smooth="yes"/>
      <point x="134" y="700" type="line"/>
      <point x="134" y="579" type="line"/>
      <point x="315" y="579" type="line" smooth="yes"/>
      <point x="381" y="579"/>
      <point x="417" y="546"/>
      <point x="417" y="488" type="curve" smooth="yes"/>
      <point x="417" y="430"/>
      <point x="381" y="397"/>
    </contour>
  </outline>
</glyph>
<glyph name="acutecmb.uc" format="2">
  <advance width="600"/>
  <outline>
    <contour>
      <point x="285" y="892" type="line"/>
      <point x="436" y="892" type="line"/>
      <point x="327" y="760" type="line"/>
      <point x="207" y="760" type="line"/>
    </contour>
  </outline>
</glyph>
<glyph name="backslash.uc" format="2">
  <advance width="600"/>
  <outline>
    <contour>
      <point x="162" y="745" type="line"/>
      <point x="576" y="-83" type="line"/>
      <point x="426" y="-83" type="line"/>
      <point x="12" y="745" type="line"/>
    </contour>
  </outline>
</glyph>
<glyph name="bar.uc" format="2">
  <advance width="600"/>
  <outline>
    <contour>
      <point x="226" y="745" type="line"/>
      <point x="226" y="-83" type="line"/>
      <point x="373" y="-83" type="line"/>
      <point x="373" y="745" type="line"/>
    </contour>
  </outline>
</glyph>
<glyph name="bracketleft.uc" format="2">
  <advance width="600"/>
  <outline>
    <contour>
      <point x="208" y="-83" type="line"/>
      <point x="483" y="-83" type="line"/>
      <point x="483" y="24" type="line"/>
      <point x="353" y="24" type="line"/>
      <point x="353" y="638" type="line"/>
      <point x="483" y="638" type="line"/>
      <point x="483" y="745" type="line"/>
      <point x="208" y="745" type="line"/>
    </contour>
  </outline>
</glyph>
<glyph name="brevecmb.uc" format="2">
  <advance width="600"/>
  <outline>
    <contour>
      <point x="136" y="895" type="line"/>
      <point x="136" y="824"/>
      <point x="191" y="754"/>
      <point x="300" y="754" type="curve" smooth="yes"/>
      <point x="409" y="754"/>
      <point x="464" y="824"/>
      <point x="464" y="895" type="curve"/>
      <point x="353" y="895" type="line"/>
      <point x="353" y="866"/>
      <point x="333" y="844"/>
      <point x="300" y="844" type="curve" smooth="yes"/>
      <point x="267" y="844"/>
      <point x="247" y="866"/>
      <point x="247" y="895" type="curve"/>
    </contour>
  </outline>
</glyph>
<glyph name="brokenbar.uc" format="2">
  <advance width="600"/>
  <outline>
    <contour>
      <point x="226" y="745" type="line"/>
      <point x="226" y="382" type="line"/>
      <point x="373" y="382" type="line"/>
      <point x="373" y="745" type="line"/>
    </contour>
    <contour>
      <point x="226" y="280" type="line"/>
      <point x="226" y="-83" type="line"/>
      <point x="373" y="-83" type="line"/>
      <point x="373" y="280" type="line"/>
    </contour>
  </outline>
</glyph>
<glyph name="bullet.medium" format="2">
  <advance width="600"/>
  <outline>
    <contour>
      <point x="300" y="538" type="curve" smooth="yes"/>
      <point x="175" y="538"/>
      <point x="71" y="434"/>
      <point x="71" y="309" type="curve" smooth="yes"/>
      <point x="71" y="184"/>
      <point x="175" y="80"/>
      <point x="300" y="80" type="curve" smooth="yes"/>
      <point x="425" y="80"/>
      <point x="529" y="184"/>
      <point x="529" y="309" type="curve" smooth="yes"/>
      <point x="529" y="434"/>
      <point x="425" y="538"/>
    </contour>
  </outline>
</glyph>
<glyph name="caroncmb.alt" format="2">
  <advance width="600"/>
  <outline>
    <contour>
      <point x="260" y="700" type="line"/>
      <point x="252" y="540" type="line"/>
      <point x="359" y="540" type="line"/>
      <point x="394" y="700" type="line"/>
    </contour>
  </outline>
</glyph>
<glyph name="caroncmb.uc" format="2">
  <advance width="600"/>
  <outline>
    <contour>
      <point x="110" y="892" type="line"/>
      <point x="224" y="760" type="line"/>
      <point x="376" y="760" type="line"/>
      <point x="490" y="892" type="line"/>
      <point x="362" y="892" type="line"/>
      <point x="247" y="798" type="line"/>
      <point x="353" y="798" type="line"/>
      <point x="238" y="892" type="line"/>
    </contour>
  </outline>
</glyph>
<glyph name="caroncmb.ucalt" format="2">
  <advance width="600"/>
  <outline>
    <contour>
      <point x="256" y="700" type="line"/>
      <point x="249" y="434" type="line"/>
      <point x="361" y="434" type="line"/>
      <point x="395" y="700" type="line"/>
    </contour>
  </outline>
</glyph>
<glyph name="colon.tab" format="2">
  <advance width="600"/>
  <outline>
    <contour>
      <point x="225" y="179" type="line"/>
      <point x="225" y="0" type="line"/>
      <point x="376" y="0" type="line"/>
      <point x="376" y="179" type="line"/>
    </contour>
    <contour>
      <point x="225" y="500" type="line"/>
      <point x="225" y="321" type="line"/>
      <point x="376" y="321" type="line"/>
      <point x="376" y="500" type="line"/>
    </contour>
  </outline>
</glyph>
<glyph name="dieresiscmb.uc" format="2">
  <advance width="600"/>
  <outline>
    <contour>
      <point x="118" y="908" type="line"/>
      <point x="118" y="760" type="line"/>
      <point x="270" y="760" type="line"/>
      <point x="270" y="908" type="line"/>
    </contour>
    <contour>
      <point x="330" y="908" type="line"/>
      <point x="330" y="760" type="line"/>
      <point x="482" y="760" type="line"/>
      <point x="482" y="908" type="line"/>
    </contour>
  </outline>
</glyph>
<glyph name="dotaccentcmb.uc" format="2">
  <advance width="600"/>
  <outline>
    <contour>
      <point x="221" y="907" type="line"/>
      <point x="221" y="761" type="line"/>
      <point x="381" y="761" type="line"/>
      <point x="381" y="907" type="line"/>
    </contour>
  </outline>
</glyph>
<glyph name="dotbelowcmb.uc" format="2">
  <advance width="600"/>
  <outline>
    <contour>
      <point x="221" y="-60" type="line"/>
      <point x="221" y="-206" type="line"/>
      <point x="381" y="-206" type="line"/>
      <point x="381" y="-60" type="line"/>
    </contour>
  </outline>
</glyph>
<glyph name="eight.den" format="2">
  <advance width="600"/>
  <outline>
    <contour>
      <point x="448" y="208" type="curve" smooth="yes"/>
      <point x="425" y="208"/>
      <point x="411" y="221"/>
      <point x="411" y="239" type="curve" smooth="yes"/>
      <point x="411" y="257"/>
      <point x="425" y="271"/>
      <point x="448" y="271" type="curve" smooth="yes"/>
      <point x="471" y="271"/>
      <point x="484" y="257"/>
      <point x="484" y="239" type="curve" smooth="yes"/>
      <point x="484" y="221"/>
      <point x="471" y="208"/>
    </contour>
    <contour>
      <point x="389" y="172" type="curve"/>
      <point x="389" y="181" type="line"/>
      <point x="346" y="172"/>
      <point x="311" y="145"/>
      <point x="311" y="96" type="curve" smooth="yes"/>
      <point x="311" y="38"/>
      <point x="361" y="-6"/>
      <point x="448" y="-6" type="curve" smooth="yes"/>
      <point x="535" y="-6"/>
      <point x="585" y="38"/>
      <point x="585" y="96" type="curve" smooth="yes"/>
      <point x="585" y="145"/>
      <point x="550" y="172"/>
      <point x="507" y="181" type="curve"/>
      <point x="507" y="172" type="line"/>
      <point x="543" y="179"/>
      <point x="574" y="202"/>
      <point x="574" y="244" type="curve" smooth="yes"/>
      <point x="574" y="296"/>
      <point x="531" y="337"/>
      <point x="448" y="337" type="curve" smooth="yes"/>
      <point x="365" y="337"/>
      <point x="322" y="296"/>
      <point x="322" y="244" type="curve" smooth="yes"/>
      <point x="322" y="202"/>
      <point x="353" y="179"/>
    </contour>
    <contour>
      <point x="448" y="143" type="curve" smooth="yes"/>
      <point x="475" y="143"/>
      <point x="493" y="127"/>
      <point x="493" y="102" type="curve" smooth="yes"/>
      <point x="493" y="78"/>
      <point x="475" y="60"/>
      <point x="448" y="60" type="curve" smooth="yes"/>
      <point x="421" y="60"/>
      <point x="403" y="78"/>
      <point x="403" y="102" type="curve" smooth="yes"/>
      <point x="403" y="127"/>
      <point x="421" y="143"/>
    </contour>
  </outline>
</glyph>
<glyph name="eight.sub" format="2">
  <advance width="600"/>
  <outline>
    <contour>
      <point x="300" y="144" type="curve" smooth="yes"/>
      <point x="273" y="144"/>
      <point x="257" y="160"/>
      <point x="257" y="181" type="curve" smooth="yes"/>
      <point x="257" y="202"/>
      <point x="273" y="218"/>
      <point x="300" y="218" type="curve" smooth="yes"/>
      <point x="327" y="218"/>
      <point x="343" y="202"/>
      <point x="343" y="181" type="curve" smooth="yes"/>
      <point x="343" y="160"/>
      <point x="327" y="144"/>
    </contour>
    <contour>
      <point x="231" y="102" type="curve"/>
      <point x="231" y="112" type="line"/>
      <point x="180" y="102"/>
      <point x="139" y="70"/>
      <point x="139" y="13" type="curve" smooth="yes"/>
      <point x="139" y="-56"/>
      <point x="198" y="-108"/>
      <point x="300" y="-108" type="curve" smooth="yes"/>
      <point x="402" y="-108"/>
      <point x="461" y="-56"/>
      <point x="461" y="13" type="curve" smooth="yes"/>
      <point x="461" y="70"/>
      <point x="420" y="102"/>
      <point x="369" y="112" type="curve"/>
      <point x="369" y="102" type="line"/>
      <point x="412" y="110"/>
      <point x="448" y="137"/>
      <point x="448" y="187" type="curve" smooth="yes"/>
      <point x="448" y="248"/>
      <point x="398" y="296"/>
      <point x="300" y="296" type="curve" smooth="yes"/>
      <point x="202" y="296"/>
      <point x="152" y="248"/>
      <point x="152" y="187" type="curve" smooth="yes"/>
      <point x="152" y="137"/>
      <point x="188" y="110"/>
    </contour>
    <contour>
      <point x="300" y="68" type="curve" smooth="yes"/>
      <point x="332" y="68"/>
      <point x="353" y="49"/>
      <point x="353" y="20" type="curve" smooth="yes"/>
      <point x="353" y="-9"/>
      <point x="332" y="-30"/>
      <point x="300" y="-30" type="curve" smooth="yes"/>
      <point x="268" y="-30"/>
      <point x="247" y="-9"/>
      <point x="247" y="20" type="curve" smooth="yes"/>
      <point x="247" y="49"/>
      <point x="268" y="68"/>
    </contour>
  </outline>
</glyph>
<glyph name="eight.sup" format="2">
  <advance width="600"/>
  <outline>
    <contour>
      <point x="300" y="654" type="curve" smooth="yes"/>
      <point x="273" y="654"/>
      <point x="257" y="670"/>
      <point x="257" y="691" type="curve" smooth="yes"/>
      <point x="257" y="712"/>
      <point x="273" y="728"/>
      <point x="300" y="728" type="curve" smooth="yes"/>
      <point x="327" y="728"/>
      <point x="343" y="712"/>
      <point x="343" y="691" type="curve" smooth="yes"/>
      <point x="343" y="670"/>
      <point x="327" y="654"/>
    </contour>
    <contour>
      <point x="231" y="612" type="curve"/>
      <point x="231" y="622" type="line"/>
      <point x="180" y="612"/>
      <point x="139" y="580"/>
      <point x="139" y="523" type="curve" smooth="yes"/>
      <point x="139" y="454"/>
      <point x="198" y="402"/>
      <point x="300" y="402" type="curve" smooth="yes"/>
      <point x="402" y="402"/>
      <point x="461" y="454"/>
      <point x="461" y="523" type="curve" smooth="yes"/>
      <point x="461" y="580"/>
      <point x="420" y="612"/>
      <point x="369" y="622" type="curve"/>
      <point x="369" y="612" type="line"/>
      <point x="412" y="620"/>
      <point x="448" y="647"/>
      <point x="448" y="697" type="curve" smooth="yes"/>
      <point x="448" y="758"/>
      <point x="398" y="806"/>
      <point x="300" y="806" type="curve" smooth="yes"/>
      <point x="202" y="806"/>
      <point x="152" y="758"/>
      <point x="152" y="697" type="curve" smooth="yes"/>
      <point x="152" y="647"/>
      <point x="188" y="620"/>
    </contour>
    <contour>
      <point x="300" y="578" type="curve" smooth="yes"/>
      <point x="332" y="578"/>
      <point x="353" y="559"/>
      <point x="353" y="530" type="curve" smooth="yes"/>
      <point x="353" y="501"/>
      <point x="332" y="480"/>
      <point x="300" y="480" type="curve" smooth="yes"/>
      <point x="268" y="480"/>
      <point x="247" y="501"/>
      <point x="247" y="530" type="curve" smooth="yes"/>
      <point x="247" y="559"/>
      <point x="268" y="578"/>
    </contour>
  </outline>
</glyph>
<glyph name="emdash.uc" format="2">
  <advance width="600"/>
  <outline>
    <contour>
      <point x="30" y="276" type="line"/>
      <point x="570" y="276" type="line"/>
      <point x="570" y="396" type="line"/>
      <point x="30" y="396" type="line"/>
    </contour>
  </outline>
</glyph>
<glyph name="endash.uc" format="2">
  <advance width="600"/>
  <outline>
    <contour>
      <point x="62" y="276" type="line"/>
      <point x="538" y="276" type="line"/>
      <point x="538" y="396" type="line"/>
      <point x="62" y="396" type="line"/>
    </contour>
  </outline>
</glyph>
<glyph name="five.den" format="2">
  <advance width="600"/>
  <outline>
    <contour>
      <point x="321" y="116" type="line"/>
      <point x="324" y="34"/>
      <point x="371" y="-7"/>
      <point x="450" y="-7" type="curve" smooth="yes"/>
      <point x="532" y="-7"/>
      <point x="573" y="42"/>
      <point x="573" y="115" type="curve" smooth="yes"/>
      <point x="573" y="178"/>
      <point x="541" y="225"/>
      <point x="475" y="225" type="curve" smooth="yes"/>
      <point x="427" y="225"/>
      <point x="399" y="196"/>
      <point x="389" y="166" type="curve"/>
      <point x="415" y="166" type="line"/>
      <point x="433" y="312" type="line"/>
      <point x="388" y="253" type="line"/>
      <point x="563" y="253" type="line"/>
      <point x="563" y="331" type="line"/>
      <point x="350" y="331" type="line"/>
      <point x="329" y="141" type="line"/>
      <point x="418" y="135" type="line"/>
      <point x="423" y="145"/>
      <point x="434" y="155"/>
      <point x="448" y="155" type="curve" smooth="yes"/>
      <point x="469" y="155"/>
      <point x="479" y="138"/>
      <point x="479" y="112" type="curve" smooth="yes"/>
      <point x="479" y="86"/>
      <point x="470" y="65"/>
      <point x="449" y="65" type="curve" smooth="yes"/>
      <point x="429" y="65"/>
      <point x="420" y="81"/>
      <point x="419" y="104" type="curve"/>
    </contour>
  </outline>
</glyph>
<glyph name="five.sub" format="2">
  <advance width="600"/>
  <outline>
    <contour>
      <point x="144" y="37" type="line"/>
      <point x="147" y="-60"/>
      <point x="208" y="-108"/>
      <point x="306" y="-108" type="curve" smooth="yes"/>
      <point x="406" y="-108"/>
      <point x="457" y="-54"/>
      <point x="457" y="32" type="curve" smooth="yes"/>
      <point x="457" y="106"/>
      <point x="417" y="165"/>
      <point x="336" y="165" type="curve" smooth="yes"/>
      <point x="276" y="165"/>
      <point x="242" y="131"/>
      <point x="229" y="96" type="curve"/>
      <point x="259" y="96" type="line"/>
      <point x="273" y="268" type="line"/>
      <point x="221" y="198" type="line"/>
      <point x="445" y="198" type="line"/>
      <point x="445" y="290" type="line"/>
      <point x="176" y="290" type="line"/>
      <point x="158" y="66" type="line"/>
      <point x="263" y="59" type="line"/>
      <point x="270" y="71"/>
      <point x="285" y="83"/>
      <point x="304" y="83" type="curve" smooth="yes"/>
      <point x="332" y="83"/>
      <point x="346" y="57"/>
      <point x="346" y="32" type="curve" smooth="yes"/>
      <point x="346" y="2"/>
      <point x="331" y="-23"/>
      <point x="301" y="-23" type="curve" smooth="yes"/>
      <point x="275" y="-23"/>
      <point x="260" y="-4"/>
      <point x="259" y="23" type="curve"/>
    </contour>
  </outline>
</glyph>
